<svg width="456" height="463" viewBox="0 0 456 463" fill="none" xmlns="http://www.w3.org/2000/svg">
<path fill-rule="evenodd" clip-rule="evenodd" d="M286.713 59.6609C340.502 79.7735 390.453 115.656 407.151 170.637C423.526 224.557 401.249 281.142 367.741 326.468C336.693 368.468 289.816 393.324 237.984 399.471C184.098 405.863 125.042 399.715 88.5129 359.588C52.7559 320.308 59.1772 262.623 65.348 209.828C71.7172 155.336 77.6254 95.1873 123.016 64.3957C170.567 32.1381 232.925 39.5491 286.713 59.6609Z" fill="#EEFBFF"/>
<path d="M170.896 173.187C169.245 174.295 123.358 193.875 118.273 198.111C113.187 202.348 110.525 208.873 111.81 211.529C122.189 212.149 166.171 187.348 169.78 182.709C173.474 178.129 170.896 173.187 170.896 173.187Z" fill="#FFD0CA"/>
<path d="M293.865 74.4437C293.865 74.4437 298.187 77.2252 303.332 81.3461C308.476 85.3639 311.152 88.7636 311.152 88.7636C311.152 88.7636 319.178 82.9944 330.702 70.7349C337.185 63.8325 328.644 56.5181 320.515 57.0332C307.036 57.9604 293.865 74.4437 293.865 74.4437Z" fill="#9FC8D5"/>
<path d="M304.463 264.208C308.476 260.293 311.563 256.997 311.563 256.997L329.982 256.172V262.251C329.982 262.251 329.467 264.826 326.586 266.578C323.705 268.432 318.046 271.523 315.062 272.656C310.74 274.201 303.023 275.849 299.627 275.953C295.717 276.056 294.071 274.304 296.129 272.244C299.524 268.947 300.656 267.814 304.463 264.208Z" fill="#305F6D"/>
<path d="M347.269 267.196L363.938 265.341C363.938 265.341 366.305 275.953 362.394 286.873C358.484 297.793 351.693 297.896 349.224 297.072C346.857 296.248 345.725 289.242 346.137 281.413C346.548 273.377 347.269 267.196 347.269 267.196Z" fill="#305F6D"/>
<path d="M325.557 122.039C317.943 124.306 310.843 127.087 310.843 127.087C310.843 127.087 306.007 162.939 304.463 184.573C302.817 209.092 308.271 257.409 308.271 257.409C308.271 257.409 309.094 262.663 318.149 261.941C325.043 261.323 330.29 255.245 330.29 255.245L326.483 199.511L334.406 164.999C333.274 145.219 327.101 141.613 325.557 122.039Z" fill="url(#paint0_linear)"/>
<path d="M370.42 261.014C370.42 261.014 365.687 225.369 355.398 202.086C354.574 184.367 361.16 164.175 357.147 146.661C352.105 124.821 344.285 125.336 344.285 125.336C344.799 121.627 336.67 122.245 328.336 123.894C328.336 138.523 328.439 153.254 328.336 167.883L328.541 167.059C328.541 167.059 329.776 196.214 334.201 212.079C340.169 232.993 344.285 269.462 344.285 269.462C344.285 269.462 356.015 273.686 364.041 269.668C371.964 265.547 370.42 261.014 370.42 261.014Z" fill="url(#paint1_linear)"/>
<path d="M322.779 63.6267C324.322 64.2448 325.146 65.7901 325.146 65.7901L343.667 66.0992C343.667 66.0992 358.69 69.1898 362.188 80.8312C362.497 84.4369 361.983 92.9876 361.468 96.7994C360.954 97.1084 357.455 96.5933 357.147 97.3145C352.413 111.016 353.031 127.706 354.06 141.51C352.31 145.013 316.296 145.013 309.094 140.995C312.901 114.21 301.376 83.0976 322.779 63.6267Z" fill="#B7DBE6"/>
<path d="M325.66 84.7459C328.13 82.7885 329.056 78.9767 329.056 78.9767C329.056 78.9767 328.233 78.7707 326.895 78.2555C324.837 77.5344 323.705 77.2253 323.705 77.2253C323.705 77.2253 322.265 81.5522 322.779 83.3036C321.236 86.2912 317.531 95.357 317.531 95.357L321.236 104.114L327.924 96.3872C327.924 96.3872 327.718 95.8721 327.101 93.9147C326.689 92.5754 325.969 87.2183 325.66 84.7459Z" fill="url(#paint2_linear)"/>
<path d="M308.991 90.7211C311.357 69.6018 322.059 60.1239 322.059 60.1239L327.101 63.1115C327.101 63.1115 321.133 76.2982 320.515 82.2734C319.589 92.2664 322.264 101.435 322.264 101.435C322.264 101.435 329.364 82.8915 336.979 75.0619C344.079 67.8505 345.416 65.9961 345.416 65.9961L352.31 69.6018C352.31 69.6018 342.947 83.2005 344.284 98.4476C345.416 111.634 354.368 111.84 354.368 111.84L358.999 148.104C358.999 148.104 347.783 155.624 338.522 156.242C336.053 156.448 327.512 156.448 324.734 156.036C324.734 152.534 322.676 145.116 322.676 145.116C322.676 145.116 320.207 150.988 320.207 154.903C309.917 153.049 306.418 145.116 306.418 145.116C306.418 145.116 308.991 127.602 308.991 118.125C308.991 103.496 308.579 94.6358 308.991 90.7211Z" fill="url(#paint3_linear)"/>
<path d="M327.204 63.2144L341.198 53.0154L344.182 69.4987C344.182 69.4987 341.3 72.8984 337.082 75.1648C333.583 77.0192 329.364 77.8434 325.454 78.9766C323.808 76.092 325.454 72.8984 325.454 72.8984L327.204 63.2144Z" fill="#FCB9B4"/>
<path d="M342.844 34.7805C345.931 38.6952 346.96 48.6883 342.639 55.6937C338.831 61.8749 330.188 65.3776 326.381 65.9957C319.487 67.129 312.078 48.0701 319.898 36.5318C327.41 25.4056 338.831 29.7324 342.844 34.7805Z" fill="#FFD0CA"/>
<path d="M336.259 26.436C340.169 27.0541 343.153 29.5266 345.314 32.4112C352.311 33.8535 351.59 43.9495 349.841 47.8643C346.445 55.2818 342.638 55.6939 342.638 55.6939C342.638 55.6939 343.667 51.6761 342.741 49.9247C342.021 48.3794 339.551 48.1734 338.831 50.8519C337.905 51.161 336.876 51.058 336.876 51.058L337.699 45.7009C337.699 45.7009 333.686 47.7613 329.056 45.0828C324.837 42.6103 320.618 44.0526 319.178 45.4948C318.252 43.2284 318.354 41.8891 318.457 40.0348C315.782 38.0774 313.107 36.429 313.518 35.0898C315.576 35.7079 318.046 35.7079 320.001 34.4716C318.252 33.1324 317.428 31.8961 316.399 30.4538C321.338 31.0719 331.628 25.6118 336.259 26.436Z" fill="#305F6D"/>
<path d="M326.689 65.7901C325.763 71.0441 325.455 78.9767 325.455 78.9767L317.429 74.4438L321.956 64.3478C322.471 64.7599 324.734 66.5112 326.689 65.7901Z" fill="#9FC8D5"/>
<path d="M342.741 61.7722C342.741 61.7722 345.211 64.6568 345.519 66.0991C346.343 70.529 342.227 76.5042 338.625 81.1401C334.921 79.1827 325.455 78.9767 325.455 78.9767C325.455 78.9767 330.805 73.8256 333.892 71.3531C341.198 65.584 342.741 61.7722 342.741 61.7722Z" fill="#9FC8D5"/>
<path d="M288.526 242.66L266.608 229.988C266.506 229.885 266.403 229.885 266.3 229.782C265.065 228.855 264.551 226.898 264.551 224.631C264.551 224.322 264.551 224.013 264.551 223.498V223.395V223.292C264.653 219.892 265.271 217.42 265.991 214.535C266.3 213.093 266.711 211.445 267.02 209.796L271.753 207.015L271.959 206.912L272.062 206.809L275.766 204.851L275.869 204.748C277.207 204.13 278.442 203.615 279.471 203.203L279.573 203.1C279.779 202.997 279.882 202.997 280.088 202.997C280.294 202.894 280.5 202.894 280.705 202.894H280.808C281.014 202.791 281.323 202.791 281.529 202.688C281.734 202.688 281.94 202.585 282.146 202.585C282.352 202.585 282.66 202.585 282.866 202.482C283.072 202.482 283.278 202.482 283.381 202.482C283.586 202.482 283.792 202.482 284.101 202.585H284.204C284.307 202.585 284.41 202.585 284.513 202.688C284.821 202.791 285.027 202.894 285.336 202.997C285.439 202.997 285.542 203.1 285.542 203.1C286.262 203.512 286.879 204.027 287.394 204.748C287.394 204.748 287.497 204.851 287.497 204.954C287.702 205.263 287.908 205.676 288.114 205.985C288.114 206.088 288.217 206.088 288.217 206.191V206.294C288.32 206.706 288.526 207.118 288.628 207.53L288.731 207.839C288.834 208.354 288.937 208.869 289.04 209.384V209.59C289.246 210.93 289.349 212.372 289.349 214.02C289.349 219.583 288.32 223.704 287.497 227.31C286.776 230.194 286.159 232.667 286.056 236.067V236.17V236.273C286.056 236.788 285.953 237.097 286.056 237.406C286.056 239.672 286.776 241.424 287.908 242.351C288.32 242.454 288.423 242.557 288.526 242.66Z" fill="url(#paint4_linear)"/>
<path d="M254.158 217.317L232.344 204.543V196.507V188.471V180.951C232.344 176.521 232.55 173.121 232.961 170.546C233.682 166.322 234.916 165.086 238.209 163.128C241.09 161.48 242.84 161.274 244.897 161.171C245.721 161.068 246.441 161.068 247.161 160.965C247.367 160.965 247.573 160.862 247.779 160.862C248.087 160.759 248.499 160.759 248.808 160.656C249.219 160.553 249.631 160.45 250.145 160.244C250.351 160.141 250.557 160.141 250.763 160.038C251.483 159.728 252.203 159.419 252.923 159.11C252.923 159.11 253.026 159.11 253.026 159.007C253.541 158.801 253.952 158.595 254.364 158.389C258.377 156.02 262.184 151.487 264.757 145.821C264.962 145.409 265.065 145.1 265.271 144.687C265.065 144.894 264.859 145.1 264.757 145.203C265.477 144.481 266.094 143.76 266.815 143.039C268.872 140.773 271.239 138.197 274.84 135.931C275.252 135.622 275.664 135.313 276.178 135.107C283.587 130.78 289.761 135.416 289.761 145.306C289.761 149.529 288.629 154.268 286.674 158.595C284.101 164.261 280.294 168.897 276.281 171.267C275.869 171.473 275.458 171.679 274.943 171.885H274.84C274.12 172.297 273.4 172.606 272.68 172.915L272.062 173.121C271.548 173.327 271.136 173.43 270.725 173.533C270.416 173.636 270.004 173.739 269.696 173.739C269.49 173.739 269.284 173.842 269.078 173.842C268.358 173.945 267.638 174.048 266.815 174.048C264.859 174.151 263.11 174.357 260.229 176.006C256.936 177.963 255.805 179.199 254.981 183.423C254.57 185.896 254.261 189.295 254.261 193.828V201.349V209.384L254.158 217.317Z" fill="url(#paint5_linear)"/>
<path d="M256.113 149.838L234.196 137.167C232.961 136.343 232.344 133.149 232.344 124.907L232.241 101.419L254.158 114.09V137.682C254.158 145.924 254.775 149.117 256.113 149.838Z" fill="url(#paint6_linear)"/>
<path opacity="0.2" d="M288.526 242.66L266.608 229.988C266.506 229.885 266.403 229.885 266.3 229.782C265.065 228.855 264.551 226.898 264.551 224.631C264.551 224.322 264.551 224.013 264.551 223.498V223.395V223.292C264.653 219.892 265.271 217.42 265.991 214.535C266.3 213.093 266.711 211.445 267.02 209.796L271.753 207.015L271.959 206.912L272.062 206.809L275.766 204.851L275.869 204.748C277.207 204.13 278.442 203.615 279.471 203.203L279.573 203.1C279.779 202.997 279.882 202.997 280.088 202.997C280.294 202.894 280.5 202.894 280.705 202.894H280.808C281.014 202.791 281.323 202.791 281.529 202.688C281.734 202.688 281.94 202.585 282.146 202.585C282.352 202.585 282.66 202.585 282.866 202.482C283.072 202.482 283.278 202.482 283.381 202.482C283.586 202.482 283.792 202.482 284.101 202.585H284.204C284.307 202.585 284.41 202.585 284.513 202.688C284.821 202.791 285.027 202.894 285.336 202.997C285.439 202.997 285.542 203.1 285.542 203.1C286.262 203.512 286.879 204.027 287.394 204.748C287.394 204.748 287.497 204.851 287.497 204.954C287.702 205.263 287.908 205.676 288.114 205.985C288.114 206.088 288.217 206.088 288.217 206.191V206.294C288.32 206.706 288.526 207.118 288.628 207.53L288.731 207.839C288.834 208.354 288.937 208.869 289.04 209.384V209.59C289.246 210.93 289.349 212.372 289.349 214.02C289.349 219.583 288.32 223.704 287.497 227.31C286.776 230.194 286.159 232.667 286.056 236.067V236.17V236.273C286.056 236.788 285.953 237.097 286.056 237.406C286.056 239.672 286.776 241.424 287.908 242.351C288.32 242.454 288.423 242.557 288.526 242.66Z" fill="black"/>
<path d="M254.158 217.317L232.344 204.543V196.507V188.471V180.951C232.344 176.521 232.55 173.121 232.961 170.546C233.682 166.322 234.916 165.086 238.209 163.128C241.09 161.48 242.84 161.274 244.897 161.171C245.721 161.068 246.441 161.068 247.161 160.965C247.367 160.965 247.573 160.862 247.779 160.862C248.087 160.759 248.499 160.759 248.808 160.656C249.219 160.553 249.631 160.45 250.145 160.244C250.351 160.141 250.557 160.141 250.763 160.038C251.483 159.728 252.203 159.419 252.923 159.11C252.923 159.11 253.026 159.11 253.026 159.007C253.541 158.801 253.952 158.595 254.364 158.389C258.377 156.02 262.184 151.487 264.757 145.821C264.962 145.409 265.065 145.1 265.271 144.687C265.065 144.894 264.859 145.1 264.757 145.203C265.477 144.481 266.094 143.76 266.815 143.039C268.872 140.773 271.239 138.197 274.84 135.931C275.252 135.622 275.664 135.313 276.178 135.107C283.587 130.78 289.761 135.416 289.761 145.306C289.761 149.529 288.629 154.268 286.674 158.595C284.101 164.261 280.294 168.897 276.281 171.267C275.869 171.473 275.458 171.679 274.943 171.885H274.84C274.12 172.297 273.4 172.606 272.68 172.915L272.062 173.121C271.548 173.327 271.136 173.43 270.725 173.533C270.416 173.636 270.004 173.739 269.696 173.739C269.49 173.739 269.284 173.842 269.078 173.842C268.358 173.945 267.638 174.048 266.815 174.048C264.859 174.151 263.11 174.357 260.229 176.006C256.936 177.963 255.805 179.199 254.981 183.423C254.57 185.896 254.261 189.295 254.261 193.828V201.349V209.384L254.158 217.317Z" fill="#1E8FB1"/>
<path opacity="0.2" d="M256.113 149.838L234.196 137.167C232.961 136.343 232.344 133.149 232.344 124.907L232.241 101.419L254.158 114.09V137.682C254.158 145.924 254.775 149.117 256.113 149.838Z" fill="black"/>
<path d="M288.731 242.763L288.526 242.66C288.423 242.557 288.32 242.557 288.217 242.454C286.982 241.527 286.365 239.776 286.365 237.509C286.365 237.2 286.365 236.891 286.365 236.376V236.273V236.17C286.468 232.77 287.085 230.298 287.805 227.413C288.629 223.807 289.658 219.79 289.658 214.124C289.658 212.475 289.555 211.033 289.349 209.694V209.488C289.246 208.972 289.143 208.457 289.04 207.942L288.937 207.633C288.834 207.221 288.629 206.809 288.526 206.397V206.294C288.526 206.191 288.423 206.191 288.423 206.088C288.217 205.676 288.011 205.367 287.805 205.058C287.805 204.955 287.703 204.955 287.703 204.852C287.188 204.13 286.571 203.615 285.85 203.203C285.747 203.203 285.747 203.1 285.645 203.1C285.336 202.997 285.027 202.894 284.821 202.791C284.718 202.791 284.616 202.791 284.513 202.688H284.41C284.101 202.688 283.895 202.585 283.69 202.585C283.484 202.585 283.381 202.585 283.175 202.585C282.969 202.585 282.661 202.585 282.455 202.688C282.249 202.688 282.043 202.688 281.837 202.791C281.632 202.791 281.323 202.894 281.117 202.997H281.014C280.808 202.997 280.603 203.1 280.397 203.1C280.191 203.1 280.088 203.203 279.882 203.203L279.779 203.306C278.648 203.615 277.516 204.13 276.178 204.852L276.075 204.955L272.371 206.912L272.268 207.015L272.062 207.118L267.329 209.9L254.364 217.42V209.385V201.349V193.828C254.364 189.399 254.57 185.999 255.084 183.423C255.804 179.199 257.039 177.963 260.332 176.006C263.213 174.357 264.962 174.151 266.917 174.048C267.741 173.945 268.461 173.945 269.181 173.842C269.387 173.842 269.593 173.739 269.798 173.739C270.107 173.636 270.519 173.636 270.827 173.533C271.239 173.43 271.651 173.327 272.165 173.121L272.782 172.915C273.503 172.606 274.223 172.297 274.943 171.885H275.046C275.561 171.679 275.972 171.473 276.384 171.267C280.397 168.897 284.204 164.364 286.776 158.595C288.731 154.268 289.863 149.53 289.863 145.306C289.863 135.313 283.792 130.78 276.281 135.107C275.766 135.313 275.355 135.622 274.943 135.931C271.342 138.3 268.975 140.773 266.917 143.039C266.197 143.76 265.58 144.585 264.859 145.203C263.83 146.233 262.699 147.263 261.258 148.087C261.052 148.19 260.949 148.293 260.744 148.396C260.538 148.499 260.435 148.602 260.229 148.705C259.612 149.014 259.097 149.426 258.48 149.633C258.274 149.736 258.171 149.736 257.965 149.839C257.76 149.942 257.657 149.942 257.451 149.942C257.348 149.942 257.142 150.045 257.039 150.045C256.731 150.045 256.525 149.942 256.216 149.839C254.878 149.117 254.261 146.027 254.261 137.682V114.09L232.241 101.419L299.536 62.477C299.741 62.374 300.05 62.1679 300.256 62.0649C300.462 61.9619 300.668 61.8589 300.976 61.7558C301.182 61.6528 301.388 61.6528 301.696 61.5498C301.902 61.4468 302.108 61.4468 302.314 61.4468C302.623 61.3438 302.931 61.3438 303.137 61.3438C304.269 61.3438 305.401 61.6528 306.327 62.1679L327.832 74.6334C328.45 74.9425 329.067 75.4576 329.582 76.0757C329.787 76.2818 329.89 76.4878 329.993 76.6938C330.096 76.7969 330.199 77.0029 330.302 77.2089C330.508 77.518 330.611 77.8271 330.713 78.2392C330.816 78.4452 330.816 78.6512 330.919 78.8573C331.228 79.9905 331.434 81.4328 331.434 82.8751V172.606L313.735 182.805C313.633 182.908 313.53 182.908 313.427 183.011L313.221 183.114L309.722 185.278C308.179 186.308 306.944 187.235 305.709 188.265L305.607 188.368C305.504 188.471 305.504 188.471 305.401 188.574C305.092 188.883 304.783 189.089 304.475 189.399L304.372 189.502C304.269 189.605 304.063 189.708 303.96 189.914C303.652 190.223 303.446 190.429 303.137 190.738C302.931 190.944 302.828 191.15 302.623 191.253C302.417 191.562 302.108 191.768 301.902 192.077C301.696 192.283 301.594 192.489 301.388 192.695C301.182 193.004 300.976 193.313 300.668 193.622C300.565 193.828 300.462 194.034 300.256 194.137L300.153 194.241L300.05 194.344C299.844 194.55 299.741 194.859 299.536 195.168C299.433 195.374 299.33 195.58 299.227 195.786L299.124 195.992C298.815 196.61 298.507 197.228 298.198 197.846L298.095 198.052C297.992 198.361 297.889 198.567 297.786 198.876C297.684 199.186 297.581 199.392 297.478 199.701L297.375 199.907C297.272 200.216 297.169 200.525 297.066 200.834C296.963 201.143 296.86 201.555 296.757 201.864C296.655 202.173 296.552 202.585 296.449 202.894C296.346 203.203 296.346 203.615 296.243 203.924C296.14 204.337 296.14 204.646 296.037 205.058V205.161C295.934 205.47 295.934 205.779 295.934 206.088C295.934 206.5 295.831 206.912 295.831 207.324V207.53C295.831 207.736 295.831 208.045 295.728 208.251C295.728 208.766 295.728 209.282 295.626 210.003V210.106C295.626 210.209 295.626 210.312 295.626 210.518C295.626 216.081 296.655 219.069 297.478 221.644C298.198 223.704 298.815 225.559 298.918 228.959V229.062V229.165C298.918 229.474 299.021 229.783 299.021 230.092C299.021 234.831 296.14 240.394 292.539 242.454C291.818 242.866 291.098 243.175 290.378 243.175C290.172 243.175 290.069 243.175 289.966 243.175H289.863C289.76 243.175 289.658 243.175 289.555 243.175C289.452 243.175 289.349 243.175 289.349 243.175C289.246 243.175 289.246 243.175 289.143 243.175C289.04 243.175 288.937 243.175 288.937 243.072C288.834 243.072 288.834 243.072 288.731 242.969C288.834 242.763 288.834 242.763 288.731 242.763Z" fill="url(#paint7_linear)"/>
<path opacity="0.3" d="M254.158 114.09L232.241 101.419L299.536 62.477C299.741 62.374 300.05 62.1679 300.256 62.0649C300.462 61.9619 300.667 61.8589 300.976 61.7558C301.182 61.6528 301.388 61.6528 301.696 61.5498C301.902 61.4468 302.108 61.4468 302.314 61.4468C302.623 61.3438 302.931 61.3438 303.137 61.3438C304.269 61.3438 305.401 61.6528 306.327 62.1679L327.729 74.5304C327.524 74.4274 327.318 74.3244 327.112 74.3244H327.009C326.803 74.2213 326.598 74.2213 326.392 74.2213C326.289 74.2213 326.289 74.2213 326.186 74.2213C326.083 74.2213 325.98 74.2213 325.774 74.2213C325.671 74.2213 325.569 74.2213 325.363 74.2213H325.26C325.054 74.2213 324.848 74.2213 324.745 74.2213C324.642 74.2213 324.437 74.2213 324.334 74.3244C324.025 74.3244 323.819 74.4274 323.511 74.5304C323.408 74.5304 323.202 74.6334 323.099 74.6334C322.893 74.7364 322.585 74.8395 322.276 74.9425C321.967 75.0455 321.658 75.2515 321.35 75.4576L254.158 114.09Z" fill="white"/>
<path d="M172.972 373.393L152.599 361.649C150.438 360.413 149.306 357.219 149.306 353.201L149.203 263.676L169.783 275.524L169.68 365.358C169.68 369.273 170.914 372.054 172.972 373.393Z" fill="url(#paint8_linear)"/>
<path opacity="0.2" d="M172.972 373.393L152.599 361.649C150.438 360.413 149.306 357.219 149.306 353.201L149.203 263.676L169.783 275.524L169.68 365.358C169.68 369.273 170.914 372.054 172.972 373.393Z" fill="black"/>
<path d="M173.178 373.497L173.075 373.394C171.017 372.054 169.782 369.273 169.782 365.358L169.885 275.524L149.306 263.677L167.107 253.271L167.313 253.168L169.782 251.726L172.663 249.769C172.663 249.769 172.766 249.769 172.766 249.666L172.869 249.563C173.075 249.46 173.178 249.357 173.281 249.254L173.487 249.151C173.692 249.048 173.795 248.945 174.001 248.739C174.207 248.635 174.31 248.532 174.516 248.326C174.618 248.223 174.824 248.12 174.927 248.017L175.133 247.914L175.236 247.811C175.545 247.605 175.75 247.399 175.956 247.193C176.059 247.09 176.265 246.987 176.368 246.781L176.471 246.678C176.985 246.266 177.397 245.751 177.911 245.236L178.117 245.03C178.323 244.824 178.426 244.618 178.631 244.412C178.734 244.309 178.837 244.206 178.837 244.103C178.94 244 179.043 243.897 179.043 243.794L179.146 243.691L179.249 243.587L179.352 243.484C179.558 243.278 179.763 243.072 179.866 242.763C179.969 242.557 180.175 242.351 180.278 242.145L180.381 242.042V241.939C180.587 241.63 180.792 241.424 180.895 241.115C181.101 240.909 181.204 240.6 181.307 240.394L181.41 240.291C181.513 240.085 181.615 239.879 181.718 239.673C181.821 239.57 181.821 239.467 181.924 239.364C182.027 239.055 182.233 238.849 182.336 238.539C182.439 238.333 182.542 238.23 182.542 238.024C182.644 237.818 182.747 237.715 182.747 237.509C182.85 237.406 182.85 237.2 182.953 237.097C183.056 236.994 183.056 236.788 183.159 236.685C183.262 236.273 183.365 235.964 183.571 235.552C183.673 235.243 183.776 234.934 183.879 234.625V234.522C183.982 234.213 184.085 233.801 184.085 233.491V233.388C184.188 233.079 184.188 232.873 184.291 232.564C184.394 232.152 184.497 231.74 184.497 231.328V231.122C184.497 231.019 184.497 230.916 184.497 230.813V230.71C184.497 230.607 184.497 230.504 184.497 230.401C184.599 229.886 184.599 229.371 184.599 228.959V228.752C184.599 228.546 184.599 228.34 184.599 228.134C184.599 227.413 184.702 226.589 184.702 225.868V225.765C184.702 225.559 184.702 225.353 184.702 225.147V224.941V224.632C184.702 224.426 184.702 224.117 184.702 223.911C184.702 223.807 184.702 223.807 184.702 223.704C184.702 223.601 184.702 223.601 184.702 223.498V223.292V223.189C184.702 222.777 184.702 222.468 184.599 222.056V221.953C184.599 221.644 184.497 221.335 184.497 221.026C184.291 219.378 183.982 218.038 183.673 216.905C183.468 216.081 183.159 215.36 182.953 214.639C182.439 213.093 181.924 211.651 181.718 209.694C181.718 209.385 181.615 208.973 181.615 208.663C181.615 208.251 181.513 207.839 181.513 207.427V207.324V207.221C181.513 207.118 181.513 207.015 181.513 206.912C181.513 206.706 181.513 206.5 181.513 206.294C181.513 201.555 184.394 195.992 187.995 193.931C188.407 193.725 188.715 193.519 189.127 193.416C189.436 193.313 189.641 193.313 189.95 193.313C190.259 193.313 190.465 193.313 190.67 193.313C190.773 193.313 190.876 193.313 191.082 193.416C191.391 193.519 191.802 193.622 192.111 193.828L212.587 205.676C212.69 205.779 212.793 205.779 212.896 205.882C214.131 206.809 214.748 208.56 214.748 210.827C214.748 211.136 214.748 211.445 214.645 211.96V212.063V212.166C214.542 215.566 213.925 218.038 213.205 220.923C212.999 221.644 212.896 222.365 212.69 223.189C212.587 223.498 212.587 223.704 212.485 224.014C212.279 224.838 212.176 225.662 211.97 226.486C211.97 226.795 211.867 227.104 211.867 227.31L226.376 219.172L246.955 231.019V243.278V249.151V254.714C246.955 261.307 246.441 265.737 245.412 268.209C244.691 269.961 243.559 270.991 241.09 272.433C238.209 274.082 236.46 274.288 234.504 274.391C233.784 274.494 233.064 274.494 232.344 274.597C232.035 274.597 231.829 274.7 231.52 274.7C231.212 274.803 231.006 274.803 230.697 274.906C230.183 275.009 229.668 275.215 229.154 275.318L228.742 275.421C228.022 275.73 227.199 276.039 226.479 276.451C226.376 276.451 226.273 276.554 226.17 276.554H226.067L225.964 276.657C225.655 276.76 225.347 276.966 225.038 277.172C222.363 278.718 219.687 281.293 217.424 284.693C216.395 286.238 215.469 287.886 214.748 289.535C214.028 291.08 213.411 292.831 212.896 294.377C213.308 293.965 213.616 293.553 214.028 293.14C215.263 291.801 216.292 290.771 217.424 289.741C218.453 288.814 219.482 288.092 220.613 287.474C222.26 286.547 223.597 285.723 224.523 286.341L244.897 298.498C245 298.498 245.103 298.601 245.103 298.704C245.206 298.704 245.206 298.807 245.309 298.91C245.309 298.91 245.412 298.91 245.412 299.013C245.514 299.116 245.514 299.116 245.514 299.219C245.514 299.219 245.514 299.219 245.514 299.322C245.617 299.425 245.617 299.528 245.72 299.631C246.235 300.764 246.543 302.721 246.749 306.018C246.749 306.43 246.749 306.739 246.749 307.151C246.749 308.181 246.749 309.315 246.749 310.654V334.246L179.558 373.085C178.323 373.806 177.088 374.218 175.956 374.321C175.545 374.321 175.133 374.321 174.721 374.321C174.618 374.321 174.413 374.321 174.31 374.218C174.104 373.909 173.59 373.703 173.178 373.497Z" fill="url(#paint9_linear)"/>
<path opacity="0.1" d="M224.73 286.238L245.103 298.394C244.177 297.776 242.84 298.6 241.193 299.528C240.061 300.146 239.032 300.97 238.003 301.794C236.769 302.824 235.843 303.854 234.608 305.194C232.55 307.46 230.183 310.036 226.582 312.302C226.17 312.611 225.656 312.92 225.244 313.126C217.733 317.453 211.662 312.817 211.662 302.927C211.662 300.146 212.176 297.158 213.102 294.171C213.514 293.758 213.823 293.346 214.234 293.037C215.469 291.698 216.498 290.668 217.63 289.638C218.659 288.71 219.688 287.989 220.82 287.371C222.363 286.444 223.701 285.62 224.73 286.238Z" fill="black"/>
<path d="M211.97 227.207L226.479 219.069L247.058 230.916L229.36 241.115L224.009 243.897H223.906H223.803C223.701 244 223.598 244 223.392 244.103L223.186 244.206C222.877 244.309 222.569 244.412 222.26 244.515C222.054 244.618 221.951 244.618 221.746 244.721L221.643 244.824C221.334 244.927 221.128 245.03 220.819 245.133C220.614 245.236 220.408 245.236 220.202 245.236C219.893 245.339 219.585 245.339 219.379 245.442H219.276C219.173 245.442 218.967 245.442 218.864 245.545C218.556 245.545 218.144 245.648 217.835 245.648C217.733 245.648 217.63 245.648 217.63 245.648C217.218 245.648 216.806 245.648 216.395 245.545C216.292 245.545 216.292 245.545 216.189 245.545C215.88 245.442 215.572 245.339 215.263 245.236C215.16 245.236 215.057 245.133 215.057 245.133C214.851 245.03 214.543 244.824 214.337 244.618C214.234 244.618 214.234 244.515 214.131 244.515C213.822 244.309 213.617 244 213.411 243.691L213.308 243.588C212.793 242.866 212.382 241.939 212.073 240.806C212.073 240.703 212.073 240.703 212.073 240.6C211.97 240.085 211.867 239.57 211.765 238.952V238.643C211.662 238.024 211.559 237.406 211.559 236.685C211.456 235.758 211.456 235.037 211.456 234.213C211.456 231.534 211.662 229.268 211.97 227.207Z" fill="#1E8FB1"/>
<path opacity="0.1" d="M169.783 275.421L149.203 263.573L167.005 253.168L167.108 253.065H167.21L169.68 251.623L172.561 249.666L172.664 249.563L172.767 249.46C172.973 249.356 173.076 249.253 173.178 249.15L173.281 249.047C173.487 248.944 173.59 248.841 173.796 248.635C174.002 248.532 174.105 248.429 174.31 248.223C174.413 248.12 174.619 248.017 174.722 247.914L174.928 247.811L175.031 247.708C175.339 247.502 175.545 247.296 175.751 247.09C175.854 246.987 176.06 246.884 176.162 246.678L176.265 246.575C176.78 246.163 177.191 245.648 177.706 245.133L177.912 244.927C178.118 244.721 178.22 244.515 178.426 244.308C178.529 244.205 178.632 244.102 178.632 243.999C178.735 243.896 178.735 243.793 178.838 243.69L178.941 243.587L179.044 243.484L179.146 243.381C179.352 243.175 179.558 242.969 179.661 242.66C179.764 242.454 179.97 242.248 180.073 242.042L180.175 241.939V241.836C180.381 241.527 180.587 241.321 180.69 241.012C180.896 240.806 180.999 240.497 181.102 240.291V240.188C181.204 239.982 181.307 239.776 181.41 239.57C181.513 239.467 181.513 239.363 181.616 239.26C181.719 238.951 181.925 238.642 182.028 238.436C182.13 238.23 182.233 238.127 182.233 237.921C182.336 237.715 182.336 237.612 182.439 237.406C182.542 237.2 182.542 237.097 182.645 236.891C182.748 236.788 182.748 236.582 182.851 236.479C182.954 236.067 183.057 235.758 183.262 235.346C183.365 235.037 183.468 234.728 183.571 234.418V234.315C183.674 234.006 183.777 233.594 183.777 233.285V233.182C183.88 232.873 183.88 232.667 183.983 232.358C184.086 231.946 184.188 231.534 184.188 231.122V230.916C184.188 230.813 184.188 230.71 184.291 230.607V230.504C184.291 230.401 184.291 230.298 184.291 230.195C184.394 229.68 184.394 229.164 184.394 228.752V228.546C184.394 228.34 184.394 228.134 184.394 227.928C184.394 227.207 184.497 226.383 184.497 225.662V225.559C184.497 225.353 184.497 225.147 184.497 224.941V224.735V224.425C184.497 224.219 184.497 223.91 184.497 223.704C184.497 223.601 184.497 223.601 184.497 223.498C184.497 223.395 184.497 223.395 184.497 223.292V223.086V222.983C184.497 222.571 184.497 222.262 184.394 221.85V221.747C184.394 221.438 184.291 221.129 184.291 220.82C184.086 219.171 183.777 217.832 183.468 216.699C183.262 215.875 182.954 215.154 182.748 214.432C182.233 212.887 181.719 211.445 181.513 209.487C181.513 209.178 181.41 208.766 181.41 208.457C181.41 208.045 181.41 207.633 181.307 207.221V207.118V207.015C181.307 206.912 181.307 206.809 181.307 206.706C181.307 206.5 181.307 206.294 181.307 206.088C181.307 201.349 184.188 195.786 187.79 193.725C188.201 193.519 188.51 193.313 188.922 193.21C189.23 193.107 189.436 193.107 189.745 193.107C190.054 193.107 190.259 193.107 190.465 193.107C190.568 193.107 190.671 193.107 190.877 193.21C191.185 193.313 191.597 193.416 191.906 193.622L212.382 205.47C211.971 205.264 211.456 205.058 210.942 205.058C210.633 205.058 210.221 205.058 209.81 205.161C209.295 205.264 208.678 205.47 208.06 205.882C207.443 206.191 206.826 206.706 206.311 207.221C204.974 208.56 203.739 210.312 202.916 212.166C202.71 212.578 202.607 212.99 202.401 213.402C202.195 214.02 201.99 214.639 201.887 215.257C201.681 216.287 201.578 217.317 201.578 218.244C201.578 218.553 201.578 218.862 201.578 219.171V219.274V219.377C201.681 221.541 201.887 222.983 202.298 224.322C202.401 224.632 202.401 224.838 202.504 225.147C202.71 225.662 202.813 226.177 203.019 226.692C203.224 227.413 203.533 228.134 203.739 228.958C203.842 229.267 203.842 229.577 203.945 229.783C204.048 230.092 204.048 230.401 204.15 230.71C204.356 231.637 204.562 232.77 204.665 234.006V234.109C204.665 234.315 204.665 234.418 204.665 234.625C204.665 234.831 204.665 235.037 204.665 235.14V235.243V235.346C204.665 235.449 204.665 235.552 204.665 235.758C204.665 235.861 204.665 235.964 204.665 236.17C204.665 236.273 204.665 236.376 204.665 236.582V236.891V237.2C204.665 237.406 204.665 237.612 204.665 237.818V237.921C204.665 238.333 204.665 238.642 204.665 239.054C204.665 239.467 204.665 239.776 204.665 240.188C204.665 240.394 204.665 240.6 204.665 240.703V240.909C204.665 241.424 204.562 241.836 204.562 242.351C204.562 242.557 204.459 242.763 204.459 243.072V243.278C204.356 243.69 204.356 244.102 204.253 244.515C204.15 244.824 204.15 245.03 204.048 245.339V245.442C204.048 245.648 203.945 245.854 203.945 246.06C203.945 246.266 203.842 246.472 203.842 246.678C203.842 246.781 203.842 246.884 203.739 246.884C203.636 247.09 203.636 247.399 203.533 247.605C203.43 248.017 203.327 248.326 203.121 248.738C203.019 249.047 202.916 249.356 202.813 249.666C202.71 249.975 202.504 250.387 202.401 250.696C202.298 251.005 202.092 251.314 201.99 251.52C201.887 251.726 201.784 251.829 201.681 252.035C201.578 252.241 201.475 252.344 201.475 252.55L201.372 252.653C201.269 252.756 201.269 252.859 201.166 253.065L201.064 253.168C201.064 253.271 200.961 253.374 200.961 253.374C200.755 253.683 200.652 253.889 200.446 254.198V254.301L200.343 254.405C200.24 254.508 200.24 254.611 200.137 254.714C200.035 254.817 200.035 254.92 199.932 255.023C199.829 255.126 199.829 255.229 199.726 255.332C199.623 255.435 199.52 255.641 199.417 255.744L199.314 255.847L199.211 255.95C199.108 256.053 199.006 256.156 199.006 256.259C199.006 256.259 199.006 256.362 198.903 256.362C198.8 256.465 198.8 256.465 198.697 256.568C198.594 256.671 198.491 256.774 198.388 256.877C198.285 256.98 198.182 257.083 198.182 257.186L197.977 257.392C197.565 257.907 197.051 258.319 196.536 258.834L196.433 258.937C196.33 259.04 196.124 259.143 196.022 259.35C195.816 259.556 195.507 259.762 195.301 259.968L195.198 260.071L195.095 260.174L194.993 260.277C194.89 260.38 194.684 260.483 194.581 260.586C194.272 260.792 193.964 261.101 193.552 261.307L193.449 261.41C193.346 261.513 193.14 261.616 193.038 261.719C192.935 261.822 192.832 261.822 192.832 261.925L189.951 263.882L187.378 265.325L187.275 265.428L187.07 265.531L169.783 275.421Z" fill="black"/>
<path d="M169.68 266.148L147.763 253.477L147.866 163.643C147.866 160.243 148.792 156.637 150.335 153.34L172.252 166.012C170.606 169.309 169.68 173.017 169.68 176.417V266.148Z" fill="#B8DEE9"/>
<path fill-rule="evenodd" clip-rule="evenodd" d="M211.581 230.289L219.688 235.036C218.865 234.521 218.556 233.079 218.659 230.194C218.659 226.623 219.258 224.08 219.911 221.315C219.973 221.049 220.036 220.781 220.099 220.511C220.216 219.869 220.365 219.228 220.51 218.605C220.622 218.127 220.73 217.661 220.82 217.214C220.82 216.802 220.923 216.39 221.025 215.978C221.025 215.566 221.128 215.153 221.231 214.741L221.54 212.578V212.475C221.643 212.269 221.643 212.166 221.643 211.96C221.652 211.865 221.66 211.77 221.669 211.677C221.762 210.654 221.849 209.71 221.849 208.766V208.457V208.354V208.251C221.952 207.839 221.952 207.427 221.952 206.912C221.952 202.07 220.511 198.361 217.939 196.404C215.366 194.446 211.971 194.549 208.369 196.61C206.711 197.559 205.113 198.887 203.634 200.49L212.588 205.67C212.639 205.722 212.691 205.748 212.742 205.773C212.794 205.799 212.845 205.825 212.896 205.876C214.131 206.804 214.749 208.555 214.749 210.821C214.749 211.13 214.749 211.44 214.646 211.955V212.058V212.161C214.543 215.56 213.925 218.033 213.205 220.917C213.09 221.319 213.008 221.721 212.921 222.141C212.853 222.475 212.782 222.819 212.691 223.184C212.639 223.338 212.614 223.467 212.588 223.596C212.562 223.725 212.536 223.854 212.485 224.008C212.382 224.42 212.305 224.832 212.228 225.244C212.15 225.656 212.073 226.068 211.97 226.481C211.97 226.643 211.954 226.726 211.933 226.84C211.913 226.943 211.889 227.071 211.868 227.305C211.854 227.457 211.736 228.678 211.581 230.289Z" fill="#7AB2C4"/>
<path opacity="0.1" d="M169.695 275.314L149.306 263.679L157.307 258.999L169.68 266.145L169.592 251.516L172.473 249.559L172.576 249.456L172.679 249.353C172.885 249.25 172.988 249.147 173.091 249.044L173.194 248.941C173.399 248.838 173.502 248.735 173.708 248.529C173.914 248.426 174.017 248.323 174.222 248.117C174.325 248.014 174.531 247.911 174.634 247.808L174.84 247.705L174.943 247.602C175.251 247.396 175.457 247.19 175.663 246.983C175.766 246.88 175.972 246.777 176.075 246.571L176.178 246.468C176.692 246.056 177.104 245.541 177.618 245.026L177.824 244.82C178.03 244.614 178.133 244.408 178.338 244.202C178.441 244.099 178.544 243.996 178.544 243.893C178.647 243.79 178.647 243.687 178.75 243.584L178.853 243.481L178.956 243.378L179.059 243.275C179.264 243.069 179.47 242.863 179.573 242.554C179.676 242.348 179.882 242.142 179.985 241.935L180.088 241.832V241.729C180.293 241.42 180.499 241.214 180.602 240.905C180.808 240.699 180.911 240.39 181.014 240.184V240.081C181.117 239.875 181.219 239.669 181.322 239.463C181.425 239.36 181.425 239.257 181.528 239.154C181.631 238.845 181.837 238.536 181.94 238.33C182.043 238.124 182.146 238.021 182.146 237.815C182.248 237.609 182.248 237.506 182.351 237.3C182.454 237.093 182.454 236.99 182.557 236.784C182.66 236.681 182.66 236.475 182.763 236.372C182.866 235.96 182.969 235.651 183.174 235.239C183.277 234.93 183.38 234.621 183.483 234.312V234.209C183.586 233.9 183.689 233.488 183.689 233.179V233.076C183.792 232.767 183.792 232.561 183.895 232.252C183.998 231.839 184.101 231.427 184.101 231.015V230.809C184.101 230.706 184.101 230.603 184.203 230.5V230.397C184.203 230.294 184.203 230.191 184.203 230.088C184.306 229.573 184.306 229.058 184.306 228.646V228.44C184.306 228.234 184.306 228.028 184.306 227.822C184.306 227.1 184.409 226.276 184.409 225.555V225.452C184.409 225.246 184.409 225.04 184.409 224.834V224.628V224.319C184.409 224.113 184.409 223.804 184.409 223.598C184.409 223.495 184.409 223.495 184.409 223.392C184.409 223.289 184.409 223.289 184.409 223.186V222.98V222.877C184.409 222.465 184.409 222.155 184.306 221.743V221.64C184.306 221.331 184.203 221.022 184.203 220.713C183.998 219.065 183.689 217.726 183.38 216.592C183.174 215.768 182.866 215.047 182.66 214.326C182.146 212.781 181.631 211.338 181.425 209.381C181.425 209.072 181.322 208.66 181.322 208.351C181.322 207.939 181.322 207.527 181.219 207.114V207.011V206.908C181.219 206.805 181.219 206.702 181.219 206.599C181.219 206.393 181.219 206.187 181.219 205.981C181.219 201.242 184.101 195.679 187.702 193.619C188.114 193.413 188.422 193.207 188.834 193.104C189.143 193.001 189.348 193.001 189.657 193.001C189.966 193.001 190.171 193.001 190.377 193.001C190.48 193.001 190.583 193.001 190.789 193.104C191.098 193.207 191.509 193.31 191.818 193.516L212.294 205.363C211.883 205.157 211.368 204.951 210.854 204.951C210.545 204.951 210.133 204.951 209.722 205.054C209.207 205.157 208.59 205.363 207.973 205.775C207.355 206.084 206.738 206.599 206.223 207.114C204.886 208.454 203.651 210.205 202.828 212.059C202.622 212.472 202.519 212.884 202.313 213.296C202.108 213.914 201.902 214.532 201.799 215.15C201.593 216.18 201.49 217.21 201.49 218.138C201.49 218.447 201.49 218.756 201.49 219.065V219.168V219.271C201.593 221.434 201.799 222.877 202.21 224.216C202.313 224.525 202.313 224.731 202.416 225.04C202.622 225.555 202.725 226.07 202.931 226.585C203.136 227.307 203.445 228.028 203.651 228.852C203.754 229.161 203.754 229.47 203.857 229.676C203.96 229.985 203.96 230.294 204.063 230.603C204.268 231.53 204.474 232.664 204.577 233.9V234.003C204.577 234.209 204.577 234.312 204.577 234.518C204.577 234.724 204.577 234.93 204.577 235.033V235.136V235.239C204.577 235.342 204.577 235.445 204.577 235.651C204.577 235.754 204.577 235.857 204.577 236.063C204.577 236.166 204.577 236.269 204.577 236.475V236.784V237.093C204.577 237.3 204.577 237.506 204.577 237.712V237.815C204.577 238.227 204.577 238.536 204.577 238.948C204.577 239.36 204.577 239.669 204.577 240.081C204.577 240.287 204.577 240.493 204.577 240.596V240.802C204.577 241.317 204.474 241.729 204.474 242.245C204.474 242.451 204.371 242.657 204.371 242.966V243.172C204.268 243.584 204.268 243.996 204.165 244.408C204.063 244.717 204.063 244.923 203.96 245.232V245.335C203.96 245.541 203.857 245.747 203.857 245.953C203.857 246.159 203.754 246.365 203.754 246.571C203.754 246.674 203.754 246.777 203.651 246.777C203.548 246.983 203.548 247.293 203.445 247.499C203.342 247.911 203.239 248.22 203.034 248.632C202.931 248.941 202.828 249.25 202.725 249.559C202.622 249.868 202.416 250.28 202.313 250.589C202.21 250.898 202.005 251.207 201.902 251.413C201.799 251.619 201.696 251.722 201.593 251.928C201.49 252.135 201.387 252.238 201.387 252.444L201.284 252.547C201.181 252.65 201.181 252.753 201.079 252.959L200.976 253.062C200.976 253.165 200.873 253.268 200.873 253.268C200.667 253.577 200.564 253.783 200.358 254.092V254.195L200.255 254.298C200.152 254.401 200.152 254.504 200.05 254.607C199.947 254.71 199.947 254.813 199.844 254.916C199.741 255.019 199.741 255.122 199.638 255.225C199.535 255.328 199.432 255.534 199.329 255.637L199.226 255.74L199.124 255.843C199.021 255.946 198.918 256.049 198.918 256.152C198.918 256.152 198.918 256.255 198.815 256.255C198.712 256.358 198.712 256.358 198.609 256.461C198.506 256.564 198.403 256.667 198.3 256.77C198.197 256.873 198.095 256.976 198.095 257.08L197.889 257.286C197.477 257.801 196.963 258.213 196.448 258.728L196.345 258.831C196.242 258.934 196.037 259.037 195.934 259.243C195.728 259.449 195.419 259.655 195.213 259.861L195.111 259.964L195.008 260.067L194.905 260.17C194.802 260.273 194.596 260.376 194.493 260.479C194.184 260.685 193.876 260.994 193.464 261.2L193.361 261.303C193.258 261.406 193.053 261.509 192.95 261.612C192.847 261.715 192.744 261.715 192.744 261.818L189.863 263.776L187.29 265.218L187.187 265.321L186.982 265.424L169.695 275.314Z" fill="black"/>
<path opacity="0.1" d="M169.68 266.148L147.763 253.477L147.866 163.643C147.866 160.243 148.792 156.637 150.335 153.34L172.252 166.012C170.606 169.309 169.68 173.017 169.68 176.417V266.148Z" fill="#263238"/>
<path fill-rule="evenodd" clip-rule="evenodd" d="M247.111 137.938L247.058 137.991V118.211L225.141 105.54L158.052 144.378C157.744 144.481 157.538 144.584 157.332 144.79C157.126 144.893 157.023 144.996 156.92 145.1C156.818 145.1 156.715 145.203 156.612 145.306C156.509 145.306 156.406 145.409 156.303 145.512L156.303 145.512C156.252 145.563 156.2 145.589 156.149 145.615C156.097 145.64 156.046 145.666 155.994 145.718H155.892L155.789 145.821L155.48 146.13L155.377 146.233L154.965 146.645L154.76 146.851L154.657 146.954L154.451 147.16C154.451 147.263 154.348 147.366 154.245 147.469C154.142 147.572 154.039 147.701 153.936 147.83C153.834 147.958 153.731 148.087 153.628 148.19L153.525 148.293C153.473 148.345 153.422 148.422 153.371 148.499C153.319 148.576 153.268 148.654 153.216 148.705C153.113 148.808 153.01 148.911 152.908 149.117C152.856 149.169 152.83 149.22 152.805 149.272C152.779 149.323 152.753 149.375 152.702 149.426C152.496 149.632 152.29 149.941 152.084 150.251L151.981 150.354L151.879 150.56L151.261 151.487C151.21 151.641 151.133 151.77 151.055 151.899C150.978 152.028 150.901 152.156 150.85 152.311L150.541 152.929C150.502 153.008 150.477 153.071 150.457 153.126L150.457 153.126C150.423 153.214 150.399 153.277 150.335 153.341L172.252 166.013C170.606 169.309 169.68 173.018 169.68 176.418V266.149L187.481 256.259C198.285 249.975 198.285 247.193 198.285 242.145C198.285 241.424 198.285 240.6 198.182 239.879V239.673V239.57V239.466V239.26C197.988 237.225 197.521 235.827 197.038 234.382L196.947 234.109C196.124 231.74 195.301 229.061 195.095 224.425C194.992 223.91 194.992 223.292 194.992 222.674V221.644V220.717C195.095 219.687 195.198 218.759 195.404 217.729C195.455 217.523 195.507 217.291 195.558 217.06L195.558 217.059C195.61 216.828 195.661 216.596 195.713 216.39C195.713 216.39 195.816 216.287 195.816 216.184C195.867 215.926 195.918 215.694 195.97 215.463C196.021 215.231 196.073 214.999 196.124 214.742L196.433 213.505C196.844 212.269 197.256 211.136 197.771 210.003C200.24 204.233 204.15 199.288 208.472 196.713C212.073 194.652 215.469 194.549 218.041 196.507C220.614 198.464 222.054 202.173 222.054 207.015C222.054 207.287 222.026 207.53 221.998 207.76V207.76C221.974 207.965 221.951 208.16 221.951 208.354V208.457V208.56V208.869C221.951 210.002 221.848 211.033 221.746 212.063L221.746 212.063C221.643 212.269 221.643 212.372 221.643 212.578V212.681L221.334 214.845C221.283 215.051 221.257 215.257 221.231 215.463C221.205 215.669 221.18 215.875 221.128 216.081C221.128 216.493 221.025 216.905 220.922 217.317C220.889 217.486 220.855 217.657 220.821 217.831L220.82 217.833C220.646 218.72 220.46 219.667 220.202 220.614C219.379 223.704 218.762 226.383 218.762 230.298C218.762 233.285 219.07 234.728 219.893 235.243L219.894 235.243C220.202 235.346 220.511 235.449 220.819 235.449H221.231C222.877 235.243 225.656 234.109 229.566 231.843L235.225 228.546L241.09 225.147L247.264 221.541V197.949V197.846L247.47 190.635V190.532V190.429V189.914V189.707C247.47 189.501 247.495 189.27 247.521 189.038C247.547 188.806 247.573 188.574 247.573 188.368C247.573 188.265 247.598 188.162 247.624 188.059C247.65 187.956 247.676 187.853 247.676 187.75V187.544C247.727 187.338 247.753 187.132 247.778 186.926C247.804 186.72 247.83 186.514 247.881 186.308C247.881 186.153 247.907 186.025 247.933 185.896L247.933 185.896L247.933 185.896C247.959 185.767 247.984 185.638 247.984 185.484C247.984 184.969 248.087 184.557 248.19 184.144L248.19 184.144V184.041C248.19 183.938 248.216 183.861 248.241 183.784C248.267 183.707 248.293 183.629 248.293 183.526C248.344 183.217 248.422 182.934 248.499 182.651C248.576 182.367 248.653 182.084 248.705 181.775C248.807 181.775 248.807 181.672 248.807 181.569C248.91 181.26 249.013 180.925 249.116 180.59C249.219 180.255 249.322 179.921 249.425 179.611C249.425 179.56 249.451 179.508 249.476 179.457C249.502 179.405 249.528 179.354 249.528 179.302C249.733 178.684 249.939 178.169 250.145 177.654L250.145 177.654L250.145 177.654C250.145 177.603 250.171 177.551 250.197 177.5C250.222 177.448 250.248 177.396 250.248 177.345V177.242C250.313 177.111 250.378 176.971 250.447 176.823C250.594 176.504 250.757 176.152 250.968 175.8V175.697L251.174 175.388C251.367 175.001 251.601 174.654 251.824 174.322L251.825 174.322C251.958 174.124 252.088 173.932 252.203 173.739C253.026 172.503 253.849 171.473 254.878 170.443L254.981 170.34C255.393 169.825 255.907 169.412 256.422 169L256.422 169L256.525 168.897C257.657 167.97 258.788 167.249 260.023 166.528C264.205 164.179 266.769 163.956 269.119 163.752L269.181 163.746C271.033 163.643 272.68 163.437 275.149 162.201L275.972 161.789C277.619 160.759 279.265 159.007 280.5 156.638C281.734 154.371 282.352 151.796 282.352 149.529C282.352 149.117 282.352 148.602 282.249 148.19V148.19C282.249 147.881 282.249 147.572 282.146 147.366C281.94 146.13 281.426 145.306 280.705 144.687C280.654 144.687 280.628 144.662 280.603 144.636C280.577 144.61 280.551 144.584 280.5 144.584C280.448 144.533 280.397 144.507 280.345 144.481C280.294 144.456 280.242 144.43 280.191 144.378L270.901 139.026C269.359 140.392 268.088 141.749 266.917 143.039C266.625 143.331 266.351 143.64 266.079 143.945C265.68 144.393 265.288 144.834 264.859 145.202C263.83 146.233 262.698 147.263 261.258 148.087C261.155 148.139 261.078 148.19 261 148.242C260.923 148.293 260.846 148.345 260.743 148.396C260.64 148.448 260.563 148.499 260.486 148.551C260.409 148.602 260.332 148.654 260.229 148.705C259.993 148.823 259.773 148.956 259.557 149.086L259.556 149.086C259.204 149.298 258.862 149.505 258.479 149.632C258.377 149.684 258.299 149.71 258.222 149.735C258.145 149.761 258.068 149.787 257.965 149.838C257.759 149.941 257.656 149.941 257.45 149.941C257.399 149.941 257.322 149.967 257.245 149.993C257.167 150.019 257.09 150.044 257.039 150.044C256.795 150.044 256.615 149.98 256.397 149.902C256.374 149.894 256.351 149.885 256.327 149.877C256.291 149.864 256.254 149.851 256.216 149.838C256.195 149.827 256.175 149.816 256.155 149.804L247.111 144.654V137.938Z" fill="url(#paint10_linear)"/>
<path fill-rule="evenodd" clip-rule="evenodd" d="M256.113 149.838L256.042 149.797C256.065 149.811 256.089 149.825 256.113 149.838ZM247.116 144.636L247.161 146.438V146.541C247.264 146.953 247.264 147.262 247.264 147.674V147.674V147.881V148.087V148.808C247.264 149.014 247.29 149.194 247.315 149.374C247.341 149.555 247.367 149.735 247.367 149.941C247.367 150.095 247.393 150.224 247.418 150.353C247.444 150.482 247.47 150.611 247.47 150.765C247.47 150.92 247.495 151.1 247.521 151.28C247.547 151.46 247.573 151.641 247.573 151.795C247.573 151.95 247.598 152.079 247.624 152.207C247.65 152.336 247.676 152.465 247.676 152.619C247.727 152.774 247.753 152.929 247.778 153.083C247.804 153.238 247.83 153.392 247.881 153.547C247.933 153.65 247.959 153.778 247.984 153.907C248.01 154.036 248.036 154.165 248.087 154.268C248.139 154.422 248.164 154.551 248.19 154.68C248.216 154.809 248.241 154.937 248.293 155.092C248.344 155.195 248.37 155.272 248.396 155.35C248.422 155.427 248.447 155.504 248.499 155.607V155.71V155.813C248.499 156.019 248.602 156.225 248.704 156.431L248.705 156.431C248.705 156.637 248.807 156.843 248.91 156.946L249.013 157.049C249.219 157.461 249.425 157.77 249.631 158.08L249.631 158.08H249.734C249.939 158.286 250.042 158.389 250.145 158.595L250.454 158.904L250.557 159.007L250.66 159.11C250.711 159.161 250.788 159.213 250.865 159.264C250.943 159.316 251.02 159.367 251.071 159.419C251.174 159.419 251.38 159.522 251.483 159.625H251.586C251.736 159.625 251.832 159.68 251.953 159.75C251.997 159.776 252.045 159.803 252.1 159.831C252.306 159.934 252.512 160.037 252.718 160.037C252.82 160.037 252.923 160.063 253.026 160.088C253.129 160.114 253.232 160.14 253.335 160.14H253.952H254.673C254.878 160.14 255.187 160.14 255.393 160.037C255.496 159.985 255.624 159.96 255.753 159.934C255.882 159.908 256.01 159.882 256.113 159.831H256.216C256.319 159.779 256.422 159.754 256.525 159.728C256.628 159.702 256.73 159.676 256.833 159.625C256.936 159.573 257.065 159.522 257.194 159.47C257.322 159.419 257.451 159.367 257.554 159.316L257.657 159.213L257.862 159.11C258.068 159.11 258.274 159.007 258.48 158.904C258.634 158.801 258.788 158.723 258.943 158.646C259.097 158.569 259.251 158.492 259.406 158.389L259.509 158.286C259.612 158.183 259.714 158.183 259.714 158.183C259.766 158.131 259.843 158.105 259.92 158.08C259.997 158.054 260.075 158.028 260.126 157.977C264.007 155.797 266.494 153.182 268.71 150.852L268.711 150.851C268.904 150.649 269.094 150.448 269.284 150.25L269.342 150.188C271.171 148.256 272.809 146.524 275.355 144.893L275.458 144.79C275.561 144.738 275.663 144.661 275.766 144.584L275.766 144.584L275.766 144.584C275.869 144.507 275.972 144.429 276.075 144.378C277.721 143.451 279.162 143.451 280.294 144.069L271.158 138.805C269.5 140.248 268.153 141.683 266.917 143.043C266.626 143.335 266.351 143.644 266.08 143.949L266.08 143.949C265.68 144.398 265.288 144.839 264.859 145.207C263.83 146.237 262.698 147.267 261.258 148.091C261.155 148.143 261.078 148.194 261.001 148.246C260.923 148.297 260.846 148.349 260.743 148.4C260.64 148.452 260.563 148.503 260.486 148.555C260.409 148.607 260.332 148.658 260.229 148.71C259.994 148.827 259.773 148.96 259.557 149.091L259.557 149.091L259.557 149.091C259.204 149.303 258.862 149.509 258.48 149.637C258.377 149.688 258.3 149.714 258.222 149.74C258.145 149.766 258.068 149.791 257.965 149.843C257.759 149.946 257.656 149.946 257.451 149.946H257.451C257.399 149.946 257.322 149.972 257.245 149.997L257.245 149.997C257.168 150.023 257.091 150.049 257.039 150.049C256.795 150.049 256.615 149.984 256.398 149.906C256.34 149.886 256.28 149.864 256.216 149.843C254.878 149.122 254.261 146.031 254.261 137.686V131.809C254.227 131.826 254.192 131.844 254.158 131.861V137.682C254.158 145.775 254.753 149.001 256.042 149.797L247.116 144.636Z" fill="#7AB2C3"/>
<path opacity="0.3" d="M172.196 165.983L150.271 153.322C150.374 153.219 150.374 153.116 150.477 152.91C150.579 152.704 150.682 152.498 150.785 152.292C150.888 151.983 151.094 151.778 151.197 151.469C151.403 151.16 151.609 150.851 151.815 150.542C151.918 150.439 151.918 150.336 152.021 150.234C152.226 149.925 152.432 149.616 152.638 149.41C152.741 149.307 152.741 149.204 152.844 149.101C152.947 148.895 153.05 148.792 153.153 148.689C153.256 148.484 153.462 148.278 153.565 148.072C153.77 147.866 153.976 147.557 154.182 147.351C154.285 147.248 154.388 147.145 154.388 147.042C154.491 146.94 154.491 146.94 154.594 146.837C154.697 146.734 154.8 146.631 154.903 146.528C155.006 146.425 155.109 146.322 155.315 146.116L155.417 146.013C155.52 145.91 155.726 145.704 155.829 145.601C155.829 145.601 155.829 145.601 155.932 145.601C156.035 145.498 156.138 145.498 156.241 145.395C156.447 145.19 156.653 145.087 156.859 144.881C156.962 144.778 157.064 144.675 157.27 144.572C157.476 144.366 157.682 144.263 157.991 144.16L225.106 105.559L247.032 118.22L217.489 135.205L179.711 157.027C179.402 157.233 179.093 157.336 178.887 157.542C178.681 157.748 178.373 157.954 178.167 158.16C178.064 158.263 177.858 158.366 177.755 158.469C177.549 158.674 177.24 158.88 177.034 159.086C176.726 159.395 176.417 159.601 176.211 159.91C175.593 160.527 175.079 161.248 174.461 162.071C174.255 162.38 174.049 162.689 173.843 162.998C173.226 163.924 172.711 164.954 172.196 165.983Z" fill="white"/>
<path d="M91.8247 217.184C91.8247 217.184 92.4414 205.723 99.7387 200.895C107.036 196.068 121.386 191.941 121.386 191.941C121.386 191.941 124.653 197.449 126.058 202.055C127.463 206.662 124.092 216.314 124.092 216.314L91.8247 217.184Z" fill="url(#paint11_linear)"/>
<path d="M134.303 415.029C134.303 415.029 146.651 409.466 152.824 409.26C158.998 408.951 159.513 416.162 152.824 421.828C146.136 427.392 140.991 428.113 135.435 430.379C130.496 432.44 128.747 432.543 124.734 429.967C119.486 426.567 123.705 417.502 123.705 417.502L134.303 415.029Z" fill="#305F6D"/>
<path d="M98.4947 393.807C98.4947 393.807 108.373 389.686 114.444 389.377C120.618 389.068 122.778 394.425 116.09 399.988C109.402 405.551 105.183 406.787 99.6266 409.054C94.6876 411.114 92.9383 411.217 88.9253 408.642C83.4718 405.242 87.6906 396.176 87.8964 396.176L98.4947 393.807Z" fill="#305F6D"/>
<path d="M135.126 271.727C135.126 271.727 145.93 330.14 145.93 348.58C145.93 380.929 145.622 415.029 145.622 415.029C145.622 415.029 140.271 420.695 135.023 420.695C123.293 420.695 122.058 414.823 122.058 414.823C122.058 414.823 121.853 376.293 120.824 358.676C120.103 346.52 119.383 329.316 114.547 315.099C114.444 329.625 114.444 334.364 113.209 350.126C112.283 361.767 107.447 393.188 107.241 395.249C103.537 399.782 92.0125 402.872 86.1474 396.279C86.559 391.128 89.8517 354.865 89.4401 336.115C89.0285 318.807 84.6039 278.011 94.482 269.976C103.125 263.073 135.126 271.727 135.126 271.727Z" fill="url(#paint12_linear)"/>
<path d="M121.338 166.646C117.016 163.658 108.784 164.585 105.183 172.209C103.228 176.433 106.006 187.765 106.418 195.698C106.726 202.085 104.669 205.794 104.669 205.794C104.669 205.794 104.669 205.794 110.122 208.06C115.576 210.327 121.338 208.06 121.338 208.06L121.132 198.273C121.132 198.273 126.997 197.346 128.026 196.419C130.496 194.152 131.833 187.353 130.701 178.596C129.055 165.513 122.881 167.779 121.338 166.646Z" fill="#FFD0CA"/>
<path d="M137.596 232.682C136.978 221.453 135.023 219.29 132.863 214.757C130.805 210.224 121.235 205.382 121.235 205.382C121.235 205.382 115.061 205.279 110.122 203.527C105.595 201.982 104.154 196.831 100.347 200.128C90.2632 208.988 89.3371 216.302 90.3661 228.768C90.8806 235.155 91.1893 244.942 91.498 261.116C91.7038 272.036 89.8516 279.351 88.3082 283.884C95.3052 291.095 113.106 295.834 122.058 293.465C127.409 292.022 135.435 288.829 139.036 284.399C137.493 276.466 138.419 248.341 137.596 232.682Z" fill="url(#paint13_linear)"/>
<path d="M121.235 202.703C121.235 202.703 113.827 202.394 108.476 199.613C101.685 196.213 100.45 200.231 100.45 200.231C100.45 200.231 103.949 207.442 109.505 209.193C115.061 210.945 120.103 210.636 125.66 207.957C125.66 204.351 121.235 202.703 121.235 202.703Z" fill="url(#paint14_linear)"/>
<path d="M126.689 181.996C127.306 179.833 128.849 174.682 129.261 172.724C129.673 170.355 129.776 166.852 126.586 163.452C123.293 160.053 112.077 159.023 107.961 161.392C103.846 163.761 95.2022 168.088 98.2891 182.099C100.759 193.431 103.125 194.771 106.521 197.449C109.505 199.819 114.753 200.334 114.753 200.334C114.753 200.334 117.737 198.17 118.251 193.947C118.457 192.607 118.251 188.486 118.251 188.486C118.251 188.486 115.267 182.511 117.531 180.451C120 178.184 122.573 181.79 123.087 183.232C125.145 188.177 127.1 190.547 126.689 181.996Z" fill="#305F6D"/>
<path d="M202.73 175.609C198.305 177.051 195.835 177.772 195.835 177.772C195.835 177.772 196.556 176.124 196.967 173.651C197.482 171.179 196.144 171.179 194.909 174.167C193.778 177.051 188.221 185.396 188.221 185.396C183.282 189.62 168.774 199.201 163.629 201.57C155.5 205.279 132.451 216.199 131.834 216.096C131.834 216.096 135.023 234.949 142.535 231.961C150.046 229.077 166.51 216.92 171.861 212.284C177.623 207.442 189.25 194.668 193.675 192.092C197.893 189.62 207.36 187.456 210.447 180.554C211.887 177.257 207.154 174.167 202.73 175.609Z" fill="#FFD0CA"/>
<path d="M148.606 205.279C134.303 210.945 132.039 209.4 126.997 214.036C121.955 218.775 122.161 232.682 126.997 236.597C133.48 241.851 149.532 230.107 154.985 227.325C160.542 211.769 148.606 205.279 148.606 205.279Z" fill="url(#paint15_linear)"/>
<path d="M369.597 95.7691C369.597 95.7691 357.25 94.842 354.986 97.8296C355.295 107.823 358.587 117.094 358.69 117.197C352.208 115.24 342.33 112.252 337.391 107.41C335.847 105.865 332.143 99.0658 331.114 99.2718C326.792 100.302 332.246 105.865 331.114 107.72C329.468 110.295 324.117 107.926 319.384 109.471C313.519 111.428 311.769 118.022 319.384 120.391C322.573 121.421 329.982 118.537 336.259 120.082C339.243 120.803 344.388 123.894 346.137 125.13C358.896 134.402 365.378 134.402 369.083 134.608C373.713 134.917 373.199 128.633 374.022 124.409C375.154 118.331 369.597 95.7691 369.597 95.7691Z" fill="#FFD0CA"/>
<path d="M357.97 73.0013C368.98 74.4436 369.289 86.9091 372.273 103.598C364.555 107.41 359.513 108.337 352.516 105.968C351.899 102.671 349.944 96.49 349.841 94.6356C349.429 87.2181 351.899 72.1771 357.97 73.0013Z" fill="#9FC8D5"/>
<defs>
<linearGradient id="paint0_linear" x1="304.193" y1="191.827" x2="334.464" y2="191.827" gradientUnits="userSpaceOnUse">
<stop stop-color="#066EA9"/>
<stop offset="1" stop-color="#1680BB"/>
</linearGradient>
<linearGradient id="paint1_linear" x1="328.391" y1="196.788" x2="370.622" y2="196.788" gradientUnits="userSpaceOnUse">
<stop stop-color="#066EA9"/>
<stop offset="1" stop-color="#1680BB"/>
</linearGradient>
<linearGradient id="paint2_linear" x1="317.516" y1="90.7305" x2="329.041" y2="90.7305" gradientUnits="userSpaceOnUse">
<stop stop-color="#3A2BAA"/>
<stop offset="1" stop-color="#2F1784"/>
</linearGradient>
<linearGradient id="paint3_linear" x1="358.999" y1="56.1595" x2="324.018" y2="145.643" gradientUnits="userSpaceOnUse">
<stop stop-color="#DEF1F7"/>
<stop offset="1" stop-color="#B7DDE9"/>
</linearGradient>
<linearGradient id="paint4_linear" x1="264.558" y1="222.591" x2="289.403" y2="222.591" gradientUnits="userSpaceOnUse">
<stop offset="0.00518135" stop-color="#4ED5FF"/>
<stop offset="1" stop-color="#22ACD7"/>
</linearGradient>
<linearGradient id="paint5_linear" x1="232.361" y1="175.441" x2="289.887" y2="175.441" gradientUnits="userSpaceOnUse">
<stop offset="0.00518135" stop-color="#4ED5FF"/>
<stop offset="1" stop-color="#22ACD7"/>
</linearGradient>
<linearGradient id="paint6_linear" x1="232.248" y1="125.652" x2="256.166" y2="125.652" gradientUnits="userSpaceOnUse">
<stop offset="0.00518135" stop-color="#4ED5FF"/>
<stop offset="1" stop-color="#22ACD7"/>
</linearGradient>
<linearGradient id="paint7_linear" x1="232.27" y1="152.349" x2="331.652" y2="152.349" gradientUnits="userSpaceOnUse">
<stop offset="0.00518135" stop-color="#4ED5FF"/>
<stop offset="1" stop-color="#22ACD7"/>
</linearGradient>
<linearGradient id="paint8_linear" x1="178.085" y1="230.637" x2="144.425" y2="363.551" gradientUnits="userSpaceOnUse">
<stop offset="0.00518135" stop-color="#4ED5FF"/>
<stop offset="1" stop-color="#22ACD7"/>
</linearGradient>
<linearGradient id="paint9_linear" x1="244.472" y1="268.102" x2="171.255" y2="308.332" gradientUnits="userSpaceOnUse">
<stop offset="0.00518135" stop-color="#4ED5FF"/>
<stop offset="1" stop-color="#22ACD7"/>
</linearGradient>
<linearGradient id="paint10_linear" x1="246.303" y1="123.109" x2="176.33" y2="244.307" gradientUnits="userSpaceOnUse">
<stop stop-color="#DEF1F7"/>
<stop offset="1" stop-color="#B7DDE9"/>
</linearGradient>
<linearGradient id="paint11_linear" x1="98.9415" y1="199.802" x2="124.642" y2="215.525" gradientUnits="userSpaceOnUse">
<stop stop-color="#066EA9"/>
<stop offset="1" stop-color="#1680BB"/>
</linearGradient>
<linearGradient id="paint12_linear" x1="116.039" y1="301.461" x2="116.039" y2="404.746" gradientUnits="userSpaceOnUse">
<stop stop-color="#B0D9E7"/>
<stop offset="1" stop-color="#8AC9DC"/>
</linearGradient>
<linearGradient id="paint13_linear" x1="117" y1="205.428" x2="93.9087" y2="286.856" gradientUnits="userSpaceOnUse">
<stop stop-color="#1691D6"/>
<stop offset="1" stop-color="#1680BB"/>
</linearGradient>
<linearGradient id="paint14_linear" x1="100.483" y1="204.25" x2="125.708" y2="204.25" gradientUnits="userSpaceOnUse">
<stop stop-color="#066EA9"/>
<stop offset="1" stop-color="#1680BB"/>
</linearGradient>
<linearGradient id="paint15_linear" x1="123.336" y1="221.56" x2="156.523" y2="221.56" gradientUnits="userSpaceOnUse">
<stop stop-color="#066EA9"/>
<stop offset="1" stop-color="#1680BB"/>
</linearGradient>
</defs>
</svg>
