<svg width="161" height="160" xmlns="http://www.w3.org/2000/svg">
    <path d="M121.387 129.657h-14.236c-6.482-2.886-14.7-4.502-23.611-4.386-8.334.115-15.973 1.731-22.223 4.386H46.271v4.501c.116 11.656 17.014 20.889 37.731 20.658 20.602-.231 37.269-9.81 37.269-21.351l.116-3.808z"/>
    <path d="M121.387 129.657h-14.236c-6.482-2.886-14.7-4.502-23.611-4.386-8.334.115-15.973 1.731-22.223 4.386H46.271v4.501c.116 11.656 17.014 20.889 37.731 20.658 20.602-.231 37.269-9.81 37.269-21.351l.116-3.808z" fill-opacity=".1"/>
    <path d="M83.54 108.536c-20.718.231-37.385 9.926-37.269 21.467.116 11.656 17.014 20.889 37.731 20.658 20.718-.23 37.385-9.925 37.269-21.466-.116-11.657-17.014-20.89-37.731-20.659z"/>
    <path d="M112.938 121.347h-10.996c-4.977-2.193-11.342-3.462-18.287-3.347-6.481.115-12.5 1.385-17.245 3.347H54.604v7.502c.116 9.002 13.31 16.273 29.398 16.042 15.973-.231 28.936-7.617 28.936-16.619v-6.925z"/>
    <path d="M112.938 121.347h-10.996c-4.977-2.193-11.342-3.462-18.287-3.347-6.481.115-12.5 1.385-17.245 3.347H54.604v7.502c.116 9.002 13.31 16.273 29.398 16.042 15.973-.231 28.936-7.617 28.936-16.619v-6.925z" fill-opacity=".2"/>
    <path d="M83.655 104.958c-16.088.231-29.05 7.618-28.935 16.735.116 9.002 13.31 16.273 29.398 16.042 16.088-.231 29.051-7.617 28.935-16.734-.231-9.002-13.31-16.158-29.398-16.043z"/>
    <path d="M83.887 110.037c-10.186.115-18.287 4.847-18.287 10.502.115 5.655 8.333 10.272 18.518 10.156 10.185-.115 18.287-4.847 18.287-10.502-.116-5.655-8.333-10.272-18.518-10.156z"/>
    <path opacity=".6" d="M18.262 34.788L65.6 120.654c.115 5.656 8.333 10.272 18.518 10.157 10.185-.116 18.287-4.848 18.287-10.503l40.857-85.982-125 .462z"/>
    <circle cx="82.489" cy="50.949" r="44.667"/>
    <path d="M91.053 28.379c-2.083 1.27-3.819 2.885-5.67 4.385-1.158.924-2.431 1.847-3.82 2.54-1.39.692-3.125.923-4.514 1.615-1.62.924-2.662 2.77-3.588 4.27-.926 1.5 0 2.424 0 3.809-.116.808-.579 1.962-.463 2.77.231 2.193.81 3.578 2.662 4.04 1.505.346 3.24.692 5.093.576 1.736-.115 3.472-.346 5.092.347 1.62.692 2.662 1.962 4.051 3 .463.347.926.693 1.389.924h-.116c-.81 0-1.62-.116-2.315-.347-.578-.346-1.157-.461-1.62-.923-.694-.577-1.852-.23-2.662-.23-1.62.23-2.778-.347-4.63.46-2.43 1.04-6.944 3.925-6.944 6.926 0 1.038.231 1.846.231 2.885 0 .346-.231 2.193-.115 2.654.231.924.694 1.5 1.504 2.078 1.736 1.154 3.473 1.038 4.746 3 .926 1.385 1.388 2.193 2.662 3.232 1.389.923 1.967 1.5 2.199 3.347.116.808.116 1.616.231 2.424.347 1.5.926 2.885 1.852 4.154.579.924 2.315 3.347 3.24 3.809 1.737.808 2.084-.115 3.936-1.5 1.042-.808 1.852-2.309 2.894-3.232 1.157-1.039 2.893-1.962 3.819-3.231.579-.693.694-2.193 1.273-2.886 2.778-3.462 3.588-6.578 4.167-10.618.231-1.5-.116-3.116-.116-4.616 0-2.193-1.273-3.232-3.125-3.924-1.736-.692-2.662.115-4.282.462-.463.115-1.505.23-1.968-.116-.926-.692-1.852-1.154-2.662-1.154-.694 0-1.389 0-1.736-.346-.347-.462 0-1.27.116-1.731.578.346 1.041 1.038 1.967.808.695-.116 1.39.461 2.315.115 3.01-1.039 5.324-1.27 9.838-.577 1.273.23 2.778-1.847 3.819-2.54.579-.345.926-.922 1.505-1.038.695-.23.695.693 1.389 1.5.463.578 1.852.231 2.199 1.04.579 1.384 2.431 2.192 3.82 2.077.925-.116.462-.693.347-1.154-.695-1.962-2.084-3.81-1.505-5.886.579-1.962 1.389-2.309 3.009-1.962 1.274.23.232 2.192.811 3.116.347.577 1.504 1.038 1.851.577 1.042-1.039 1.389-2.424 1.505-4.386.116-2.424 1.042-4.501 1.62-6.81-1.736-8.77-6.134-16.619-12.268-22.735-2.894.115-5.556 4.04-7.871 5.193-4.745 2.424-10.532.924-15.162 3.809z"/>
    <path d="M107.151 76.106c-.348.923-1.042 2.077-1.852 3.116-.81.923-2.662 1.5-3.009 2.654-.348 1.616-.232 3.347.925 2.885.811-.346 2.2-.346 3.01-1.154.926-.808.926-2.308 1.273-3 1.157-1.732 1.852-4.04.347-5.656-.231-.346-.463.693-.694 1.155z"/>
    <path d="M65.28 85.15c-.463-.692-1.62-.923-2.315-1.27-4.514-1.615-7.87-5.654-10.069-9.81-1.273-2.307-1.62-4.27-1.157-6.924.115-.923.347-1.5.347-2.424-.116-1.73-1.273-3-2.547-4.04-2.43-1.846-5.555-2.307-7.06-5.308-1.041-1.962-.926-4.732-2.546-6.117-.579-.462-1.389-1.154-1.968-1.385-.115 1.039-.115 2.078-.115 3.116 0 15.812 8.217 29.661 20.602 37.625 1.504-.116 3.125-.578 4.745-1.616.231-.462 2.43-1.27 2.083-1.847z"/>
    <path d="M41.873 46.79c.579.463 1.157-.345 1.273-1.038.347-1.846.579-3.462.463-5.54 0-1.27-.695-2.654-.347-3.924.463-1.846 2.199-3 4.63-3 2.893 0 5.786 1.154 8.796.808 1.504-.231 3.125-.693 4.05-1.962 1.505-2.193.348-5.31.81-7.733.348-1.962.927-4.27 2.547-5.424 1.273-.808 2.778-.693 4.745-.693 1.505.116 1.62 1.962 1.852 2.309.926 1.615 1.39 2.654 3.473 3 1.967.346 3.935-.23 5.67-.923 1.737-.577 3.473-1.27 5.21-1.847 1.388-.461 3.356-.808 4.513-1.73 1.505-1.27.579-3.002 1.62-4.733 1.042-1.615 1.852-2.654.926-4.732-.463-1.038-1.273-1.962-2.083-2.77-2.43-.346-4.861-.577-7.407-.577-21.991 0-40.163 15.696-44.098 36.47.695 1.5 1.852 2.886 3.357 4.04z"/>
    <path d="M46.502 54.293c-.231-.693-.231-1.27-.115-2.078.115-.346.115-.692.115-1.038 0-.116-.115-.231-.115-.347-.116-.346-.463-.808-.695-1.154-.463-.577-.926-1.5-1.273-.692-.347.461-.116.923 0 1.385.232.577.347 1.154.347 1.73 0 .347-.115.809.116 1.155.232.692.926 1.5 1.736 1.385.116.115 0-.23-.116-.346z"/>
    <path d="M47.428 55.793c-.115-.346-.231-.577-.463-.462-.463.231-.81.462-.694.924.116.692 1.042 1.154 1.62 1.615.463.347.348.693.463.693.579-.346.348-1.385-.115-1.847-.232-.461-.58-.577-.81-.923z"/>
    <path d="M58.077 35.365c-.81.577-1.737 0-2.663 0-.694 0-1.851.231-2.083 1.039-.231.808.579.923 1.158 1.27 1.273.923 2.199 2.538 3.472 3.462.578.461 1.389.577 1.967 0 .348-.462.232-.808.348-1.385.115-.808.347-1.27.578-1.962.348-.924.232-2.193-.578-2.886-.695-.346-1.62-.115-2.2.462z"/>
    <path opacity=".2" d="M104.026 62.371c-12.269 21.352-35.88 30.47-53.01 20.66-12.384-11.888-19.328-33.701-7.523-54.475C55.762 7.205 81.803 1.434 101.248 10.32c12.037 11.656 13.657 33.354 2.778 52.05z"/>
    <path opacity=".1" d="M106.507 30.87c-1.273.692-3.356.692-4.629 0-1.273-.693-1.273-1.963 0-2.655 1.273-.692 3.356-.692 4.629 0 1.273.808 1.273 1.962 0 2.654z"/>
    <path d="M104.887 5.364c-1.042-.347-2.315-.231-3.704.577-3.125 1.73-5.555 6.116-5.555 9.694 0 4.848 5.555 10.272 5.555 10.272l1.968 1.038 3.704-20.543-1.968-1.038z"/>
    <path d="M103.151 6.864c3.125-1.731 5.555-.346 5.555 3.231 0 4.848-5.555 16.735-5.555 16.735s-5.556-5.54-5.556-10.271c0-3.578 2.431-7.849 5.556-9.695z"/>
    <path d="M99.91 15.174c0 2.077 1.505 2.885 3.241 1.846 1.852-1.039 3.241-3.578 3.241-5.54 0-2.077-1.505-2.885-3.241-1.846-1.736.923-3.24 3.462-3.24 5.54z"/>
    <path d="M97.711 16.674c0-3.463 2.431-7.733 5.556-9.58 2.662-1.5 4.861-.692 5.439 1.963-.463-2.77-2.777-3.809-5.555-2.193-3.125 1.731-5.556 6.117-5.556 9.694 0 4.848 5.556 10.272 5.556 10.272-.695-.692-5.44-5.655-5.44-10.156z"/>
    <path opacity=".1" d="M58.42 32.096c-.81.462-2.084.462-2.894 0-.81-.461-.81-1.154 0-1.615.81-.462 2.084-.462 2.894 0 .694.461.694 1.154 0 1.615z"/>
    <path d="M57.957 7.975c-1.042-.346-2.315-.23-3.704.577-3.125 1.732-5.555 6.117-5.555 9.695 0 4.847 5.555 10.272 5.555 10.272l1.968 1.038 3.704-20.543-1.968-1.039z"/>
    <path d="M56.22 9.476c3.126-1.731 5.556-.347 5.556 3.231 0 4.848-5.555 16.735-5.555 16.735s-5.556-5.54-5.556-10.272c0-3.578 2.43-7.848 5.556-9.694z"/>
    <path d="M52.98 17.785c0 2.078 1.505 2.886 3.24 1.847 1.853-1.039 3.242-3.578 3.242-5.54 0-2.077-1.505-2.885-3.241-1.846-1.852 1.038-3.241 3.462-3.241 5.54z"/>
    <path d="M50.781 19.401c0-3.462 2.43-7.732 5.556-9.58 2.662-1.5 4.86-.692 5.44 1.963-.464-2.77-2.778-3.809-5.556-2.193-3.125 1.731-5.556 6.117-5.556 9.695 0 4.847 5.556 10.271 5.556 10.271-.695-.807-5.44-5.77-5.44-10.156z"/>
    <path opacity=".1" d="M91.526 74.588c-1.274.692-3.357.692-4.63 0-1.273-.693-1.273-1.962 0-2.655 1.273-.692 3.356-.692 4.63 0 1.157.692 1.157 1.962 0 2.654z"/>
    <path d="M89.558 48.85c-1.042-.346-2.315-.23-3.704.578-3.125 1.731-5.555 6.117-5.555 9.694 0 4.848 5.555 10.272 5.555 10.272l1.968 1.039 3.704-20.544-1.968-1.038z"/>
    <path d="M87.822 50.467c3.125-1.732 5.555-.347 5.555 3.231 0 4.847-5.555 16.735-5.555 16.735s-5.556-5.54-5.556-10.272c0-3.693 2.547-7.963 5.556-9.694z"/>
    <path d="M84.581 58.66c0 2.078 1.505 2.886 3.24 1.847 1.853-1.038 3.242-3.578 3.242-5.54 0-2.077-1.505-2.885-3.241-1.846-1.736 1.039-3.24 3.578-3.24 5.54z"/>
    <path d="M82.382 60.276c0-3.462 2.43-7.732 5.556-9.579 2.662-1.5 4.86-.692 5.44 1.962-.464-2.885-2.778-3.808-5.556-2.192-3.125 1.73-5.556 6.116-5.556 9.694 0 4.847 5.556 10.272 5.556 10.272-.695-.808-5.44-5.77-5.44-10.157z"/>
    <defs>
        <linearGradient id="paint0_linear" x1="121.447" y1="140.072" x2="46.273" y2="140.072" gradientUnits="userSpaceOnUse">
            <stop stop-color="#DEF1F7"/>
            <stop offset="1" stop-color="#B7DDE9"/>
        </linearGradient>
        <linearGradient id="paint1_linear" x1="121.332" y1="129.641" x2="46.273" y2="129.641" gradientUnits="userSpaceOnUse">
            <stop stop-color="#DEF1F7"/>
            <stop offset="1" stop-color="#B7DDE9"/>
        </linearGradient>
        <linearGradient id="paint2_linear" x1="54.621" y1="131.458" x2="113.066" y2="131.458" gradientUnits="userSpaceOnUse">
            <stop offset=".005" stop-color="#22CBFF"/>
            <stop offset=".698" stop-color="#39B0D5"/>
        </linearGradient>
        <linearGradient id="paint3_linear" x1="54.736" y1="121.365" x2="113.183" y2="121.365" gradientUnits="userSpaceOnUse">
            <stop offset=".005" stop-color="#22CBFF"/>
            <stop offset=".698" stop-color="#39B0D5"/>
        </linearGradient>
        <linearGradient id="paint4_linear" x1="83.996" y1="130.717" x2="83.996" y2="110.075" gradientUnits="userSpaceOnUse">
            <stop offset=".005" stop-color="#C2DEED"/>
            <stop offset="1" stop-color="#fff"/>
        </linearGradient>
        <linearGradient id="paint5_linear" x1="80.764" y1="130.717" x2="80.764" y2="34.333" gradientUnits="userSpaceOnUse">
            <stop offset=".005" stop-color="#B0D6E1"/>
            <stop offset="1" stop-color="#B0D6E1" stop-opacity="0"/>
        </linearGradient>
        <linearGradient id="paint6_linear" x1="37.848" y1="50.993" x2="127.354" y2="50.993" gradientUnits="userSpaceOnUse">
            <stop offset=".005" stop-color="#22CBFF"/>
            <stop offset=".698" stop-color="#39B0D5"/>
        </linearGradient>
        <linearGradient id="paint7_linear" x1="73.049" y1="54.801" x2="126.456" y2="54.801" gradientUnits="userSpaceOnUse">
            <stop stop-color="#1691D6"/>
            <stop offset="1" stop-color="#1680BB"/>
        </linearGradient>
        <linearGradient id="paint8_linear" x1="102.11" y1="79.853" x2="108.704" y2="79.853" gradientUnits="userSpaceOnUse">
            <stop stop-color="#1691D6"/>
            <stop offset="1" stop-color="#1680BB"/>
        </linearGradient>
        <linearGradient id="paint9_linear" x1="37.794" y1="68.404" x2="65.278" y2="68.404" gradientUnits="userSpaceOnUse">
            <stop stop-color="#1691D6"/>
            <stop offset="1" stop-color="#1680BB"/>
        </linearGradient>
        <linearGradient id="paint10_linear" x1="38.461" y1="26.578" x2="92.486" y2="26.578" gradientUnits="userSpaceOnUse">
            <stop stop-color="#1691D6"/>
            <stop offset="1" stop-color="#1680BB"/>
        </linearGradient>
        <linearGradient id="paint11_linear" x1="44.233" y1="51.66" x2="46.665" y2="51.66" gradientUnits="userSpaceOnUse">
            <stop stop-color="#1691D6"/>
            <stop offset="1" stop-color="#1680BB"/>
        </linearGradient>
        <linearGradient id="paint12_linear" x1="46.246" y1="56.93" x2="48.697" y2="56.93" gradientUnits="userSpaceOnUse">
            <stop stop-color="#1691D6"/>
            <stop offset="1" stop-color="#1680BB"/>
        </linearGradient>
        <linearGradient id="paint13_linear" x1="53.283" y1="38.129" x2="61.035" y2="38.129" gradientUnits="userSpaceOnUse">
            <stop stop-color="#1691D6"/>
            <stop offset="1" stop-color="#1680BB"/>
        </linearGradient>
    </defs>
</svg>
