<svg width="161" height="160" xmlns="http://www.w3.org/2000/svg">
    <g clip-path="url(#clip0)">
        <path opacity=".4" d="M160.281 106.036L108.794 77.98 68.033 101.46l-4.75-19.06-62.521 35.07 1.839 1.068h46.124l43.825 25.158c.614.305 4.138.305 4.75 0l63.134-36.289c.46-.305.46-1.068-.153-1.372z"/>
        <path d="M99.753 21.258c-.307 0-.613 0-.767.153L36.772 57.243l.46.152 62.214-35.832c.307-.152.613-.152.766-.152l-.46-.153z"/>
        <path d="M49.95 115.032L36.314 59.835l-.46-.153L49.49 114.88c.153.61.46 1.067.92 1.067l.46.153c-.46 0-.767-.458-.92-1.067z"/>
        <path d="M37.232 57.243l-.46-.153c-.766.458-1.226 1.525-.92 2.592l.46.153c-.306-.915.154-2.135.92-2.592z"/>
        <path d="M114.923 77.827l-13.791-55.35c-.307-.914-1.073-1.372-1.84-.914l-62.06 35.68c-.766.457-1.226 1.524-.92 2.592l13.639 55.196c.306.915 1.072 1.373 1.838.915l62.214-35.68c.613-.457 1.073-1.524.92-2.439z"/>
        <path d="M112.165 73.558L99.753 23.24 37.692 58.92l12.412 50.317 62.061-35.68z"/>
        <path d="M51.176 115.336v1.678c0 .304.154.609.613.762l43.673 25.159c.766.457 1.992.457 2.758 0l61.754-35.68c.307-.152.613-.457.613-.762v-1.678l-109.41 10.521z"/>
        <path d="M159.821 103.901l-43.672-25.16c-.766-.457-1.992-.457-2.759 0l-61.754 35.833c-.766.457-.766 1.22 0 1.525l43.672 25.158c.767.458 1.993.458 2.759 0l61.754-35.679c.766-.61.766-1.22 0-1.677z"/>
        <path d="M109.406 86.366v-.153c0-.152 0-.305.153-.305l2.911-1.677a1.315 1.315 0 011.073 0l2.452 1.372c.153.153.153.153.153.305v.305c0 .153 0 .305-.153.305l-2.912 1.677a1.313 1.313 0 01-1.072 0l-2.452-1.372c-.153-.152-.153-.305-.153-.457zm4.75-2.287l2.452 1.372c.306.152.766.152 1.072 0l2.912-1.677c.153-.153.153-.153.153-.305v-.153-.152c0-.153 0-.305-.153-.305l-2.452-1.372a1.315 1.315 0 00-1.073 0l-2.911 1.677c-.153.152-.153.152-.153.305v.305c0 .152 0 .152.153.305zm-9.194 5.336l2.451 1.373c.307.152.767.152 1.073 0l2.912-1.678c.153-.152.153-.152.153-.305v-.152-.153c0-.152 0-.305-.153-.305l-2.605-1.372a1.315 1.315 0 00-1.073 0l-2.758 1.677c-.154.153-.154.153-.154.305v.305c-.153.153 0 .305.154.305zm-35.245 29.886l2.452 1.372a1.31 1.31 0 001.073 0l2.911-1.677c.153-.153.153-.153.153-.305v-.153-.152c0-.153 0-.305-.153-.305l-2.452-1.372a1.31 1.31 0 00-1.072 0l-2.912 1.677c-.153.152-.153.152-.153.305v.305c0 .152 0 .305.153.305zm10.267-15.553l2.452 1.372a1.31 1.31 0 001.073 0l2.911-1.677c.153-.152.153-.152.153-.305v-.152-.153c0-.152 0-.305-.153-.305l-2.452-1.372a1.319 1.319 0 00-1.072 0l-2.912 1.677c-.153.153-.153.153-.153.305v.305c-.153 0 0 .153.153.305zm9.348-5.337l2.451 1.373c.307.152.766.152 1.073 0l2.912-1.678c.153-.152.153-.152.153-.304v-.153-.152c0-.153 0-.305-.154-.305l-2.451-1.373a1.315 1.315 0 00-1.073 0l-2.911 1.678c-.154.152-.154.152-.154.305v.305c-.153 0 0 .152.154.304zm9.347-5.336l2.452 1.372c.306.153.766.153 1.072 0l4.444-2.592c.154-.153.154-.153.154-.305v-.153-.152c0-.153 0-.305-.154-.305l-2.451-1.372a1.315 1.315 0 00-1.073 0l-4.444 2.592c-.153.152-.153.152-.153.305v.305c-.153 0 0 .152.153.305zm-4.75 2.592l2.451 1.372c.307.153.767.153 1.073 0l2.912-1.677c.153-.153.153-.153.153-.305v-.153-.152c0-.152 0-.305-.153-.305l-2.452-1.372a1.315 1.315 0 00-1.073 0l-2.911 1.677c-.154.153-.154.153-.154.305v.305c0 .152 0 .152.154.305zm-9.348 5.337l2.452 1.372c.306.152.766.152 1.073 0l2.911-1.677c.153 0 .153-.153.153-.305v-.153-.152c0-.153 0-.305-.153-.305l-2.452-1.373a1.316 1.316 0 00-1.072 0l-2.912 1.678c-.153.152-.153.152-.153.305v.305c0 .152 0 .305.153.305zm19.921-6.404l2.452 1.372c.306.152.766.152 1.072 0l2.912-1.677c.153-.153.153-.153.153-.305v-.153-.152c0-.153 0-.305-.153-.305l-2.452-1.373a1.315 1.315 0 00-1.073 0l-2.911 1.678c-.153.152-.153.152-.153.305v.305c-.154 0 0 .152.153.305zm-37.39 21.346l2.452 1.373c.307.152.766.152 1.073 0l2.911-1.678c.153-.152.153-.152.153-.305v-.152-.153c0-.152 0-.304-.153-.304l-2.452-1.373a1.318 1.318 0 00-1.072 0l-2.912 1.677c-.153.153-.153.153-.153.305v.305c0 .153 0 .305.153.305zm32.64-18.754l2.451 1.372c.307.152.767.152 1.073 0l2.912-1.677c.153-.153.153-.153.153-.305v-.153-.152c0-.153 0-.305-.153-.305l-2.452-1.372a1.315 1.315 0 00-1.073 0l-2.911 1.677c-.154.152-.154.152-.154.305v.305c0 .152 0 .305.154.305zm-4.597 2.744l2.451 1.373c.307.152.767.152 1.073 0l2.911-1.678c.154-.152.154-.152.154-.305v-.152-.153c0-.152 0-.305-.154-.305l-2.451-1.372a1.315 1.315 0 00-1.073 0l-2.912 1.677c-.153.153-.153.153-.153.305v.305s0 .153.153.305zm-4.598 2.745l2.452 1.372a1.31 1.31 0 001.073 0l2.911-1.677c.154-.153.154-.153.154-.305v-.153-.152c0-.153 0-.305-.154-.305l-2.451-1.372a1.312 1.312 0 00-1.073 0l-2.912 1.677c-.153.152-.153.152-.153.305v.305c-.153 0-.153.152.153.305zm-18.694 10.673l2.451 1.373c.307.152.767.152 1.073 0l2.912-1.678c.153-.152.153-.152.153-.305v-.152-.153c0-.152 0-.305-.153-.305l-2.452-1.372a1.318 1.318 0 00-1.073 0l-2.911 1.677c-.154.153-.154.153-.154.305v.305c-.153 0 0 .153.154.305zm4.597-2.744l2.452 1.372c.306.152.766.152 1.072 0l2.912-1.677c.153-.153.153-.153.153-.305v-.153-.152c0-.153 0-.305-.153-.305-3.525-1.982-2.299-1.982-6.283.305-.153.152-.153.152-.153.305v.305c-.153.152-.153.305 0 .305zm4.75-2.592l2.452 1.372c.306.152.766.152 1.072 0l2.912-1.677c.153-.153.153-.153.153-.305v-.153-.152c0-.153 0-.305-.153-.305l-2.605-1.373a1.318 1.318 0 00-1.073 0l-2.911 1.678c-.153.152-.154.152-.154.305v.305l.307.305zm4.597-2.745c2.452 1.372 2.758 1.83 3.525 1.372l2.911-1.677c.153-.153.153-.153.153-.305v-.152-.153c0-.152 0-.305-.153-.305l-2.452-1.372a1.31 1.31 0 00-1.072 0l-2.912 1.677c-.153.153-.153.153-.153.305v.305c0 .152 0 .152.153.305zm-8.275 17.687v-.152c0-.153 0-.305-.153-.305l-2.452-1.372a1.31 1.31 0 00-1.072 0l-4.444 2.592c-.153.152-.153.152-.153.305v.305c0 .152 0 .305.153.305l2.452 1.372c.306.152.766.152 1.072 0l4.444-2.592c.153-.153.153-.305.153-.458zm-5.823-1.525s0-.152 0 0v-.152c0-.152 0-.305-.153-.305l-2.452-1.372a1.31 1.31 0 00-1.072 0l-2.912 1.525c-.153.152-.153.152-.153.304v.305c0 .153 0 .305.153.305l2.452 1.373c.306.152.766.152 1.073 0l2.911-1.678c0-.152.153-.152.153-.305zm3.525-15.095c3.524 1.982 2.298 2.135 6.282-.305.154-.152.154-.152.154-.305v-.152-.153c0-.152 0-.305-.154-.305l-2.451-1.372a1.318 1.318 0 00-1.073 0l-2.911 1.677c-.154.153-.154.153-.154.305v.305c.154.153.154.305.307.305zm49.035-10.216v-.152c0-.153 0-.305-.153-.305l-2.452-1.372a1.313 1.313 0 00-1.072 0l-2.912 1.677c-.153.152-.153.152-.153.305v.305c0 .152 0 .305.153.305l2.452 1.372c.307.152.766.152 1.073 0l2.911-1.677c0-.153.153-.305.153-.458zm-55.318 21.957v-.152c0-.153 0-.305-.153-.305l-2.452-1.373a1.319 1.319 0 00-1.073 0l-4.443 2.592c-.154.153-.154.153-.154.305v.305c0 .153 0 .305.154.305l2.451 1.373c.307.152.767.152 1.073 0l4.444-2.593c.153-.152.306-.305.153-.457zm1.686-8.996l2.451 1.372a1.31 1.31 0 001.073 0l2.912-1.677c.153-.153.153-.153.153-.305v-.153-.152c0-.152 0-.305-.153-.305l-2.452-1.372a1.31 1.31 0 00-1.073 0l-2.911 1.677c-.153.152-.153.152-.153.305v.305c0 .152 0 .152.153.305zm-4.75 2.744l2.451 1.373c.307.152.766.152 1.073 0l2.911-1.678c.153-.152.153-.152.153-.304v-.153-.152c0-.153 0-.305-.153-.305l-2.451-1.373a1.318 1.318 0 00-1.073 0l-2.912 1.678c-.153.152-.153.152-.153.305v.304s0 .153.153.305zm-2.759 4.727s0-.152 0 0v-.152c0-.153 0-.305-.153-.305l-2.452-1.525a1.319 1.319 0 00-1.073 0l-2.911 1.677c-.153.153-.153.153-.153.305v.305c0 .153 0 .305.153.305l2.452 1.372a1.31 1.31 0 001.072 0l2.912-1.677c.153-.152.153-.152.153-.305zm-1.839-2.134l2.452 1.372c.306.152.766.152 1.073 0l2.911-1.677c.153-.153.153-.153.153-.305v-.153-.152c0-.153 0-.305-.153-.305l-2.452-1.373a1.318 1.318 0 00-1.072 0l-2.912 1.678c-.153.152-.153.152-.153.305v.305c0 .152 0 .305.153.305zm76.465-21.347c0-.153 0-.305-.153-.305l-2.452-1.373a1.313 1.313 0 00-1.072 0l-2.759 1.525c-.153.153-.153.153-.153.305v.305c0 .153 0 .305.153.305l2.452 1.372c.307.153.766.153 1.073 0l2.911-1.677c.154-.152.154-.152.154-.305-.154 0-.154 0-.154-.152zm-18.388 5.184l-2.452-1.372a1.315 1.315 0 00-1.073 0l-2.911 1.677c-.153.152-.153.152-.153.305v.305c0 .152 0 .305.153.305l2.452 1.372a1.31 1.31 0 001.072 0l2.912-1.677c.153-.153.153-.153.153-.305v-.153-.152s0-.153-.153-.305zm9.347-5.337l-2.451-1.372a1.315 1.315 0 00-1.073 0l-2.912 1.677c-.153.153-.153.153-.153.305v.305c0 .153 0 .305.153.305l2.452 1.372c.307.153.766.153 1.073 0l2.911-1.677c.154-.152.154-.152.154-.305v-.152-.153s0-.152-.154-.305zm-18.695 10.674l-2.451-1.373a1.32 1.32 0 00-1.073 0l-2.911 1.678c-.154.152-.154.305-.154.305v.305c0 .152 0 .304.154.304l2.451 1.373a1.32 1.32 0 001.073 0l2.911-1.677c.154-.153.154-.153.154-.305v-.153-.152s0-.153-.154-.305zm16.857-12.656v.153c0 .152 0 .304.153.304l2.452 1.373c.306.152.766.152 1.072 0l2.912-1.677c.153-.153.153-.153.153-.305v-.153-.152c0-.153 0-.305-.153-.305l-2.452-1.373a1.315 1.315 0 00-1.073 0l-2.911 1.678c-.153.152-.307.305-.153.457zm-35.551 23.482l-2.452-1.373a1.318 1.318 0 00-1.073 0l-2.911 1.678c-.154.152-.154.152-.154.304v.305c0 .153 0 .305.154.305l2.451 1.373c.307.152.767.152 1.073 0l2.912-1.678c.153-.152.153-.152.153-.305v-.152-.152c0-.153 0-.305-.153-.305zm9.347-5.337l-2.452-1.372a1.31 1.31 0 00-1.072 0l-2.912 1.524c-.153.153-.153.153-.153.305v.305c0 .153 0 .305.153.305l2.452 1.372a1.31 1.31 0 001.073 0l2.911-1.677c.153-.152.153-.152.153-.305v-.152-.153s0-.152-.153-.152zm-4.75 2.592l-2.452-1.372a1.31 1.31 0 00-1.073 0l-2.758 1.677c-.153.152-.153.152-.153.305v.305c0 .152 0 .305.153.305l2.452 1.372a1.31 1.31 0 001.072 0l2.912-1.677c.153-.153.153-.153.153-.305v-.153-.152l-.306-.305zm-9.348 5.337l-2.451-1.373a1.318 1.318 0 00-1.073 0l-2.758 1.678c-.154.152-.154.152-.154.305v.305c0 .152 0 .304.154.304l2.451 1.373c.307.152.767.152 1.073 0l2.912-1.677c.153-.153.153-.153.153-.305v-.153-.152l-.307-.305zm-4.597 2.744l-2.452-1.372a1.31 1.31 0 00-1.072 0l-2.912 1.677c-.153.153-.153.153-.153.305v.305c0 .153 0 .305.153.305l2.452 1.372a1.31 1.31 0 001.073 0l2.911-1.677c.153-.152.153-.152.153-.305v-.152-.153c0-.152 0-.152-.153-.305zm23.292-13.418l-2.452-1.372a1.31 1.31 0 00-1.072 0l-2.758 1.677c-.154 0-.307.153-.154.305v.305c0 .153 0 .305.154.305l2.451 1.372c.307.153.766.153 1.073 0l2.911-1.677c.154-.152.154-.152.154-.305v-.152-.153c0-.152-.154-.152-.307-.305zm9.348-5.336l-2.452-1.373a1.315 1.315 0 00-1.073 0l-2.911 1.678c-.154.152-.154.152-.154.304v.305c0 .153 0 .305.154.305l2.451 1.373a1.32 1.32 0 001.073 0l2.912-1.678c.153-.152.153-.152.153-.305v-.152-.152c.153-.153 0-.305-.153-.305zm-25.438 19.364l-2.451-1.372a1.31 1.31 0 00-1.073 0l-2.912 1.677c-.153.153-.153.153-.153.305v.305c0 .152 0 .305.153.305l2.452 1.372a1.31 1.31 0 001.073 0l2.911-1.677c.154-.152.154-.152.154-.305v-.152-.153c.153-.152.153-.152-.154-.305zm4.75-2.744l-2.451-1.373a1.319 1.319 0 00-1.073 0l-2.911 1.678c-.153.152-.153.152-.153.304v.305c0 .153 0 .305.153.305l2.452 1.373c.306.152.766.152 1.072 0l2.912-1.678c.153-.152.153-.152.153-.305v-.152-.152s0-.153-.153-.305zm-9.347 5.489l-2.452-1.373a1.318 1.318 0 00-1.072 0l-2.912 1.678c-.153.152-.153.152-.153.305v.305c0 .152 0 .305.153.305l2.452 1.372c.306.152.766.152 1.073 0l2.911-1.677c.153-.153.153-.153.153-.305v-.153-.152c0-.153 0-.305-.153-.305zm-4.597 2.592l-2.452-1.372a1.31 1.31 0 00-1.072 0l-2.912 1.677c-.153.152-.153.152-.153.305v.305c0 .152 0 .305.153.305L76 128.297c.306.152.766.152 1.073 0l2.911-1.677c.153-.153.153-.153.153-.305v-.153-.152s0-.153-.153-.305zm34.938-29.886l-2.452-1.372a1.314 1.314 0 00-1.072 0l-4.444 2.592c-.153.153-.153.153-.153.305v.305c0 .153 0 .305.153.305l2.452 1.372c.306.153.766.153 1.072 0l4.444-2.592c.153-.152.153-.152.153-.305v-.152-.153c.154 0 0-.152-.153-.305zm8.428 4.88l-2.452-1.373a1.313 1.313 0 00-1.072 0l-4.444 2.592c-.153.153-.153.153-.153.305v.305c0 .153 0 .305.153.305l2.452 1.373c.306.152.766.152 1.072 0l4.444-2.593c.153-.152.153-.152.153-.304v-.153-.152c.154 0 0-.153-.153-.305zm9.654-5.337l-2.452-1.372a1.313 1.313 0 00-1.072 0l-2.912 1.677c-.153.152-.153.152-.153.305v.305c0 .152 0 .305.153.305l2.452 1.372c.306.153.766.153 1.072 0l2.912-1.677c.153-.153.153-.153.153-.305v-.153-.152s0-.153-.153-.305zm-4.75 2.745l-2.452-1.373a1.315 1.315 0 00-1.073 0l-2.911 1.677c-.154.153-.154.153-.154.305v.305c0 .153 0 .305.154.305l2.451 1.373a1.32 1.32 0 001.073 0l2.912-1.678c.153-.152.153-.152.153-.305v-.152-.153c.153-.152 0-.305-.153-.305zm-10.88 6.099l-2.452-1.373a1.32 1.32 0 00-1.073 0l-21.606 12.351c-.153.152-.153.152-.153.305v.305c0 .152 0 .305.153.305l2.452 1.372a1.31 1.31 0 001.073 0l21.606-12.351c.153-.152.153-.152.153-.305v-.152-.152s0-.153-.153-.305zm-17.929.609l-2.452-1.372a1.319 1.319 0 00-1.072 0l-2.912 1.677c-.153.153-.153.153-.153.305v.305c0 .153 0 .305.153.305l2.452 1.373c.306.152.766.152 1.073 0l2.911-1.678c.153-.152.153-.152.153-.305v-.152-.153c0-.152 0-.305-.153-.305zm-4.597 2.593l-2.452-1.373a1.319 1.319 0 00-1.072 0l-2.912 1.678c-.153.152-.153.152-.153.305v.304c0 .153 0 .305.153.305L90.864 110c.306.152.766.152 1.073 0l2.911-1.678c.153-.152.153-.152.153-.304v-.153-.152s0-.153-.153-.305zm9.348-5.337l-2.452-1.372a1.312 1.312 0 00-1.073 0l-2.911 1.677c-.154.152-.154.152-.154.305v.305c0 .152 0 .305.154.305l2.451 1.372a1.32 1.32 0 001.073 0l2.912-1.677c.153-.153.153-.153.153-.305v-.153-.152s0-.153-.153-.305zm14.097-16.163c0 .153 0 .153 0 0v.153c0 .152 0 .305.154.305l2.451 1.372c.307.153.766.153 1.073 0l2.911-1.677c.154-.153.154-.153.154-.305v-.153-.152c0-.153 0-.305-.154-.305l-2.451-1.372a1.316 1.316 0 00-1.073 0l-2.911 1.677c-.154.305-.154.457-.154.457zm-9.5 13.57l-2.452-1.371a1.315 1.315 0 00-1.073 0l-2.911 1.677c-.154.152-.154.152-.154.305v.305c0 .152 0 .305.154.305l2.451 1.372a1.32 1.32 0 001.073 0l2.912-1.677c.153-.153.153-.153.153-.305v-.153-.152c0-.153 0-.305-.153-.305zm-18.695 10.674l-2.452-1.372a1.31 1.31 0 00-1.073 0l-2.911 1.677c-.153.153-.153.153-.153.305v.305c0 .153 0 .305.153.305l2.452 1.372a1.31 1.31 0 001.072 0l2.912-1.677c.153-.152.153-.152.153-.305v-.152-.153c.153-.152 0-.152-.153-.305zm-9.348 5.337l-2.451-1.372a1.31 1.31 0 00-1.073 0l-2.758 1.677c-.154 0-.307.152-.154.305v.305c0 .152 0 .305.154.305l2.451 1.372c.307.152.767.152 1.073 0l2.911-1.677c.154-.153.154-.153.154-.305v-.153-.152l-.307-.305zm4.75-2.592l-2.451-1.373a1.319 1.319 0 00-1.073 0l-2.911 1.678c-.153 0-.153.152-.153.152v.305c0 .153 0 .305.153.305l2.451 1.372a1.31 1.31 0 001.073 0l2.912-1.677c.153-.152.153-.152.153-.305v-.152-.153s0-.152-.153-.152z"/>
        <path d="M62.976 116.404l-2.912 1.677a1.31 1.31 0 01-1.072 0l-2.452-1.372c-.307-.153-.307-.458 0-.61l2.911-1.677a1.31 1.31 0 011.073 0l2.452 1.372c.306.305.306.457 0 .61zm4.597-3.202l-2.452-1.372a1.31 1.31 0 00-1.073 0l-2.911 1.677c-.307.152-.307.457 0 .61l2.452 1.372a1.31 1.31 0 001.072 0l2.912-1.677c.306-.153.306-.458 0-.61zm4.75-2.745l-2.452-1.372a1.318 1.318 0 00-1.072 0l-2.912 1.677c-.306.153-.306.458 0 .61l2.452 1.372a1.31 1.31 0 001.073 0l2.911-1.677c.307-.152.307-.457 0-.61zm4.597-2.592l-2.452-1.372a1.31 1.31 0 00-1.072 0l-2.912 1.677c-.306.153-.306.458 0 .61l2.452 1.372a1.31 1.31 0 001.073 0l2.911-1.677c.307-.305.307-.457 0-.61zm4.75-2.744l-2.451-1.373a1.319 1.319 0 00-1.073 0l-2.911 1.678c-.307.152-.307.457 0 .609l2.451 1.373c.307.152.767.152 1.073 0l2.912-1.677c.306-.153.306-.458 0-.61zm4.598-2.592l-2.452-1.373a1.319 1.319 0 00-1.073 0l-2.911 1.677c-.307.153-.307.458 0 .61l2.452 1.373c.306.152.766.152 1.072 0l2.912-1.678c.306-.305.306-.457 0-.609zm4.75-2.745l-2.452-1.372a1.315 1.315 0 00-1.073 0l-2.91 1.677c-.307.152-.307.457 0 .61l2.45 1.372a1.31 1.31 0 001.073 0l2.912-1.677c.306-.153.306-.458 0-.61zm4.597-2.745l-2.452-1.372a1.316 1.316 0 00-1.072 0l-2.912 1.677c-.306.153-.306.458 0 .61l2.452 1.373c.306.152.766.152 1.073 0l2.911-1.678c.307-.152.307-.457 0-.61zm4.75-2.592l-2.451-1.372a1.315 1.315 0 00-1.073 0l-2.911 1.677c-.307.153-.307.458 0 .61l2.451 1.372c.307.153.766.153 1.073 0l2.911-1.677a.46.46 0 000-.61zm6.13-3.507l-2.452-1.372a1.315 1.315 0 00-1.073 0l-4.443 2.592c-.307.153-.307.458 0 .61l2.451 1.372c.307.153.767.153 1.073 0l4.444-2.744c.306-.153.306-.305 0-.458zm17.469 4.575l-2.452-1.373a1.315 1.315 0 00-1.073 0l-2.911 1.678c-.307.152-.307.457 0 .61l2.452 1.372c.306.152.766.152 1.072 0l2.912-1.678c.306-.152.306-.457 0-.61zm4.75-2.745l-2.452-1.372a1.313 1.313 0 00-1.072 0l-2.912 1.677c-.306.152-.306.457 0 .61l2.452 1.372c.306.153.766.153 1.073 0l2.911-1.677c.307-.153.307-.457 0-.61zm4.597-2.592l-2.452-1.372a1.313 1.313 0 00-1.072 0l-2.912 1.677c-.306.152-.306.457 0 .61l2.452 1.372c.307.153.766.153 1.073 0l2.911-1.677c.307-.153.307-.458 0-.61zm-5.057 7.776l-2.451-1.372a1.315 1.315 0 00-1.073 0l-2.911 1.677c-.307.153-.307.458 0 .61l2.451 1.372c.307.153.767.153 1.073 0l2.911-1.677c.307-.152.307-.457 0-.61zm4.751-2.744l-2.452-1.373a1.315 1.315 0 00-1.073 0l-2.911 1.678c-.307.152-.307.457 0 .61l2.452 1.372c.306.152.766.152 1.072 0l2.912-1.677a.463.463 0 000-.61zm4.597-2.592l-2.452-1.373a1.315 1.315 0 00-1.073 0l-2.758 1.677c-.306.153-.306.458 0 .61l2.452 1.373c.306.152.766.152 1.073 0l2.911-1.678c.153-.152.153-.457-.153-.61zM68.799 117.47l-2.452-1.372a1.31 1.31 0 00-1.073 0l-4.444 2.592c-.306.153-.306.458 0 .61l2.452 1.372a1.31 1.31 0 001.073 0l4.444-2.592c.306-.305.306-.457 0-.61zm4.75-2.744l-2.452-1.373a1.318 1.318 0 00-1.072 0l-2.912 1.678c-.306.152-.306.457 0 .61l2.452 1.372c.306.152.766.152 1.073 0l2.911-1.677c.153-.153.153-.458 0-.61zm4.597-2.592l-2.452-1.373a1.318 1.318 0 00-1.072 0l-2.912 1.678c-.306.152-.306.457 0 .609l2.605 1.22a1.31 1.31 0 001.073 0l2.911-1.677c.154-.152.154-.305-.153-.457zm4.75-2.745l-2.451-1.372a1.31 1.31 0 00-1.073 0l-2.912 1.677c-.306.152-.306.457 0 .61l2.452 1.372a1.31 1.31 0 001.073 0L82.896 110c.154-.153.154-.458 0-.61zm4.597-2.745l-2.451-1.372a1.319 1.319 0 00-1.073 0l-2.911 1.677c-.307.153-.307.458 0 .61l2.451 1.373c.307.152.767.152 1.073 0l2.912-1.678c.306-.152.306-.457 0-.61zm4.598-2.592l-2.452-1.372a1.319 1.319 0 00-1.073 0l-2.911 1.677c-.307.153-.307.458 0 .61l2.451 1.372a1.31 1.31 0 001.073 0l2.912-1.677c.306-.152.306-.457 0-.61zm4.75-2.744l-2.452-1.373a1.315 1.315 0 00-1.072 0l-2.912 1.678c-.306.152-.306.457 0 .61l2.452 1.372c.306.152.766.152 1.073 0l2.911-1.677c.306-.153.306-.458 0-.61zm4.597-2.592l-2.452-1.373a1.315 1.315 0 00-1.072 0l-2.912 1.678c-.306.152-.306.457 0 .61l2.452 1.372c.306.152.766.152 1.073 0l2.911-1.678c.307-.304.307-.457 0-.61zm4.75-2.745l-2.451-1.372a1.315 1.315 0 00-1.073 0l-2.912 1.677c-.306.152-.306.457 0 .61l2.452 1.372c.307.153.766.153 1.073 0l2.911-1.677c.307-.153.307-.457 0-.61zm4.598-2.745l-2.452-1.372a1.315 1.315 0 00-1.073 0l-2.911 1.677c-.307.153-.307.458 0 .61l2.451 1.373c.307.152.767.152 1.073 0l2.912-1.678c.306-.152.306-.457 0-.61zm-39.382 27.446l-2.452-1.372a1.318 1.318 0 00-1.073 0l-2.758 1.677c-.306.153-.306.458 0 .61l2.452 1.372a1.31 1.31 0 001.073 0l2.91-1.677c.154-.152.154-.457-.152-.61zm4.75-2.592l-2.452-1.372a1.31 1.31 0 00-1.072 0l-2.912 1.677c-.306.153-.306.458 0 .61l2.452 1.372a1.31 1.31 0 001.073 0l2.911-1.677c.306-.152.306-.457 0-.61zm4.597-2.744l-2.452-1.373a1.319 1.319 0 00-1.072 0l-2.912 1.678c-.306.152-.306.457 0 .609l2.452 1.373c.306.152.766.152 1.073 0l2.911-1.678c.307-.152.307-.457 0-.609zm4.75-2.593l-2.451-1.372a1.319 1.319 0 00-1.073 0l-2.912 1.677c-.306.153-.306.458 0 .61l2.452 1.373c.307.152.767.152 1.073 0l2.911-1.678c.307-.305.307-.457 0-.61zm-5.516 12.809l-2.452-1.373a1.319 1.319 0 00-1.073 0l-2.911 1.677c-.306.153-.306.458 0 .61l2.452 1.373c.306.152.766.152 1.072 0l2.912-1.678a.46.46 0 000-.609zm4.597-2.593l-2.452-1.372a1.319 1.319 0 00-1.072 0l-2.912 1.677c-.306.153-.306.458 0 .61l2.452 1.373c.306.152.766.152 1.073 0l2.911-1.678c.306-.152.306-.457 0-.61zm4.597-2.744l-2.298-1.372a1.31 1.31 0 00-1.073 0l-2.912 1.677c-.306.152-.306.457 0 .61l2.452 1.372c.307.152.766.152 1.073 0l2.911-1.677c.154-.153.154-.458-.153-.61zm4.75-2.592l-2.451-1.373a1.319 1.319 0 00-1.073 0l-2.912 1.678c-.306.152-.306.457 0 .61l2.452 1.372c.307.152.767.152 1.073 0l2.912-1.677c.306-.305.306-.458 0-.61zm29.422-17.078l-2.452-1.372a1.315 1.315 0 00-1.073 0l-4.443 2.592c-.307.153-.307.458 0 .61l2.451 1.372c.307.153.767.153 1.073 0l4.444-2.592c.306-.152.306-.305 0-.61zM90.099 110l-2.452-1.372a1.31 1.31 0 00-1.073 0l-2.911 1.677c-.307.152-.307.457 0 .61l2.451 1.372a1.31 1.31 0 001.073 0l2.912-1.677c.306-.153.306-.458 0-.61zm4.75-2.745l-2.452-1.372a1.318 1.318 0 00-1.073 0l-2.911 1.677c-.306.153-.306.458 0 .61l2.452 1.372a1.31 1.31 0 001.072 0l2.912-1.677c.153-.152.153-.305 0-.61zm4.597-2.592l-2.452-1.372a1.31 1.31 0 00-1.072 0l-2.912 1.677c-.306.153-.306.458 0 .61l2.452 1.372a1.31 1.31 0 001.072 0l2.912-1.677c.306-.152.306-.457 0-.61zm4.75-2.744l-2.451-1.373a1.32 1.32 0 00-1.073 0l-2.912 1.678c-.306.152-.306.457 0 .609l2.452 1.373a1.32 1.32 0 001.073 0l2.911-1.677c.154-.153.154-.458 0-.61zm4.597-2.593l-2.451-1.372a1.315 1.315 0 00-1.073 0l-2.912 1.677c-.306.153-.306.458 0 .61l2.452 1.373a1.32 1.32 0 001.073 0l2.911-1.678c.307-.152.307-.457 0-.61zm6.13-3.659l-2.452-1.372a1.316 1.316 0 00-1.073 0l-4.443 2.592c-.307.152-.307.457 0 .61l2.451 1.372c.307.153.767.153 1.073 0l4.444-2.592c.306-.153.306-.305 0-.61zm-37.696 26.684l-2.452-1.373a1.318 1.318 0 00-1.073 0l-4.29 2.44c-.307.152-.307.457 0 .61l2.451 1.372a1.31 1.31 0 001.073 0l4.444-2.592c.153-.153.153-.305-.153-.457zm4.75-2.745l-2.452-1.372a1.31 1.31 0 00-1.072 0l-2.912 1.677c-.306.152-.306.457 0 .61l2.452 1.372a1.31 1.31 0 001.073 0l2.911-1.677c.306-.153.306-.458 0-.61zm4.597-2.745l-2.452-1.372a1.318 1.318 0 00-1.072 0l-2.912 1.677c-.306.153-.306.458 0 .61l2.452 1.372a1.31 1.31 0 001.073 0l2.911-1.677c.307-.152.307-.305 0-.61zm4.75-2.592l-2.451-1.372a1.31 1.31 0 00-1.073 0l-2.912 1.677c-.306.153-.306.458 0 .61l2.452 1.372a1.31 1.31 0 001.073 0l2.912-1.677c.306-.152.306-.457 0-.61zm4.598-2.744l-2.452-1.373a1.319 1.319 0 00-1.073 0l-2.758 1.678c-.307.152-.307.457 0 .61l2.452 1.372c.306.152.766.152 1.072 0l2.912-1.677c.153-.153.153-.458-.153-.61zm21.453-7.319l-2.452-1.373a1.32 1.32 0 00-1.073 0l-21.606 12.351c-.307.153-.307.458 0 .61l2.452 1.372a1.31 1.31 0 001.072 0l21.607-12.35c.306-.305.306-.458 0-.61zm-16.703 4.727l-2.452-1.373a1.319 1.319 0 00-1.073 0l-2.911 1.525c-.306.152-.306.457 0 .61l2.452 1.372a1.31 1.31 0 001.072 0l2.912-1.677c.306 0 .306-.305 0-.457zm4.597-2.745l-2.452-1.372a1.31 1.31 0 00-1.072 0l-2.912 1.677c-.306.152-.306.457 0 .61l2.452 1.372a1.31 1.31 0 001.072 0l2.912-1.677c.306-.153.306-.458 0-.61zm4.75-2.592l-2.451-1.525a1.32 1.32 0 00-1.073 0l-2.912 1.677c-.306.153-.306.458 0 .61l2.452 1.373a1.32 1.32 0 001.073 0l2.911-1.678c.307-.152.307-.305 0-.457zm4.597-2.745l-2.451-1.372a1.315 1.315 0 00-1.073 0l-2.912 1.677c-.306.153-.306.458 0 .61l2.452 1.372c.307.153.766.153 1.073 0l2.911-1.677c.307-.152.307-.457 0-.61zm4.751-2.744l-2.452-1.373a1.315 1.315 0 00-1.073 0l-2.911 1.678c-.307.152-.307.457 0 .61l2.452 1.372c.306.152.766.152 1.072 0l2.912-1.677a.463.463 0 000-.61zm-8.122-9.911l-2.452-1.373a1.313 1.313 0 00-1.072 0l-2.758 1.678c-.307.152-.307.457 0 .61l2.451 1.372c.307.152.766.152 1.073 0l2.911-1.677c.154-.153.154-.458-.153-.61zm4.597-2.745l-2.451-1.372a1.315 1.315 0 00-1.073 0l-2.758 1.677c-.307.153-.307.457 0 .61l2.451 1.372c.307.153.767.153 1.073 0l2.912-1.677c.153-.153.153-.457-.154-.61zm4.751-2.592l-2.452-1.372a1.315 1.315 0 00-1.073 0l-2.911 1.524c-.307.153-.307.458 0 .61l2.451 1.373c.307.152.767.152 1.073 0l2.912-1.678c.306-.152.306-.305 0-.457zm4.29 2.44l-2.452-1.525a1.314 1.314 0 00-1.072 0l-2.912 1.677c-.306.153-.306.458 0 .61l2.452 1.372c.307.153.766.153 1.073 0l2.911-1.677c.153-.152.153-.305 0-.457z"/>
        <path opacity=".2" d="M137.295 115.184l-21.453 12.351c-.459.305-1.226.305-1.685 0l-14.251-8.234c-.46-.305-.46-.762 0-1.067l21.453-12.351c.46-.305 1.226-.305 1.685 0l14.251 8.234c.46.305.46.762 0 1.067z"/>
        <path d="M99.906 118.539l21.453-12.351c.46-.305 1.226-.305 1.685 0l14.251 8.234.307.305c0-.153 0-.458-.307-.61l-14.251-8.234c-.459-.305-1.225-.305-1.685 0l-21.453 12.351c-.307.152-.46.457-.307.61l.307-.305z"/>
        <path opacity=".4" d="M114.157 79.504l-60.835 34.918h-.154l2.146 1.22 60.835-34.918h.153l-2.145-1.22zM55.314 115.49l-1.839-1.067 60.682-34.765 1.839 1.067-60.682 34.765z"/>
        <path d="M120.899 88.5l-3.218-1.829c-.306-.153-.919-.153-1.226 0l-7.355 4.27c-.153.152-.306.304-.306.457v.305c0 .152 0 .305.306.457l6.436 3.66c.306.152.919.152 1.226 0l12.106-7.014c.153-.153.306-.305.306-.458v-.152-.153c0-.152 0-.305-.306-.457l-2.452-1.373c-.307-.152-.613-.152-.766 0l-4.138 2.288c0 .152-.306.152-.613 0z"/>
        <path d="M129.02 87.433l-2.452-1.372c-.306-.153-.613-.153-.766 0l-4.137 2.287c-.154.153-.46.153-.767 0l-3.217-1.83c-.307-.152-.92-.152-1.226 0l-7.356 4.27c-.306.152-.306.457 0 .762l6.436 3.66c.307.152.92.152 1.226 0l12.106-7.014c.459-.153.459-.458.153-.763z"/>
        <path d="M82.743 135.311l2.452 1.372c.306.153.46 0 .46-.152 0-.305-.307-.61-.46-.763l-2.452-1.372c-.306-.152-.46 0-.46.152-.153.153.154.61.46.763z"/>
        <path d="M84.888 136.378l.307.153 1.226-.763-.307-.152-1.226.762zm-.766-.457l.307.152 1.226-.762-.307-.153-1.226.763zm-.766-.458l.307.153 1.225-.763-.306-.152-1.226.762zm-.766-.305l.306.153 1.226-.762-.306-.153-1.226.762z"/>
        <path opacity=".5" d="M43.515 56.938l9.347 51.69 62.674-35.985-9.347-51.842-62.674 36.137z"/>
        <path opacity=".5" d="M49.338 54.956l6.13 53.062 63.592-36.442-6.282-53.215-63.44 36.595z"/>
        <path opacity=".5" d="M55.16 52.974l3.066 54.586 64.206-36.9-3.065-54.586-64.206 36.9z"/>
        <path opacity=".7" d="M60.984 54.65v52.3l64.819-37.356v-52.3L60.983 54.65z"/>
    </g>
    <defs>
        <linearGradient id="paint0_linear" x1="94.867" y1="123.939" x2="99.275" y2="123.939" gradientUnits="userSpaceOnUse">
            <stop stop-color="#B9C2C8"/>
            <stop offset="1" stop-color="#DBE0E1"/>
        </linearGradient>
        <linearGradient id="paint1_linear" x1="51.102" y1="109.976" x2="149.737" y2="109.976" gradientUnits="userSpaceOnUse">
            <stop stop-color="#E5EFF3"/>
            <stop offset="1" stop-color="#EEFBFF"/>
        </linearGradient>
        <clipPath id="clip0">
            <path transform="translate(.762)" d="M0 0h160v160H0z"/>
        </clipPath>
    </defs>
</svg>
