<svg width="161" height="160" viewBox="0 0 161 160" fill="none" xmlns="http://www.w3.org/2000/svg">
<path d="M121.387 129.657H107.151C100.669 126.771 92.4515 125.155 83.5395 125.271C75.2062 125.386 67.5673 127.002 61.3173 129.657H46.271C46.271 129.657 46.271 133.927 46.271 134.158C46.3867 145.814 63.2849 155.047 84.0024 154.816C104.604 154.585 121.271 145.006 121.271 133.465L121.387 129.657Z" fill="url(#paint0_linear)"/>
<path d="M121.387 129.657H107.151C100.669 126.771 92.4515 125.155 83.5395 125.271C75.2062 125.386 67.5673 127.002 61.3173 129.657H46.271C46.271 129.657 46.271 133.927 46.271 134.158C46.3867 145.814 63.2849 155.047 84.0024 154.816C104.604 154.585 121.271 145.006 121.271 133.465L121.387 129.657Z" fill="#013545" fill-opacity="0.1"/>
<path d="M83.5395 108.536C62.8219 108.767 46.1552 118.462 46.271 130.003C46.3867 141.659 63.2849 150.892 84.0025 150.661C104.72 150.431 121.387 140.736 121.271 129.195C121.155 117.538 104.257 108.305 83.5395 108.536Z" fill="url(#paint1_linear)"/>
<path d="M112.938 121.347H101.942C96.9654 119.154 90.5997 117.885 83.6552 118C77.1738 118.115 71.1552 119.385 66.4099 121.347H54.6043C54.6043 121.347 54.6043 128.733 54.6043 128.849C54.72 137.851 67.9145 145.122 84.0025 144.891C99.9747 144.66 112.938 137.274 112.938 128.272V121.347Z" fill="url(#paint2_linear)"/>
<path d="M112.938 121.347H101.942C96.9654 119.154 90.5997 117.885 83.6552 118C77.1738 118.115 71.1552 119.385 66.4099 121.347H54.6043C54.6043 121.347 54.6043 128.733 54.6043 128.849C54.72 137.851 67.9145 145.122 84.0025 144.891C99.9747 144.66 112.938 137.274 112.938 128.272V121.347Z" fill="#00455B" fill-opacity="0.2"/>
<path d="M83.6553 104.958C67.5673 105.189 54.6043 112.576 54.7201 121.693C54.8358 130.695 68.0303 137.966 84.1182 137.735C100.206 137.504 113.169 130.118 113.053 121.001C112.822 111.999 99.7432 104.843 83.6553 104.958Z" fill="url(#paint3_linear)"/>
<path d="M83.8867 110.037C73.7015 110.152 65.5997 114.884 65.5997 120.539C65.7154 126.194 73.933 130.811 84.1182 130.695C94.3034 130.58 102.405 125.848 102.405 120.193C102.289 114.538 94.0719 109.921 83.8867 110.037Z" fill="url(#paint4_linear)"/>
<path opacity="0.6" d="M18.2617 34.7881L65.5997 120.654C65.7154 126.31 73.933 130.926 84.1182 130.811C94.3034 130.695 102.405 125.963 102.405 120.308L143.262 34.3265L18.2617 34.7881Z" fill="url(#paint5_linear)"/>
<circle cx="82.4894" cy="50.949" r="44.6675" fill="url(#paint6_linear)"/>
<path d="M91.0535 28.3788C88.9701 29.6483 87.234 31.2641 85.3822 32.7644C84.2248 33.6877 82.9516 34.611 81.5627 35.3035C80.1738 35.9959 78.4377 36.2268 77.0488 36.9192C75.4285 37.8425 74.3868 39.6891 73.4609 41.1895C72.5349 42.6898 73.4609 43.6131 73.4609 44.998C73.3451 45.8059 72.8822 46.96 72.9979 47.7679C73.2294 49.9607 73.8081 51.3457 75.6599 51.8073C77.1646 52.1536 78.9007 52.4998 80.7525 52.3844C82.4886 52.269 84.2248 52.0382 85.8451 52.7306C87.4655 53.4231 88.5072 54.6926 89.8961 55.7313C90.359 56.0776 90.822 56.4238 91.2849 56.6546C91.2849 56.6546 91.2849 56.6546 91.1692 56.6546C90.359 56.6546 89.5488 56.5392 88.8544 56.3084C88.2757 55.9622 87.697 55.8467 87.234 55.3851C86.5396 54.808 85.3822 55.1543 84.572 55.1543C82.9516 55.3851 81.7942 54.808 79.9424 55.6159C77.5118 56.6546 72.9979 59.5399 72.9979 62.5406C72.9979 63.5793 73.2294 64.3872 73.2294 65.4259C73.2294 65.7721 72.9979 67.6187 73.1137 68.0804C73.3451 69.0037 73.8081 69.5807 74.6183 70.1578C76.3544 71.3119 78.0905 71.1965 79.3637 73.1585C80.2896 74.5434 80.7525 75.3513 82.0257 76.39C83.4146 77.3133 83.9933 77.8904 84.2248 79.737C84.3405 80.5448 84.3405 81.3527 84.4562 82.1606C84.8035 83.6609 85.3822 85.0459 86.3081 86.3154C86.8868 87.2387 88.6229 89.6624 89.5488 90.124C91.2849 90.9319 91.6322 90.0086 93.484 88.6237C94.5257 87.8158 95.3359 86.3154 96.3775 85.3921C97.5349 84.3534 99.2711 83.4301 100.197 82.1606C100.776 81.4681 100.891 79.9678 101.47 79.2753C104.248 75.813 105.058 72.6968 105.637 68.6574C105.868 67.1571 105.521 65.5413 105.521 64.041C105.521 61.8481 104.248 60.8094 102.396 60.117C100.66 59.4245 99.734 60.2324 98.1136 60.5786C97.6507 60.694 96.609 60.8094 96.1461 60.4632C95.2201 59.7707 94.2942 59.3091 93.484 59.3091C92.7896 59.3091 92.0951 59.3091 91.7479 58.9629C91.4007 58.5012 91.7479 57.6933 91.8637 57.2317C92.4424 57.5779 92.9053 58.2704 93.8312 58.0396C94.5257 57.9241 95.2201 58.5012 96.1461 58.155C99.1553 57.1163 101.47 56.8854 105.984 57.5779C107.257 57.8087 108.762 55.7313 109.803 55.0389C110.382 54.6926 110.729 54.1156 111.308 54.0001C112.003 53.7693 112.003 54.6926 112.697 55.5005C113.16 56.0776 114.549 55.7313 114.896 56.5392C115.475 57.9241 117.327 58.732 118.716 58.6166C119.641 58.5012 119.178 57.9241 119.063 57.4625C118.368 55.5005 116.979 53.6539 117.558 51.5765C118.137 49.6145 118.947 49.2683 120.567 49.6145C121.841 49.8453 120.799 51.8073 121.378 52.7306C121.725 53.3077 122.882 53.7693 123.229 53.3077C124.271 52.269 124.618 50.884 124.734 48.922C124.85 46.4984 125.776 44.421 126.354 42.1127C124.618 33.3415 120.22 25.4935 114.086 19.3766C111.192 19.4921 108.53 23.4161 106.215 24.5702C101.47 26.9938 95.6831 25.4935 91.0535 28.3788Z" fill="url(#paint7_linear)"/>
<path d="M107.151 76.1055C106.803 77.0288 106.109 78.1829 105.299 79.2216C104.489 80.1449 102.637 80.722 102.29 81.8761C101.942 83.4919 102.058 85.223 103.215 84.7614C104.026 84.4151 105.415 84.4151 106.225 83.6073C107.151 82.7994 107.151 81.299 107.498 80.6066C108.655 78.8754 109.35 76.5672 107.845 74.9514C107.614 74.6052 107.382 75.6439 107.151 76.1055Z" fill="url(#paint8_linear)"/>
<path d="M65.2802 85.1502C64.8173 84.4578 63.6599 84.2269 62.9654 83.8807C58.4515 82.2649 55.095 78.2255 52.896 74.0707C51.6228 71.7625 51.2756 69.8005 51.7386 67.146C51.8543 66.2227 52.0858 65.6457 52.0858 64.7224C51.97 62.9912 50.8126 61.7217 49.5395 60.6829C47.1089 58.8364 43.9839 58.3747 42.4793 55.374C41.4376 53.412 41.5534 50.6421 39.933 49.2572C39.3543 48.7955 38.5441 48.1031 37.9654 47.8723C37.8497 48.911 37.8497 49.9497 37.8497 50.9884C37.8497 66.7998 46.0673 80.6492 58.4515 88.6126C59.9562 88.4972 61.5765 88.0355 63.1969 86.9968C63.4284 86.5352 65.6274 85.7273 65.2802 85.1502Z" fill="url(#paint9_linear)"/>
<path d="M41.8728 46.7909C42.4515 47.2526 43.0302 46.4447 43.146 45.7522C43.4932 43.9056 43.7247 42.2899 43.609 40.2125C43.609 38.9429 42.9145 37.558 43.2617 36.2885C43.7247 34.4419 45.4608 33.2878 47.8914 33.2878C50.7849 33.2878 53.6784 34.4419 56.6877 34.0956C58.1923 33.8648 59.8127 33.4032 60.7386 32.1336C62.2432 29.9408 61.0858 26.8247 61.5488 24.4011C61.896 22.4391 62.4747 20.1308 64.0951 18.9767C65.3682 18.1688 66.8728 18.2842 68.8404 18.2842C70.3451 18.3997 70.4608 20.2462 70.6923 20.5925C71.6182 22.2082 72.0812 23.247 74.1645 23.5932C76.1321 23.9394 78.0997 23.3624 79.8358 22.6699C81.5719 22.0928 83.308 21.4004 85.0441 20.8233C86.433 20.3617 88.4006 20.0154 89.558 19.0921C91.0627 17.8226 90.1367 16.0914 91.1784 14.3603C92.2201 12.7445 93.0303 11.7058 92.1043 9.62837C91.6414 8.58967 90.8312 7.66637 90.021 6.85849C87.5904 6.51226 85.1599 6.28143 82.6136 6.28143C60.6228 6.28143 42.4515 21.9774 38.5164 42.7515C39.2108 44.2519 40.3682 45.6368 41.8728 46.7909Z" fill="url(#paint10_linear)"/>
<path d="M46.5025 54.2927C46.271 53.6002 46.271 53.0231 46.3867 52.2153C46.5025 51.869 46.5025 51.5228 46.5025 51.1766C46.5025 51.0612 46.3867 50.9457 46.3867 50.8303C46.271 50.4841 45.9238 50.0224 45.6923 49.6762C45.2293 49.0992 44.7664 48.1759 44.4191 48.9837C44.0719 49.4454 44.3034 49.907 44.4191 50.3687C44.6506 50.9457 44.7664 51.5228 44.7664 52.0999C44.7664 52.4461 44.6506 52.9077 44.8821 53.254C45.1136 53.9464 45.808 54.7543 46.6182 54.6389C46.7339 54.7543 46.6182 54.4081 46.5025 54.2927Z" fill="url(#paint11_linear)"/>
<path d="M47.4284 55.7931C47.3126 55.4468 47.1969 55.216 46.9654 55.3314C46.5024 55.5622 46.1552 55.7931 46.271 56.2547C46.3867 56.9472 47.3126 57.4088 47.8913 57.8705C48.3543 58.2167 48.2386 58.5629 48.3543 58.5629C48.933 58.2167 48.7015 57.178 48.2386 56.7164C48.0071 56.2547 47.6599 56.1393 47.4284 55.7931Z" fill="url(#paint12_linear)"/>
<path d="M58.0765 35.3652C57.2663 35.9422 56.3404 35.3652 55.4145 35.3652C54.72 35.3652 53.5626 35.596 53.3312 36.4039C53.0997 37.2118 53.9099 37.3272 54.4886 37.6734C55.7617 38.5967 56.6876 40.2125 57.9608 41.1358C58.5395 41.5974 59.3497 41.7128 59.9284 41.1358C60.2756 40.6741 60.1599 40.3279 60.2756 39.7508C60.3913 38.9429 60.6228 38.4813 60.8543 37.7888C61.2015 36.8655 61.0858 35.596 60.2756 34.9035C59.5812 34.5573 58.6552 34.7881 58.0765 35.3652Z" fill="url(#paint13_linear)"/>
<path opacity="0.2" d="M104.026 62.3715C91.7571 83.7227 68.146 92.8402 51.0164 83.0302C38.6321 71.1428 31.6877 49.33 43.4932 28.5559C55.7617 7.20476 81.8034 1.43418 101.248 10.3209C113.285 21.9775 114.905 43.6748 104.026 62.3715Z" fill="white"/>
<path opacity="0.1" d="M106.507 30.8695C105.234 31.562 103.151 31.562 101.878 30.8695C100.605 30.177 100.605 28.9075 101.878 28.215C103.151 27.5226 105.234 27.5226 106.507 28.215C107.78 29.0229 107.78 30.177 106.507 30.8695Z" fill="black"/>
<path d="M104.887 5.36354C103.845 5.0173 102.572 5.13271 101.183 5.9406C98.0582 7.67177 95.6277 12.0574 95.6277 15.6352C95.6277 20.4825 101.183 25.9068 101.183 25.9068L103.151 26.9455L106.855 6.40224L104.887 5.36354Z" fill="#B0D6E1"/>
<path d="M103.151 6.86391C106.276 5.13273 108.706 6.51767 108.706 10.0954C108.706 14.9427 103.151 26.8301 103.151 26.8301C103.151 26.8301 97.5953 21.2904 97.5953 16.5585C97.5953 12.9807 100.026 8.71049 103.151 6.86391Z" fill="#B0D6E1"/>
<path d="M99.9101 15.1736C99.9101 17.251 101.415 18.0588 103.151 17.0201C105.003 15.9814 106.392 13.4424 106.392 11.4804C106.392 9.40297 104.887 8.59509 103.151 9.63379C101.415 10.5571 99.9101 13.0961 99.9101 15.1736Z" fill="white"/>
<path d="M97.711 16.6739C97.711 13.2115 100.142 8.94129 103.267 7.0947C105.929 5.59435 108.128 6.40223 108.706 9.0567C108.243 6.28682 105.929 5.24811 103.151 6.86388C100.026 8.59505 97.5953 12.9807 97.5953 16.5585C97.5953 21.4057 103.151 26.8301 103.151 26.8301C102.456 26.1376 97.711 21.1749 97.711 16.6739Z" fill="#C9F3FF"/>
<path opacity="0.1" d="M58.4199 32.0964C57.6097 32.558 56.3365 32.558 55.5263 32.0964C54.7162 31.6347 54.7162 30.9423 55.5263 30.4806C56.3365 30.019 57.6097 30.019 58.4199 30.4806C59.1143 30.9423 59.1143 31.6347 58.4199 32.0964Z" fill="black"/>
<path d="M57.9569 7.97535C56.9152 7.62912 55.6421 7.74453 54.2532 8.55241C51.1282 10.2836 48.6976 14.6692 48.6976 18.247C48.6976 23.0943 54.2532 28.5186 54.2532 28.5186L56.2208 29.5573L59.9245 9.01406L57.9569 7.97535Z" fill="#B0D6E1"/>
<path d="M56.2208 9.47572C59.3458 7.74455 61.7763 9.12949 61.7763 12.7072C61.7763 17.5545 56.2208 29.4419 56.2208 29.4419C56.2208 29.4419 50.6652 23.9022 50.6652 19.1703C50.6652 15.5925 53.0958 11.3223 56.2208 9.47572Z" fill="#B0D6E1"/>
<path d="M52.98 17.7854C52.98 19.8628 54.4847 20.6707 56.2208 19.632C58.0726 18.5933 59.4615 16.0542 59.4615 14.0922C59.4615 12.0148 57.9569 11.2069 56.2208 12.2456C54.3689 13.2843 52.98 15.708 52.98 17.7854Z" fill="white"/>
<path d="M50.781 19.4011C50.781 15.9388 53.2115 11.6685 56.3365 9.82193C58.9986 8.32158 61.1976 9.12946 61.7763 11.7839C61.3134 9.01405 58.9986 7.97535 56.2208 9.59111C53.0958 11.3223 50.6652 15.7079 50.6652 19.2857C50.6652 24.133 56.2208 29.5573 56.2208 29.5573C55.5263 28.7495 50.781 23.7867 50.781 19.4011Z" fill="#C9F3FF"/>
<path opacity="0.1" d="M91.5256 74.5875C90.2524 75.28 88.1691 75.28 86.8959 74.5875C85.6228 73.8951 85.6228 72.6255 86.8959 71.933C88.1691 71.2406 90.2524 71.2406 91.5256 71.933C92.683 72.6255 92.683 73.8951 91.5256 74.5875Z" fill="black"/>
<path d="M89.558 48.8507C88.5163 48.5045 87.2432 48.6199 85.8543 49.4278C82.7293 51.159 80.2987 55.5446 80.2987 59.1224C80.2987 63.9697 85.8543 69.394 85.8543 69.394L87.8219 70.4327L91.5256 49.8894L89.558 48.8507Z" fill="#B0D6E1"/>
<path d="M87.8219 50.4665C90.9469 48.7353 93.3774 50.1203 93.3774 53.698C93.3774 58.5453 87.8219 70.4327 87.8219 70.4327C87.8219 70.4327 82.2663 64.893 82.2663 60.1611C82.2663 56.4679 84.8126 52.1977 87.8219 50.4665Z" fill="#B0D6E1"/>
<path d="M84.5811 58.6607C84.5811 60.7381 86.0857 61.546 87.8219 60.5073C89.6737 59.4686 91.0626 56.9295 91.0626 54.9675C91.0626 52.8901 89.558 52.0822 87.8219 53.1209C86.0857 54.1596 84.5811 56.6987 84.5811 58.6607Z" fill="white"/>
<path d="M82.382 60.2765C82.382 56.8141 84.8126 52.5439 87.9376 50.6973C90.5996 49.197 92.7987 50.0049 93.3774 52.6593C92.9144 49.774 90.5996 48.8507 87.8219 50.4665C84.6969 52.1977 82.2663 56.5833 82.2663 60.1611C82.2663 65.0084 87.8219 70.4327 87.8219 70.4327C87.1274 69.6248 82.382 64.6621 82.382 60.2765Z" fill="#C9F3FF"/>
<defs>
<linearGradient id="paint0_linear" x1="121.447" y1="140.072" x2="46.2735" y2="140.072" gradientUnits="userSpaceOnUse">
<stop stop-color="#DEF1F7"/>
<stop offset="1" stop-color="#B7DDE9"/>
</linearGradient>
<linearGradient id="paint1_linear" x1="121.332" y1="129.641" x2="46.273" y2="129.641" gradientUnits="userSpaceOnUse">
<stop stop-color="#DEF1F7"/>
<stop offset="1" stop-color="#B7DDE9"/>
</linearGradient>
<linearGradient id="paint2_linear" x1="54.6212" y1="131.458" x2="113.066" y2="131.458" gradientUnits="userSpaceOnUse">
<stop offset="0.00518135" stop-color="#22CBFF"/>
<stop offset="0.697917" stop-color="#39B0D5"/>
</linearGradient>
<linearGradient id="paint3_linear" x1="54.7362" y1="121.365" x2="113.183" y2="121.365" gradientUnits="userSpaceOnUse">
<stop offset="0.00518135" stop-color="#22CBFF"/>
<stop offset="0.697917" stop-color="#39B0D5"/>
</linearGradient>
<linearGradient id="paint4_linear" x1="83.9964" y1="130.717" x2="83.9964" y2="110.075" gradientUnits="userSpaceOnUse">
<stop offset="0.00518135" stop-color="#C2DEED"/>
<stop offset="1" stop-color="white"/>
</linearGradient>
<linearGradient id="paint5_linear" x1="80.7637" y1="130.717" x2="80.7637" y2="34.3328" gradientUnits="userSpaceOnUse">
<stop offset="0.00518135" stop-color="#B0D6E1"/>
<stop offset="1" stop-color="#B0D6E1" stop-opacity="0"/>
</linearGradient>
<linearGradient id="paint6_linear" x1="37.8478" y1="50.9928" x2="127.354" y2="50.9928" gradientUnits="userSpaceOnUse">
<stop offset="0.00518135" stop-color="#22CBFF"/>
<stop offset="0.697917" stop-color="#39B0D5"/>
</linearGradient>
<linearGradient id="paint7_linear" x1="73.0493" y1="54.8011" x2="126.456" y2="54.8011" gradientUnits="userSpaceOnUse">
<stop stop-color="#1691D6"/>
<stop offset="1" stop-color="#1680BB"/>
</linearGradient>
<linearGradient id="paint8_linear" x1="102.11" y1="79.8531" x2="108.704" y2="79.8531" gradientUnits="userSpaceOnUse">
<stop stop-color="#1691D6"/>
<stop offset="1" stop-color="#1680BB"/>
</linearGradient>
<linearGradient id="paint9_linear" x1="37.7936" y1="68.4041" x2="65.2776" y2="68.4041" gradientUnits="userSpaceOnUse">
<stop stop-color="#1691D6"/>
<stop offset="1" stop-color="#1680BB"/>
</linearGradient>
<linearGradient id="paint10_linear" x1="38.4605" y1="26.5776" x2="92.4861" y2="26.5776" gradientUnits="userSpaceOnUse">
<stop stop-color="#1691D6"/>
<stop offset="1" stop-color="#1680BB"/>
</linearGradient>
<linearGradient id="paint11_linear" x1="44.2332" y1="51.6605" x2="46.6651" y2="51.6605" gradientUnits="userSpaceOnUse">
<stop stop-color="#1691D6"/>
<stop offset="1" stop-color="#1680BB"/>
</linearGradient>
<linearGradient id="paint12_linear" x1="46.246" y1="56.93" x2="48.6965" y2="56.93" gradientUnits="userSpaceOnUse">
<stop stop-color="#1691D6"/>
<stop offset="1" stop-color="#1680BB"/>
</linearGradient>
<linearGradient id="paint13_linear" x1="53.2826" y1="38.1292" x2="61.0355" y2="38.1292" gradientUnits="userSpaceOnUse">
<stop stop-color="#1691D6"/>
<stop offset="1" stop-color="#1680BB"/>
</linearGradient>
</defs>
</svg>