<svg width="161" height="160" xmlns="http://www.w3.org/2000/svg">
    <path d="M55.061 50.312l-5.246-2.92c-1.38-.833-1.795.14-2.347 1.113l-4.556 8.759c-.553.973-.967 1.668.138 2.502l4.97 2.92c.828.556 1.38.556 1.933-.418l4.832-9.175c.552-1.112 1.38-2.086.276-2.78z"/>
    <path d="M55.061 50.312l-5.246-2.92c-1.38-.833-1.795.14-2.347 1.113l-4.556 8.759c-.553.973-.967 1.668.138 2.502l4.97 2.92c.828.556 1.38.556 1.933-.418l4.832-9.175c.552-1.112 1.38-2.086.276-2.78z" fill-opacity=".1"/>
    <path d="M54.647 50.035l-5.246-2.92c-1.381-.834-1.795.14-2.348 1.112l-4.556 8.759c-.552.973-.966 1.668.138 2.502l4.97 2.92c.829.556 1.381.556 1.934-.417l4.832-9.176c.552-1.112 1.38-2.085.276-2.78z"/>
    <path d="M42.911 57.681l6.213 3.476 5.523-10.288-6.213-3.476-5.523 10.288z"/>
    <path opacity=".6" d="M47.605 49.895l5.385 3.198.966-1.946-5.384-3.198-.967 1.947z"/>
    <path d="M44.706 59.905l1.381.834.414-.556-1.518-.834-.276.556z"/>
    <path d="M52.714 55.457s.414-.695.552-1.39c.138-.418-.276-.974-.69-.14-.415.696-1.38 1.53-1.38 1.53L49.4 58.654s.553 1.252 2.623.14c1.933-.974 2.071-2.92 1.795-3.06-.138-.277-1.104-.277-1.104-.277zM32.418 48.506c0 .417-4.142 1.807-4.832 5.004-.828 3.059-.414 6.117.552 7.09.967.974 4.833-.556 4.833-.556l-.553-11.538z"/>
    <path d="M31.038 118.156c.414 1.112 1.518.973 3.727.278a19.754 19.754 0 004.833-2.502c1.38-.973 1.38-1.112 1.518-1.807.277-.974-1.104-1.53-3.451-.834-.276.139-.414.139-.69.139.414.139.828.278 1.104.556.414.834-.828 1.668-2.347 2.363-1.38.695-2.485.695-3.176.417-.552-.278-1.242-.556-1.518-.695-.138.973-.276 1.39 0 2.085z"/>
    <path d="M44.844 118.017c-.138-.417-.69-.556-1.104-.556-1.243.417-1.933.695-1.933.695s.276-5.978.69-10.704c.69-4.032 1.243-9.037 1.243-11.54v-2.919c-.69.278-4.694.834-6.075.834 0 .278.276 2.364.276 4.866 0 3.893-.138 8.759-.138 8.48-.138 3.198-.138 7.786 0 10.288.138 1.251 0 2.086 0 2.781.276.139.967.417 1.519.695.69.278 1.795.278 3.175-.417 1.38-.834 2.761-1.808 2.347-2.503z"/>
    <path d="M38.079 113.986c-.138-.417-.69-.557-1.105-.557a39.224 39.224 0 00-1.932.696s.138-4.449.414-7.925c.138-2.919.552-11.122.69-12.929-1.933-.278-4.142.14-5.66-1.112v2.92c-.139 2.363.276 5.56.414 7.924.138 1.946.138 8.341.276 10.426.138 1.252 0 2.086 0 2.781.276.139.966.417 1.518.695.69.278 1.795.278 3.176-.417 1.38-.834 2.623-1.668 2.209-2.502z"/>
    <path d="M37.803 122.049c.414 1.112 1.519.973 3.728.278a19.756 19.756 0 004.832-2.502c1.38-.974 1.38-1.113 1.519-1.808.276-.973-1.105-1.529-3.452-.834-.276.139-.414.139-.69.139.414.139.828.278 1.104.556.414.834-.828 1.669-2.347 2.364-1.38.695-2.485.695-3.175.417-.553-.278-1.243-.556-1.52-.695-.137.973-.275 1.39 0 2.085z"/>
    <path d="M30.485 93.27c6.351 4.31 11.874 2.225 13.53 1.391 0-3.754 0-17.517-.828-21.549-.414-2.224-1.518-5.421-1.518-5.421l-10.355-.695s-1.381 1.25-2.486 5.282c-1.104 4.31-.138 6.951 0 9.176.553 3.476 1.52 10.427 1.657 11.817z"/>
    <path d="M37.113 34.742c.552.418 2.485.835 3.037 5.283.553 3.893-.414 5.005-1.104 5.283-.414.14-1.933.14-1.933.14v3.336s-1.933.834-3.728 0l-1.933-.834s.69-1.252.552-3.476c-.138-2.641-1.104-6.534-.414-7.924 1.243-2.503 4.004-2.92 5.523-1.808z"/>
    <path d="M29.519 70.332c.966 1.113 4.97 2.503 6.489 2.503 3.866 0 5.523-1.251 6.49-2.503-1.382-4.31-.691-10.287-.691-10.287s1.933-3.615.552-6.535c-1.38-2.919-2.209-4.31-3.59-4.865-1.38-.556-7.87-.556-7.87-.556s-3.037 3.197-2.07 7.507c1.518 6.534 1.104 10.983.69 14.736z"/>
    <path d="M32.004 48.367s1.519 1.946 3.59 1.39c2.07-.556 3.175-.973 3.175-.973s-.414-.695-1.657-.834c-2.07-.278-4.694-1.39-4.694-1.39l-.414 1.807z"/>
    <path d="M32.97 46.281c-.828-1.112-3.037-.556-4.141 1.112-4.557 6.951.69 9.176.69 9.176s4.28-9.315 3.452-10.288z"/>
    <path d="M40.288 38.496c-.138 1.53-1.38 1.946-2.485 3.197-1.105 1.113-1.657 2.225-4.142 4.032-.829.695-.69 5.561-2.348 9.037-1.794 3.614-.69 4.31-.69 4.31s-5.108-1.669-3.037-7.369c.828-2.224 3.728-3.893 3.728-6.117 0-.973-1.243-2.085-1.795-4.032-1.381-6.117 1.38-7.785 4.004-8.34 4.832-.974 7.04 2.084 6.765 5.282z"/>
    <path d="M39.046 40.581s-1.105-1.946-1.657 0a2.157 2.157 0 001.104 2.503l.553-2.503z"/>
    <path d="M30.9 44.474s0 1.251.138 1.53c.414.416 1.656.833 2.209.694.414-.139.966-.973 1.104-1.39-1.657-.278-3.451-.834-3.451-.834z"/>
    <path d="M39.322 49.757c-1.105-.556-2.486 5.56-2.071 7.924.414 2.364 2.9 6.256 5.108 7.507 2.485 1.39 4.556.695 2.761-4.17-1.656-4.866-3.451-9.871-5.798-11.261z"/>
    <path d="M39.598 49.2s-2.21.418-2.9 3.893c-.69 3.476-.276 3.754.277 5.144.276.556 1.242 1.947 1.242 1.947s2.485-.14 3.728-.973c1.242-.974 1.795-1.947 1.795-1.947s.552-3.754-.829-5.7c-1.242-1.946-3.313-2.363-3.313-2.363z"/>
    <path d="M37.803 59.627l.414.696s1.933.278 3.452-.696c1.518-.973 2.209-2.085 2.209-2.085l-.138-.973s-.967 1.807-2.486 2.502c-1.518.696-3.451.556-3.451.556z"/>
    <path d="M42.911 62.408s.414-.278 2.761-1.946c1.657-1.113 5.661-5.283 5.661-5.283l.138 2.92s-1.38 3.336-2.761 4.726c-2.623 2.78-3.728 2.78-3.728 2.78l-2.07-3.197z"/>
    <path opacity=".6" d="M68.146 13.086L87.2 24.208v22.939L68.146 36.025v-22.94z"/>
    <path opacity=".5" d="M68.975 14.754l17.258 10.01v1.529L68.975 16.144v-1.39z"/>
    <path opacity=".5" d="M73.393 20.732v.834l-4.418-2.641v-.834l4.418 2.641z"/>
    <path opacity=".5" d="M85.818 44.366v.834L81.4 42.56v-.834l4.418 2.641z"/>
    <path opacity=".5" d="M72.15 21.983v.834l-3.175-1.946v-.834l3.175 1.946z"/>
    <path opacity=".5" d="M71.183 28.656c.139 4.588 3.038 9.454 6.351 10.844 3.452 1.39 6.075-1.251 5.937-5.7-.138-4.587-3.037-9.453-6.35-10.843-3.314-1.39-6.075 1.112-5.938 5.7z"/>
    <path opacity=".6" d="M74.497 30.186c0 1.946 1.243 4.032 2.761 4.587 1.52.557 2.624-.556 2.486-2.502 0-1.946-1.243-4.032-2.762-4.588-1.38-.556-2.485.556-2.485 2.503z"/>
    <path opacity=".6" d="M90.375 39.361l40.453 23.495v-35.59L90.375 3.771v35.59z"/>
    <path opacity=".6" d="M99.625 41.447L91.48 36.72v1.668l8.146 4.727v-1.669zM99.625 38.249l-8.146-4.727v1.668l8.146 4.727v-1.668zM99.625 35.051l-8.146-4.726v1.529l8.146 4.727v-1.53zM99.625 31.854l-8.146-4.727v1.53l8.146 4.726v-1.53zM99.625 28.517l-8.146-4.726v1.529l8.146 4.727v-1.53zM99.625 25.32l-8.146-4.727v1.668l8.146 4.727V25.32zM99.625 21.983l-8.146-4.727v1.669l8.146 4.726v-1.668zM99.625 18.786l-8.146-4.727v1.668l8.146 4.727v-1.668z"/>
    <path opacity=".5" d="M99.625 11.278L91.48 6.552v4.31l8.146 4.726v-4.31z"/>
    <path opacity=".5" d="M129.309 28.656l-8.145-4.727v4.31l8.145 4.727v-4.31z"/>
    <path opacity=".5" d="M113.294 22.54c-.69-.418-1.105 0-1.105.833 0 .278 0 .417.139.695l-4.004 2.78-7.87-4.587v.834l7.87 4.588 4.28-2.92c.276.418.552.696.828.974.69.417 1.105 0 1.105-.834 0-.974-.553-1.947-1.243-2.364z"/>
    <path opacity=".6" d="M126.134 32.827v4.31l3.175 1.807v-4.31l-3.175-1.807zM126.134 39.222v4.31l3.175 1.807v-4.31l-3.175-1.807zM126.134 45.617v4.31l3.175 1.807v-4.17l-3.175-1.947zM126.134 52.012v4.31l3.175 1.946v-4.31l-3.175-1.946z"/>
    <path opacity=".5" d="M117.435 21.705l-8.145-4.727v9.593l8.145 4.727v-9.593z"/>
    <path opacity=".5" d="M118.126 38.666l-8.146-4.727v9.593l8.146 4.727v-9.593z"/>
    <path opacity=".6" d="M114.122 38.944s-.138 0 0 0c-.276-.14-.414-.14-.69-.14l-4.004-7.645v-.14l-8.836-5.143v.834l8.422 4.866 4.003 7.507c-.138.278-.276.556-.276 1.112 0 1.251.691 2.642 1.657 3.059.828.556 1.657 0 1.657-1.252-.414-1.25-1.105-2.641-1.933-3.058zM113.294 23.512c-.277-.139-.415 0-.415.418 0 .417.277.834.415.973.276.139.414 0 .414-.417.138-.417-.138-.835-.414-.974zM120.473 32.41c-1.38-.695-2.347 0-2.347 1.807 0 1.808 1.105 3.754 2.347 4.588 1.243.695 2.347 0 2.347-1.807 0-1.808-.966-3.754-2.347-4.588z"/>
    <path opacity=".5" d="M114.122 40.056c-.414-.278-.69 0-.69.556s.276 1.112.69 1.39c.414.279.69 0 .69-.556s-.414-1.112-.69-1.39z"/>
    <path opacity=".5" d="M120.473 33.8c-.828-.417-1.38 0-1.38 1.112s.69 2.224 1.38 2.642c.829.417 1.381 0 1.381-1.113 0-.973-.552-2.224-1.381-2.641z"/>
    <path opacity=".5" d="M120.197 38.527v14.041l-12.011-7.09v-5.839l-7.732-3.893v.834l7.041 3.476v5.84l13.531 8.062V38.944s-.138-.14-.415-.14c-.276-.138-.414-.277-.414-.277z"/>
    <path opacity=".5" d="M107.633 60.354c0 3.058 1.795 6.673 4.142 7.924 2.347 1.39 4.142-.139 4.142-3.197 0-3.059-1.795-6.674-4.142-7.925-2.347-1.25-4.142.14-4.142 3.198z"/>
    <path opacity=".5" d="M111.913 60.493v-8.759l-.69-.417v8.759c-.829-.14-1.439.418-1.381 1.529.077 1.474.828 2.78 1.795 3.337.966.556 1.795 0 1.795-1.39 0-.835-.691-2.364-1.519-3.06z"/>
    <path opacity=".6" d="M134.556 73.005l-13.53-7.925v22.94l13.53 7.924v-22.94z"/>
    <path opacity=".6" d="M133.451 73.7l-11.459-6.673v20.436l11.459 6.673V73.7z"/>
    <path opacity=".5" d="M131.104 73.839l-6.765-4.032v.556l6.765 4.032v-.556z"/>
    <path opacity=".5" d="M131.104 75.23l-6.765-4.032v.556l6.765 4.031v-.556z"/>
    <path opacity=".5" d="M123.373 77.731c0 1.669.966 3.476 2.209 4.171 1.242.695 2.209 0 2.209-1.668s-.967-3.476-2.209-4.17c-1.243-.696-2.209 0-2.209 1.668z"/>
    <path opacity=".5" d="M128.757 86.629c0 .973.552 2.085 1.242 2.502.691.418 1.243 0 1.243-.973s-.552-2.085-1.243-2.502c-.69-.417-1.242 0-1.242.973z"/>
    <path opacity=".5" d="M130.276 81.624c0 .695.414 1.39.828 1.668.552.278.828 0 .828-.695s-.414-1.39-.828-1.668-.828 0-.828.695zM123.925 83.014c0 .278.138.696.414.835.276.138.414 0 .414-.279 0-.278-.138-.695-.414-.834-.276-.139-.414 0-.414.278zM125.444 86.49c0 .556.276 1.112.69 1.39.414.278.69 0 .69-.556s-.276-1.112-.69-1.39c-.414-.278-.69 0-.69.556zM130.69 78.01c0 .278.138.695.414.834.276.139.414 0 .414-.278s-.138-.695-.414-.834c-.276-.278-.414-.14-.414.278zM127.653 76.063c0 .278.138.695.414.834.276.14.414 0 .414-.278s-.138-.695-.414-.834c-.276-.139-.414 0-.414.278z"/>
    <path opacity=".5" d="M127.928 97.473v8.202l-12.426-7.229v-8.202l12.426 7.229z"/>
    <path opacity=".6" d="M117.574 89.41v5.421l-8.146-4.727v-5.421l8.146 4.726z"/>
    <path d="M75.356 77.67l-5.66-.695s-.829 3.615.552 7.23c1.242 3.753 3.59 3.753 4.418 3.475.828-.278 1.243-2.642 1.105-5.283a66.63 66.63 0 00-.415-4.727z"/>
    <path d="M95.237 89.21l-5.246-2.92c-1.38-.834-1.795.139-2.347 1.112l-4.556 8.758c-.553.974-.967 1.669.138 2.503l4.97 2.919c.829.556 1.38.556 1.933-.417l4.832-9.175c.553-1.112 1.381-2.086.276-2.78z"/>
    <path d="M95.237 89.21l-5.246-2.92c-1.38-.834-1.795.139-2.347 1.112l-4.556 8.758c-.553.974-.967 1.669.138 2.503l4.97 2.919c.829.556 1.38.556 1.933-.417l4.832-9.175c.553-1.112 1.381-2.086.276-2.78z" fill-opacity=".1"/>
    <path d="M94.823 88.931l-5.246-2.92c-1.381-.833-1.795.14-2.347 1.113l-4.557 8.759c-.552.973-.966 1.668.138 2.502l4.97 2.919c.83.557 1.381.557 1.934-.417l4.832-9.175c.552-1.112 1.38-2.086.276-2.78z"/>
    <path d="M83.088 96.578l6.213 3.614 5.384-10.287-6.075-3.615-5.522 10.288zM84.882 98.802l1.381.834.276-.556-1.38-.834-.277.556z"/>
    <path d="M83.087 86.568s2.486.695 4.28.834c1.795.139 2.624.278 2.624.417 0 .556-.69.556-.967.556-.552.139-1.656 0-1.656 0s.138.278-.277.834c-.276.417-.276.695-.69 1.112-1.243 1.252-5.108-.278-5.108-.278l1.794-3.475z"/>
    <path d="M71.904 73.5s-2.209-1.53-4.28-.14c-1.518.974-3.313 3.893-2.623 8.064 1.105 7.368 12.702 11.956 12.702 11.956L71.904 73.5zM79.636 84.9s4.142 1.529 4.97 1.946c.829.417.691 2.502 0 3.337-.69.834-5.384 0-5.384 0l.414-5.283z"/>
    <path d="M88.886 144.263c-.828-.557-5.937.973-5.937.973l-5.522 1.807.414 4.171s1.933 2.085 4.694.278c1.657-1.112 4.833-2.503 5.937-4.31.828-1.112 1.243-2.363.414-2.919zM75.218 136.06c-.828-.556-5.937.973-5.937.973l-5.522 1.807.414 4.171s1.933 2.085 4.694.278c1.657-1.112 4.832-2.502 5.937-4.31.828-1.112 1.104-2.363.414-2.919z"/>
    <path d="M68.039 97.69s-2.485 2.502-2.9 7.785c-.138 2.363 1.105 12.512 1.105 12.512s-1.933 5.283-2.485 8.62c-.552 4.031-.414 11.816-.414 11.816.276 1.113 1.38 2.086 3.59 1.808 2.208-.139 3.727-3.059 3.727-3.059s.828-6.534 1.519-10.844c.414-2.502.828-4.031 1.104-6.117.138-2.363.276-8.063.276-8.063s2.624 10.705 3.452 13.902c-1.657 5.422-.138 20.159 0 21.41 3.314 2.641 5.385.139 6.627-1.946-.138-3.337.414-9.037.552-13.625.139-3.614 0-5.143.139-6.395.138-2.363-.967-9.453-1.52-14.875-.69-6.395-.828-10.983-.828-10.983L68.04 97.69z"/>
    <path d="M81.845 81.563c0 3.614-.138 8.341 0 10.288.138 3.475 1.104 10.843 1.657 13.624-1.105 1.112-5.937 4.171-9.941 3.336-2.9-.556-7.318-2.224-8.974-5.004 0-.557 1.518-5.422 1.518-9.037 0-4.727-.414-9.453-.552-13.068-.138-2.502 1.243-5.978 2.21-6.951 1.104-1.112 1.656-1.39 3.589-.973 1.519.139 4.97 2.085 6.075 2.641 2.9 1.251 4.418 4.032 4.418 5.144z"/>
    <path d="M70.386 75.585l.552-3.336 4.694 1.112s-.552 1.807 0 3.336c0 0-3.59-.278-5.246-1.112z"/>
    <path d="M69.281 65.02c.966-2.086 4.556-4.45 8.008-1.252 3.59 3.337 2.209 10.149-.414 10.705-1.381.278-4.004-.417-5.8-2.225-2.07-2.085-2.622-5.56-1.794-7.229z"/>
    <path d="M79.774 63.49s-.138 1.53-1.105 2.503c-1.104.973-3.037 1.668-3.037 1.668s0 .695.138 1.529-.276 1.251-.276 1.251-1.105-1.668-1.795-.278.552 2.086.552 2.086-.414.973-1.104 1.668c-.552.556-1.519 1.112-1.519 1.112s-.828-2.085-2.07-4.032c-1.382-1.946-1.796-3.475-1.796-4.31 0-1.112.415-3.058 2.624-4.031 2.07-1.946 4.418-.834 5.108-.556.552.278 1.933.556 3.037-.14-.138 1.113-.69 1.947-.69 1.947s.829-.139 1.933-.417z"/>
    <path d="M73.837 74.751c1.795 0 3.038.973 3.59 1.668 0 0-2.9 1.808-4.832.973-.967-.417-2.624-1.25-2.9-1.807-.552-.695.967-2.224.967-2.224s.828 1.39 3.175 1.39z"/>
    <path d="M92.2 95.465s.414-.695.552-1.39c.139-.417-.276-.973-.69-.139-.414.695-1.38 1.53-1.38 1.53l-1.795 3.197s2.07 2.085 4.004.834c2.07-1.251.828-3.475.552-3.754-.415-.278-1.243-.278-1.243-.278z"/>
    <path d="M85.02 91.433c-.413-2.78-.966-4.865-1.38-7.507-.69-4.031-2.623-5.839-4.28-6.117 0 0-2.209 2.225-2.347 5.422-.138 3.337.138 6.117 2.071 9.315.69 1.112 2.485 3.753 4.28 4.587 1.657.835 6.213 2.642 7.18 2.642 1.38-.834 2.347-2.92.414-5.144-1.243-.417-4.557-2.641-5.937-3.198z"/>
    <defs>
        <linearGradient id="paint0_linear" x1="48.099" y1="64.129" x2="55.685" y2="50.584" gradientUnits="userSpaceOnUse">
            <stop stop-color="#DEF1F7"/>
            <stop offset="1" stop-color="#B7DDE9"/>
        </linearGradient>
        <linearGradient id="paint1_linear" x1="43.223" y1="61.962" x2="51.892" y2="47.875" gradientUnits="userSpaceOnUse">
            <stop stop-color="#DEF1F7"/>
            <stop offset="1" stop-color="#B7DDE9"/>
        </linearGradient>
        <linearGradient id="paint2_linear" x1="45.932" y1="58.711" x2="51.35" y2="49.5" gradientUnits="userSpaceOnUse">
            <stop stop-color="#DEF1F7"/>
            <stop offset="1" stop-color="#B7DDE9"/>
        </linearGradient>
        <linearGradient id="paint3_linear" x1="29.677" y1="85.26" x2="44.306" y2="82.551" gradientUnits="userSpaceOnUse">
            <stop stop-color="#DEF1F7"/>
            <stop offset="1" stop-color="#B7DDE9"/>
        </linearGradient>
        <linearGradient id="paint4_linear" x1="34.553" y1="50.042" x2="35.637" y2="72.257" gradientUnits="userSpaceOnUse">
            <stop offset=".005" stop-color="#4ED5FF"/>
            <stop offset="1" stop-color="#22ACD7"/>
        </linearGradient>
        <linearGradient id="paint5_linear" x1="68.152" y1="30.133" x2="87.241" y2="30.133" gradientUnits="userSpaceOnUse">
            <stop offset=".005" stop-color="#4ED5FF"/>
            <stop offset="1" stop-color="#22ACD7"/>
        </linearGradient>
        <linearGradient id="paint6_linear" x1="68.997" y1="20.507" x2="86.266" y2="20.507" gradientUnits="userSpaceOnUse">
            <stop stop-color="#1691D6"/>
            <stop offset="1" stop-color="#1680BB"/>
        </linearGradient>
        <linearGradient id="paint7_linear" x1="68.981" y1="19.824" x2="73.401" y2="19.824" gradientUnits="userSpaceOnUse">
            <stop stop-color="#1691D6"/>
            <stop offset="1" stop-color="#1680BB"/>
        </linearGradient>
        <linearGradient id="paint8_linear" x1="81.406" y1="43.458" x2="85.827" y2="43.458" gradientUnits="userSpaceOnUse">
            <stop stop-color="#1691D6"/>
            <stop offset="1" stop-color="#1680BB"/>
        </linearGradient>
        <linearGradient id="paint9_linear" x1="68.979" y1="21.423" x2="72.156" y2="21.423" gradientUnits="userSpaceOnUse">
            <stop stop-color="#1691D6"/>
            <stop offset="1" stop-color="#1680BB"/>
        </linearGradient>
        <linearGradient id="paint10_linear" x1="71.195" y1="31.198" x2="83.5" y2="31.198" gradientUnits="userSpaceOnUse">
            <stop stop-color="#1691D6"/>
            <stop offset="1" stop-color="#1680BB"/>
        </linearGradient>
        <linearGradient id="paint11_linear" x1="90.387" y1="33.343" x2="130.917" y2="33.343" gradientUnits="userSpaceOnUse">
            <stop offset=".005" stop-color="#4ED5FF"/>
            <stop offset="1" stop-color="#22ACD7"/>
        </linearGradient>
        <linearGradient id="paint12_linear" x1="91.49" y1="11.057" x2="99.641" y2="11.057" gradientUnits="userSpaceOnUse">
            <stop stop-color="#1691D6"/>
            <stop offset="1" stop-color="#1680BB"/>
        </linearGradient>
        <linearGradient id="paint13_linear" x1="121.174" y1="28.435" x2="129.325" y2="28.435" gradientUnits="userSpaceOnUse">
            <stop stop-color="#1691D6"/>
            <stop offset="1" stop-color="#1680BB"/>
        </linearGradient>
        <linearGradient id="paint14_linear" x1="100.472" y1="24.964" x2="114.563" y2="24.964" gradientUnits="userSpaceOnUse">
            <stop stop-color="#1691D6"/>
            <stop offset="1" stop-color="#1680BB"/>
        </linearGradient>
        <linearGradient id="paint15_linear" x1="109.3" y1="24.118" x2="117.451" y2="24.118" gradientUnits="userSpaceOnUse">
            <stop stop-color="#1691D6"/>
            <stop offset="1" stop-color="#1680BB"/>
        </linearGradient>
        <linearGradient id="paint16_linear" x1="109.991" y1="41.079" x2="118.141" y2="41.079" gradientUnits="userSpaceOnUse">
            <stop stop-color="#1691D6"/>
            <stop offset="1" stop-color="#1680BB"/>
        </linearGradient>
        <linearGradient id="paint17_linear" x1="113.434" y1="41.026" x2="114.815" y2="41.026" gradientUnits="userSpaceOnUse">
            <stop stop-color="#1691D6"/>
            <stop offset="1" stop-color="#1680BB"/>
        </linearGradient>
        <linearGradient id="paint18_linear" x1="119.096" y1="35.671" x2="121.859" y2="35.671" gradientUnits="userSpaceOnUse">
            <stop stop-color="#1691D6"/>
            <stop offset="1" stop-color="#1680BB"/>
        </linearGradient>
        <linearGradient id="paint19_linear" x1="100.481" y1="44.827" x2="121.065" y2="44.827" gradientUnits="userSpaceOnUse">
            <stop stop-color="#1691D6"/>
            <stop offset="1" stop-color="#1680BB"/>
        </linearGradient>
        <linearGradient id="paint20_linear" x1="107.644" y1="62.73" x2="115.933" y2="62.73" gradientUnits="userSpaceOnUse">
            <stop stop-color="#1691D6"/>
            <stop offset="1" stop-color="#1680BB"/>
        </linearGradient>
        <linearGradient id="paint21_linear" x1="109.843" y1="58.217" x2="113.439" y2="58.217" gradientUnits="userSpaceOnUse">
            <stop stop-color="#1691D6"/>
            <stop offset="1" stop-color="#1680BB"/>
        </linearGradient>
        <linearGradient id="paint22_linear" x1="121.029" y1="80.527" x2="134.586" y2="80.527" gradientUnits="userSpaceOnUse">
            <stop offset=".005" stop-color="#4ED5FF"/>
            <stop offset="1" stop-color="#22ACD7"/>
        </linearGradient>
        <linearGradient id="paint23_linear" x1="121.995" y1="80.595" x2="133.476" y2="80.595" gradientUnits="userSpaceOnUse">
            <stop offset=".005" stop-color="#4ED5FF"/>
            <stop offset="1" stop-color="#22ACD7"/>
        </linearGradient>
        <linearGradient id="paint24_linear" x1="124.348" y1="72.095" x2="131.117" y2="72.095" gradientUnits="userSpaceOnUse">
            <stop stop-color="#1691D6"/>
            <stop offset="1" stop-color="#1680BB"/>
        </linearGradient>
        <linearGradient id="paint25_linear" x1="124.348" y1="73.485" x2="131.117" y2="73.485" gradientUnits="userSpaceOnUse">
            <stop stop-color="#1691D6"/>
            <stop offset="1" stop-color="#1680BB"/>
        </linearGradient>
        <linearGradient id="paint26_linear" x1="123.378" y1="78.974" x2="127.799" y2="78.974" gradientUnits="userSpaceOnUse">
            <stop stop-color="#1691D6"/>
            <stop offset="1" stop-color="#1680BB"/>
        </linearGradient>
        <linearGradient id="paint27_linear" x1="128.76" y1="87.388" x2="131.247" y2="87.388" gradientUnits="userSpaceOnUse">
            <stop stop-color="#1691D6"/>
            <stop offset="1" stop-color="#1680BB"/>
        </linearGradient>
        <linearGradient id="paint28_linear" x1="115.518" y1="97.938" x2="127.952" y2="97.938" gradientUnits="userSpaceOnUse">
            <stop stop-color="#1691D6"/>
            <stop offset="1" stop-color="#1680BB"/>
        </linearGradient>
        <linearGradient id="paint29_linear" x1="109.43" y1="89.762" x2="117.592" y2="89.762" gradientUnits="userSpaceOnUse">
            <stop offset=".005" stop-color="#4ED5FF"/>
            <stop offset="1" stop-color="#22ACD7"/>
        </linearGradient>
        <linearGradient id="paint30_linear" x1="75.746" y1="82.38" x2="69.504" y2="82.38" gradientUnits="userSpaceOnUse">
            <stop stop-color="#3A2BAA"/>
            <stop offset="1" stop-color="#2F1784"/>
        </linearGradient>
        <linearGradient id="paint31_linear" x1="84.4" y1="100.214" x2="92.528" y2="87.211" gradientUnits="userSpaceOnUse">
            <stop stop-color="#DEF1F7"/>
            <stop offset="1" stop-color="#B7DDE9"/>
        </linearGradient>
        <linearGradient id="paint32_linear" x1="84.4" y1="100.215" x2="92.528" y2="87.211" gradientUnits="userSpaceOnUse">
            <stop stop-color="#DEF1F7"/>
            <stop offset="1" stop-color="#B7DDE9"/>
        </linearGradient>
        <linearGradient id="paint33_linear" x1="84.315" y1="123.073" x2="63.289" y2="123.073" gradientUnits="userSpaceOnUse">
            <stop stop-color="#1680BB"/>
            <stop offset="1" stop-color="#066EA9"/>
        </linearGradient>
        <linearGradient id="paint34_linear" x1="64.353" y1="102.382" x2="77.898" y2="81.793" gradientUnits="userSpaceOnUse">
            <stop stop-color="#DEF1F7"/>
            <stop offset="1" stop-color="#B7DDE9"/>
        </linearGradient>
    </defs>
</svg>
