<svg width="24" height="24" xmlns="http://www.w3.org/2000/svg">
    <path d="M15.6 12a3.6 3.6 0 01-7.2 0c0-.205.022-.406.059-.6H7.2v4.796c0 .334.27.604.604.604h8.394a.604.604 0 00.602-.604V11.4h-1.259c.037.194.059.395.059.6zM12 14.4a2.401 2.401 0 10-.002-4.803A2.401 2.401 0 0012 14.4zm2.88-4.92h1.439a.361.361 0 00.361-.36V7.681a.361.361 0 00-.361-.361H14.88a.361.361 0 00-.361.361V9.12c.001.198.163.36.361.36zM12 .48a11.52 11.52 0 100 23.04A11.52 11.52 0 0012 .48zm6 16.187C18 17.4 17.4 18 16.667 18H7.333C6.6 18 6 17.4 6 16.667V7.333C6 6.6 6.6 6 7.333 6h9.334C17.4 6 18 6.6 18 7.333v9.334z"/>
</svg>
