<svg width="125" height="30" xmlns="http://www.w3.org/2000/svg">
    <g clip-path="url(#clip0)">
        <path d="M56.453 11.969c4.507 0 7.767 3.19 7.767 7.493 0 .291-.042.821-.083 1.112a.78.78 0 01-.777.702H51.015c.167 2.74 2.705 5.322 5.743 5.322 1.803 0 3.26-.648 4.244-1.231.596-.331.86-.53 1.207-.08.263.332.471.61.735.94.305.371.471.61-.167 1.06-1.026.78-3.342 1.88-6.297 1.88-5.187 0-8.405-3.893-8.405-8.593-.028-4.634 3.19-8.605 8.377-8.605zm4.799 7.003c-.125-2.37-2.192-4.501-4.8-4.501-2.87 0-5.104 1.96-5.409 4.501h10.209zM68.797.874c0-.41.389-.781.818-.781h1.332c.43 0 .818.37.818.78v12.155s1.762-1.06 4.591-1.06c5.146 0 8.24 3.76 8.24 8.553 0 4.714-3.427 8.633-7.81 8.633-3.218 0-5.27-2.172-5.27-2.172l-.264 1.1c-.083.37-.347.648-.735.648h-.902c-.43 0-.818-.37-.818-.781V.874zm7.67 25.711c3.135 0 5.105-2.82 5.105-6.01 0-3.27-1.887-5.853-5.618-5.853-2.358 0-4.16.98-4.16.98v8.182s1.594 2.701 4.673 2.701zM88.687 6.858c0-1.099.902-1.96 2.011-1.96 1.152 0 2.053.861 2.053 1.96 0 1.06-.901 1.92-2.053 1.92-1.11 0-2.01-.86-2.01-1.92zm.597 6.302c0-.41.388-.781.818-.781h1.332c.43 0 .818.37.818.781v14.815c0 .41-.388.781-.818.781h-1.332c-.43 0-.818-.37-.818-.78V13.16zM98.188 13.16c0-.41.389-.78.819-.78h.818c.389 0 .597.158.68.489l.388 1.27s2.011-2.17 5.576-2.17c2.524 0 4.369.94 5.493 2.66.208-.158 2.954-2.66 6.394-2.66 4.979 0 6.644 3.11 6.644 7.36v8.633c0 .41-.389.781-.818.781h-1.374c-.43 0-.818-.37-.818-.781V19.33c0-3.072-1.373-4.62-3.856-4.62-2.788 0-4.633 1.76-5.229 2.29.125.701.208 1.47.208 2.33v8.632c0 .41-.388.781-.818.781h-1.374c-.43 0-.818-.37-.818-.781V19.33c0-3.111-1.456-4.62-4.078-4.62-3.037 0-4.882 2.33-4.882 2.33v10.922c0 .41-.389.781-.819.781h-1.331c-.43 0-.818-.37-.818-.781V13.16h.013zM45.703 0c-.5 0-.902.331-1.054.781l-.056.238-.54 2.556a75.729 75.729 0 01-.583 2.634l-.097.45a211.144 211.144 0 01-1.554 6.342 84.624 84.624 0 01-1.9 6.316 27.626 27.626 0 01-1.193 2.952c-.222.463-.444.9-.693 1.284-.25.384-1.082 2.066-2.345.172a16.312 16.312 0 01-.748-1.231c-1-1.88-1.887-4.17-2.65-6.156l-.569-1.483c-.582-1.536-1.178-3.112-1.844-4.687l-.208-.477a40.263 40.263 0 00-1.61-3.35 17.714 17.714 0 00-1.053-1.667c-.375-.504-.833-1.073-1.54-1.59-.388-.264-.763-.463-1.151-.568a2.897 2.897 0 00-1.387-.053 3.488 3.488 0 00-1.235.542c-.374.252-.652.53-.915.808a9.708 9.708 0 00-1.207 1.721s3.384-.45 5.41 2.847c.027.04.041.066.069.106.055.105.125.211.18.317.402.795.874 1.708 1.387 2.926.61 1.457 1.193 2.953 1.803 4.541l.75 1.947c.388.992.86 2.17 1.359 3.336.388.914.929 2.132 1.609 3.336.263.45.61 1.06 1.054 1.655.36.49.832 1.073 1.498 1.589.36.265.721.463 1.096.596.43.159.915.212 1.345.145a3.17 3.17 0 001.262-.45c.347-.212.68-.476.943-.754.583-.596.957-1.205 1.276-1.735.306-.53.597-1.099.874-1.734a35.23 35.23 0 001.276-3.442c.75-2.344 1.29-4.634 1.762-6.78.43-1.919.832-4.01 1.29-6.58l.097-.529c.152-.9.305-1.774.444-2.687l.402-2.74.056-.372v-.026C46.798.49 46.313 0 45.703 0z"/>
        <path d="M19.598 5.508c-.291.516-.555 1.112-.846 1.76-.25.57-.471 1.152-.68 1.708l-.568 1.695a37.678 37.678 0 01-1.054 2.979c-.389.98-.819 1.867-1.263 2.648-.346.596-.873 1.417-1.511 1.973-.57.476-1.069.675-1.651.675-.569-.014-1.248-.305-1.914-.834-.527-.41-1.082-.98-1.734-1.788a26.765 26.765 0 01-1.526-2.17 58.756 58.756 0 01-2.524-4.635C2.773 6.342 1.76 3.601.859 1.284a.447.447 0 00-.263-.278A.726.726 0 00.429.98c-.125 0-.236.026-.319.106-.07.08-.138.185-.11.317.027.093.04.173.069.265.638 2.41 1.54 5.521 2.83 8.924.54 1.403 1.29 3.27 2.274 5.15.5.953.999 1.8 1.526 2.581.652.98 1.304 1.748 2.025 2.41.444.41.887.728 1.345.993.569.318 1.11.516 1.637.596a4.026 4.026 0 001.817-.133 5.494 5.494 0 001.65-.86c1.096-.834 1.845-1.88 2.386-2.701.569-.874 1.082-1.827 1.65-3.111.43-.98.86-2.052 1.29-3.284l.556-1.509c.194-.503.402-.966.596-1.43.985-2.45 2.302-2.555 3.357-.887-2.067-3.654-5.41-2.9-5.41-2.9z"/>
    </g>
    <defs>
        <linearGradient id="paint0_linear" x1="-.001" y1="11.675" x2="25.014" y2="11.675" gradientUnits="userSpaceOnUse">
            <stop stop-color="#919698"/>
            <stop offset="1" stop-color="#919698"/>
        </linearGradient>
        <clipPath id="clip0">
            <path d="M0 0h125v29.167H0z"/>
        </clipPath>
    </defs>
</svg>
