<svg width="191" height="45" xmlns="http://www.w3.org/2000/svg">
    <g clip-path="url(#clip0)">
        <path d="M86.26 18.457c6.887 0 11.868 4.92 11.868 11.555 0 .45-.064 1.266-.127 1.715a1.197 1.197 0 01-1.187 1.082H77.951c.255 4.227 4.133 8.208 8.775 8.208 2.755 0 4.98-1 6.485-1.899.911-.51 1.314-.817 1.844-.122.403.51.72.939 1.123 1.45.466.57.72.938-.254 1.633-1.569 1.204-5.108 2.899-9.622 2.899-7.927 0-12.844-6.003-12.844-13.25-.042-7.146 4.875-13.271 12.801-13.271zm7.332 10.8c-.19-3.655-3.348-6.942-7.333-6.942-4.387 0-7.799 3.022-8.265 6.942h15.599zM105.122 1.348c0-.633.593-1.205 1.25-1.205h2.035c.657 0 1.25.572 1.25 1.205V20.09s2.692-1.633 7.016-1.633c7.863 0 12.589 5.798 12.589 13.189 0 7.268-5.235 13.311-11.932 13.311-4.917 0-8.054-3.348-8.054-3.348l-.403 1.694c-.127.572-.53 1-1.123 1h-1.378c-.657 0-1.25-.57-1.25-1.204V1.348zm11.72 39.648c4.79 0 7.8-4.348 7.8-9.269 0-5.043-2.883-9.024-8.584-9.024-3.603 0-6.358 1.511-6.358 1.511v12.617s2.437 4.165 7.142 4.165zM135.514 10.576c0-1.695 1.378-3.022 3.073-3.022 1.759 0 3.137 1.327 3.137 3.022 0 1.633-1.378 2.96-3.137 2.96-1.695 0-3.073-1.327-3.073-2.96zm.911 9.718c0-.633.594-1.204 1.251-1.204h2.035c.657 0 1.25.571 1.25 1.204V43.14c0 .633-.593 1.205-1.25 1.205h-2.035c-.657 0-1.251-.572-1.251-1.205V20.294zM150.032 20.294c0-.633.593-1.204 1.25-1.204h1.251c.593 0 .911.245 1.038.755l.594 1.96s3.073-3.348 8.52-3.348c3.857 0 6.676 1.45 8.393 4.103.317-.245 4.514-4.103 9.77-4.103 7.609 0 10.152 4.797 10.152 11.351V43.12c0 .633-.594 1.204-1.251 1.204h-2.098c-.657 0-1.25-.571-1.25-1.204V29.808c0-4.736-2.098-7.125-5.892-7.125-4.26 0-7.079 2.715-7.99 3.532.19 1.082.318 2.266.318 3.593V43.12c0 .633-.594 1.204-1.251 1.204h-2.098c-.657 0-1.25-.571-1.25-1.204V29.808c0-4.798-2.226-7.125-6.231-7.125-4.642 0-7.461 3.593-7.461 3.593V43.12c0 .633-.593 1.204-1.25 1.204h-2.035c-.657 0-1.25-.571-1.25-1.204V20.294h.021zM69.834 0c-.763 0-1.377.51-1.61 1.205l-.086.367-.826 3.94a117.63 117.63 0 01-.89 4.063l-.148.695a327.73 327.73 0 01-2.374 9.779c-.89 3.47-1.886 6.758-2.904 9.739-.593 1.735-1.208 3.266-1.823 4.552-.339.715-.678 1.389-1.06 1.98-.38.593-1.652 3.186-3.581.266-.34-.51-.72-1.123-1.144-1.898-1.526-2.9-2.883-6.432-4.048-9.494l-.87-2.287c-.89-2.368-1.801-4.798-2.818-7.227l-.318-.735c-.657-1.531-1.463-3.328-2.459-5.166-.55-1-1.08-1.817-1.61-2.572-.573-.776-1.272-1.654-2.353-2.45-.593-.408-1.166-.715-1.76-.878a4.388 4.388 0 00-2.119-.082 5.304 5.304 0 00-1.886.838c-.572.387-.996.816-1.398 1.245-.827.94-1.4 1.858-1.844 2.654 0 0 5.17-.694 8.265 4.39.043.06.064.102.106.163.085.163.191.327.276.49.614 1.225 1.335 2.634 2.12 4.512.932 2.246 1.822 4.553 2.754 7.003l1.145 3.001a177.176 177.176 0 002.077 5.145c.593 1.409 1.42 3.287 2.458 5.145.403.694.933 1.633 1.611 2.552.551.755 1.272 1.654 2.289 2.45a6.455 6.455 0 001.674.919 4.197 4.197 0 002.056.224 4.816 4.816 0 001.929-.694 7.21 7.21 0 001.441-1.164c.89-.918 1.462-1.858 1.95-2.674.466-.817.911-1.695 1.335-2.675a54.643 54.643 0 001.95-5.308c1.144-3.614 1.971-7.146 2.692-10.453.657-2.96 1.271-6.186 1.97-10.147l.149-.817c.233-1.388.466-2.736.678-4.144l.615-4.227.085-.571v-.041C71.508.755 70.767 0 69.834 0z"/>
        <path d="M29.946 8.493c-.445.797-.848 1.715-1.293 2.716-.381.878-.72 1.776-1.038 2.633l-.87 2.614a58.453 58.453 0 01-1.61 4.593 32.755 32.755 0 01-1.929 4.084c-.53.918-1.335 2.184-2.31 3.042-.869.735-1.632 1.041-2.522 1.041-.869-.02-1.907-.47-2.925-1.286-.805-.633-1.653-1.511-2.649-2.756a41.307 41.307 0 01-2.331-3.349A90.853 90.853 0 016.61 14.68c-2.373-4.9-3.92-9.127-5.298-12.7a.686.686 0 00-.403-.428 1.1 1.1 0 00-.254-.041c-.19 0-.36.04-.488.163-.106.123-.211.286-.17.49.043.143.064.266.107.409.975 3.715 2.352 8.513 4.323 13.76.827 2.164 1.971 5.043 3.476 7.942a41.545 41.545 0 002.332 3.981c.996 1.511 1.992 2.695 3.094 3.716a11.384 11.384 0 002.056 1.531c.869.49 1.695.797 2.5.92a6.1 6.1 0 002.777-.205c.848-.265 1.674-.694 2.522-1.327 1.674-1.286 2.819-2.9 3.645-4.165.87-1.348 1.654-2.817 2.523-4.798a69.766 69.766 0 001.97-5.063l.848-2.328c.297-.775.615-1.49.912-2.205 1.504-3.777 3.518-3.94 5.129-1.368-3.158-5.634-8.266-4.47-8.266-4.47z"/>
    </g>
    <defs>
        <linearGradient id="paint0_linear" x1="-.001" y1="18.004" x2="38.221" y2="18.004" gradientUnits="userSpaceOnUse">
            <stop stop-color="#28E2FF"/>
            <stop offset="1" stop-color="#2E3192"/>
        </linearGradient>
        <clipPath id="clip0">
            <path d="M0 0h191v44.977H0z"/>
        </clipPath>
    </defs>
</svg>
