<svg width="168" height="36" xmlns="http://www.w3.org/2000/svg">
    <g clip-path="url(#clip0)">
        <path d="M37.086 13.883a4.441 4.441 0 00-1.952-.423c-.65.047-1.255-.33-1.58-.942L31.37 8.707c-.326-.565-.28-1.318.046-1.883.465-.8.697-1.74.604-2.776C31.834 1.93 30.115.189 28.023 0a4.427 4.427 0 00-4.321 2.212c-.326.564-.93.94-1.58.94h-4.276c-.65 0-1.255-.376-1.58-.94A4.47 4.47 0 0011.944 0C9.853.236 8.18 1.977 7.947 4.095a4.631 4.631 0 00.604 2.776c.326.565.372 1.27.047 1.883L6.46 12.565c-.325.612-.976.942-1.673.942-.372 0-.79 0-1.208.094-1.766.376-3.16 1.835-3.44 3.623-.464 2.824 1.674 5.318 4.416 5.318h.093c.65 0 1.3.33 1.626.894l2.23 3.906c.326.565.28 1.27-.046 1.882a4.56 4.56 0 00-.604 2.73C8.04 34.07 9.76 35.765 11.804 36c1.813.188 3.486-.706 4.322-2.165.326-.565.93-.941 1.58-.941h4.369c.65 0 1.255.376 1.58.941a4.42 4.42 0 003.95 2.212c2.324-.047 4.322-2.024 4.369-4.377.093-2.54-1.952-4.659-4.462-4.659-1.766 0-3.3 1.036-4.043 2.589-.279.611-.93.988-1.626.988h-3.95a1.82 1.82 0 01-1.627-.988c-.697-1.506-2.277-2.588-4.043-2.588h-.233c-.65.047-1.3-.33-1.626-.895l-2.138-3.764c-.325-.612-.279-1.365.047-1.93 0-.047.046-.047.046-.094.325-.565.93-.941 1.58-.941l4.462-.047a1.82 1.82 0 011.626.988c.79 1.365 2.23 2.259 3.857 2.259 1.673 0 3.114-.941 3.904-2.306a1.82 1.82 0 011.627-.988h5.576c.511 1.93 2.231 3.294 4.322 3.294 2.65 0 4.74-2.306 4.462-5.035-.186-1.647-1.255-3.012-2.65-3.67zM19.89 13.46c-1.766 0-3.253 1.035-3.997 2.494-.279.611-.93.94-1.58.94l-4.183.048a1.82 1.82 0 01-1.626-.988l-.14-.283c-.325-.564-.371-1.223-.046-1.788l2.23-3.953c.326-.612.977-.941 1.627-.941h.186c1.766 0 3.253-1.035 3.997-2.541.279-.612.93-.988 1.58-.988h3.997c.65 0 1.3.376 1.58.988.743 1.506 2.23 2.541 3.996 2.541h.186c.697-.047 1.302.33 1.627.941l2.091 3.718c.325.612.372 1.317 0 1.882a3.83 3.83 0 00-.511 1.27H25.42c-.697 0-1.301-.423-1.627-1.035-.743-1.317-2.23-2.305-3.903-2.305z"/>
        <path d="M59.904 12.47c.418 0 .743-.046 1.022-.282.279-.235.372-.565.372-.94 0-.425-.14-.707-.418-.99a1.49 1.49 0 00-.976-.376h-7.622c-.418 0-.743.142-.976.424a1.363 1.363 0 00-.418.988V24.66c0 .423.14.753.418.988.28.282.604.424.976.424h7.622c.418 0 .743-.142.976-.377.278-.235.418-.565.418-.941 0-.377-.14-.659-.418-.941a1.33 1.33 0 00-.976-.424h-6.181v-4.282h5.158a1.52 1.52 0 001.023-.377c.279-.235.371-.564.371-.94 0-.424-.139-.707-.418-.989a1.49 1.49 0 00-.976-.377h-5.158v-3.952h6.18zm17.892 1.036c-.883 0-1.72.282-2.417.8-.697.518-1.255 1.13-1.58 1.741-.511-1.694-1.766-2.541-3.671-2.541-.79 0-1.487.188-2.091.612a5.124 5.124 0 00-1.58 1.411v-.376c0-.424-.14-.753-.372-.988a1.33 1.33 0 00-.976-.424c-.418 0-.744.141-.976.424-.28.282-.372.612-.372.988v9.553c0 .423.14.753.372.988.279.283.604.424.976.424.418 0 .743-.141.976-.424.279-.282.371-.612.371-.988v-5.93c0-.8.233-1.458.697-1.976.465-.518 1.162-.753 1.999-.753.836 0 1.394.235 1.72.706.325.47.51 1.13.51 2.023v5.93c0 .423.14.753.372.988.28.283.605.424.976.424.419 0 .744-.141.976-.424.28-.282.372-.612.372-.988v-5.93c0-.8.232-1.458.697-1.976.465-.518 1.162-.753 1.998-.753.837 0 1.395.235 1.72.706.325.47.511 1.13.511 2.023v5.93c0 .423.14.753.372.988.279.283.604.424.976.424.418 0 .743-.141.976-.424.279-.282.372-.612.372-.988v-5.93c0-1.647-.28-2.917-.883-3.858-.465-.941-1.534-1.412-3.021-1.412zm16.358.8c-.836-.565-1.812-.8-2.834-.8-.698 0-1.395.188-2.045.518-.65.329-1.162.753-1.534 1.223v-.094c0-.424-.14-.753-.372-.988a1.33 1.33 0 00-.976-.424c-.418 0-.743.141-.976.424-.278.282-.371.612-.371.988v14.165c0 .423.14.753.371 1.035.28.282.605.376.976.376.419 0 .744-.14.976-.423.28-.283.372-.612.372-.988V24.8c.418.424.976.8 1.627 1.082.65.283 1.347.471 2.044.471a5.213 5.213 0 002.789-.8c.836-.565 1.487-1.318 1.998-2.306a7.67 7.67 0 00.744-3.341c0-1.224-.233-2.353-.744-3.294a6.132 6.132 0 00-2.045-2.306zm-.79 8.376c-.604.753-1.44 1.13-2.416 1.13s-1.813-.377-2.417-1.13c-.604-.753-.93-1.647-.93-2.776 0-1.13.326-2.024.93-2.777.604-.753 1.44-1.082 2.417-1.082.976 0 1.812.377 2.416 1.082.605.753.93 1.647.93 2.777 0 1.082-.325 2.023-.93 2.776zm12.548-9.176c-.79 0-1.487.188-2.091.612a5.115 5.115 0 00-1.58 1.411V10.4c0-.424-.14-.753-.372-.988a1.33 1.33 0 00-.976-.424c-.418 0-.744.141-.976.424-.279.282-.372.611-.372.988v14.306c0 .423.14.753.372.988.279.283.604.424.976.424.418 0 .744-.141.976-.424.279-.282.372-.612.372-.988v-5.93c0-.8.232-1.458.697-1.976.465-.518 1.162-.753 1.998-.753.837 0 1.394.235 1.72.706.325.47.511 1.13.511 2.023v5.93c0 .423.139.753.372.988.278.283.604.424.976.424.371 0 .743-.141.975-.424.279-.282.372-.612.372-.988v-5.93c0-1.647-.279-2.917-.883-3.858-.511-.941-1.533-1.412-3.067-1.412zm17.149 0c-.419 0-.744.141-.976.423-.279.283-.372.612-.372.989-.418-.424-.976-.753-1.627-1.036a4.972 4.972 0 00-2.044-.423 5.216 5.216 0 00-2.789.8c-.836.564-1.487 1.317-1.998 2.306a7.666 7.666 0 00-.744 3.34c0 1.224.233 2.354.744 3.295.511.988 1.162 1.741 1.998 2.259.837.564 1.813.8 2.835.8a4.49 4.49 0 002.045-.47c.65-.33 1.162-.707 1.533-1.13 0 .423.14.753.419.988.232.282.557.377.976.377.418 0 .743-.142.976-.424.278-.282.371-.612.371-.988v-9.694c0-.424-.139-.753-.371-1.036-.279-.282-.605-.376-.976-.376zm-2.185 9.176c-.604.753-1.44 1.083-2.416 1.083s-1.813-.377-2.417-1.083c-.604-.753-.929-1.647-.929-2.776 0-1.13.325-2.024.929-2.777.604-.753 1.441-1.129 2.417-1.129.976 0 1.812.377 2.416 1.13.605.752.93 1.646.93 2.776s-.325 2.023-.93 2.776zm14.5-4.47c-.697-.33-1.58-.659-2.649-.988-1.255-.424-2.184-.848-2.881-1.318-.651-.47-1.023-1.177-1.023-2.07 0-.848.372-1.554 1.069-2.024.697-.518 1.627-.753 2.696-.753.743 0 1.44.141 2.137.47.697.33 1.209.706 1.627 1.224a.524.524 0 00.372.141.743.743 0 00.511-.235c.139-.141.232-.283.232-.47 0-.189-.093-.424-.325-.66-.465-.564-1.115-1.035-1.952-1.364-.836-.33-1.673-.47-2.602-.47-1.023 0-1.906.187-2.696.564-.79.376-1.394.847-1.812 1.506a3.824 3.824 0 00-.651 2.164c0 .894.186 1.647.604 2.26.418.611.93 1.082 1.627 1.411.65.377 1.487.659 2.463.988.883.283 1.626.565 2.231.847a4.654 4.654 0 011.394 1.083c.372.423.557.988.557 1.647 0 .847-.371 1.553-1.068 2.07-.744.518-1.627.8-2.742.8-1.766 0-3.253-.659-4.462-1.976a.741.741 0 00-.511-.236c-.186 0-.325.095-.511.236a.758.758 0 00-.233.517c0 .236.093.424.279.565.79.8 1.627 1.365 2.463 1.741.837.377 1.813.565 2.928.565 1.023 0 1.906-.188 2.742-.565.79-.376 1.441-.894 1.859-1.506.465-.658.651-1.364.651-2.117 0-1.035-.233-1.835-.651-2.447-.418-.8-.976-1.27-1.673-1.6zm13.338-3.389a5.703 5.703 0 00-2.928-.8 5.703 5.703 0 00-2.928.8c-.883.518-1.58 1.271-2.091 2.212-.511.942-.744 1.977-.744 3.153 0 1.177.233 2.212.744 3.153.511.941 1.208 1.694 2.091 2.212.883.518 1.859.8 2.928.8a5.703 5.703 0 002.928-.8c.883-.518 1.58-1.27 2.091-2.212.511-.941.744-1.976.744-3.153 0-1.176-.233-2.211-.744-3.153-.511-.94-1.208-1.694-2.091-2.212zm.883 7.86c-.372.752-.93 1.317-1.58 1.74a4.2 4.2 0 01-2.231.612c-.837 0-1.58-.235-2.231-.659-.65-.423-1.208-.988-1.58-1.74-.372-.754-.604-1.554-.604-2.495 0-.941.186-1.741.604-2.494.372-.753.93-1.318 1.58-1.741a4.016 4.016 0 012.231-.659c.836 0 1.58.235 2.231.659a4.074 4.074 0 011.58 1.741c.371.753.557 1.553.557 2.494.047.941-.139 1.788-.557 2.541zm9.759-13.412c-.372-.142-.744-.189-1.208-.189-.93 0-1.673.283-2.231.8-.558.518-.836 1.271-.836 2.26v2.4h-1.674a.592.592 0 00-.464.187c-.14.095-.186.283-.186.471s.046.33.186.47a.592.592 0 00.464.189h1.674v9.553c0 .188.046.376.185.517.14.142.279.189.512.189.186 0 .371-.047.511-.189.139-.14.186-.282.186-.517v-9.6h2.556a.59.59 0 00.464-.188.606.606 0 00.186-.471.606.606 0 00-.186-.47.59.59 0 00-.464-.189h-2.556v-2.4c0-.565.139-1.035.418-1.365.279-.329.651-.47 1.115-.47.186 0 .465.047.79.141.186.094.372.094.512.094a.565.565 0 00.418-.188.61.61 0 00.186-.47c-.047-.236-.186-.424-.558-.565zm7.993 6.352a.593.593 0 00.465-.188c.14-.094.186-.282.186-.47a.606.606 0 00-.186-.47.593.593 0 00-.465-.19h-2.277v-2.54c0-.189-.046-.377-.186-.518-.139-.141-.279-.188-.511-.188-.186 0-.372.047-.511.188-.139.141-.186.282-.186.518v2.588h-1.673a.594.594 0 00-.465.188.61.61 0 00-.186.47c0 .189.047.33.186.471.14.142.279.189.465.189h1.673v7.811c0 .847.139 1.46.465 1.836.279.376.604.611.929.705.326.095.697.095 1.116.095.325 0 .604-.095.883-.236.232-.14.371-.329.371-.564a.765.765 0 00-.139-.424c-.093-.094-.232-.188-.372-.188-.093 0-.186 0-.325.047-.14.047-.233.047-.325.047-.372 0-.651-.094-.837-.33-.232-.188-.325-.611-.325-1.176v-7.67h2.23z"/>
    </g>
    <defs>
        <linearGradient id="paint0_linear" x1="6.318" y1="31.833" x2="33.912" y2="4.582" gradientUnits="userSpaceOnUse">
            <stop stop-color="#0090C6"/>
            <stop offset="1" stop-color="#1EDDD6"/>
        </linearGradient>
        <clipPath id="clip0">
            <path d="M0 0h168v36H0z"/>
        </clipPath>
    </defs>
</svg>
