<svg width="161" height="160" viewBox="0 0 161 160" fill="none" xmlns="http://www.w3.org/2000/svg">
<g clip-path="url(#clip0)">
<path opacity="0.4" d="M160.281 106.036L108.794 77.9797L68.0327 101.461L63.2823 82.4016L0.761826 117.471L2.60066 118.539H48.7249L92.5505 143.697C93.1635 144.002 96.6879 144.002 97.3008 143.697L160.434 107.408C160.894 107.103 160.894 106.34 160.281 106.036Z" fill="#27C6F7"/>
<path d="M99.7526 21.2581C99.4461 21.2581 99.1396 21.2581 98.9864 21.4106L36.7724 57.2427L37.2321 57.3952L99.4461 21.5631C99.7526 21.4106 100.059 21.4106 100.212 21.4106L99.7526 21.2581Z" fill="#C0B9C8"/>
<path d="M49.9507 115.032L36.3127 59.8348L35.8529 59.6824L49.491 114.879C49.6442 115.489 49.9507 115.946 50.4104 115.946L50.8701 116.099C50.4104 116.099 50.1039 115.641 49.9507 115.032Z" fill="#B9C3C8"/>
<path d="M37.232 57.2427L36.7723 57.0903C36.0061 57.5477 35.5464 58.615 35.8529 59.6824L36.3126 59.8349C36.0061 58.92 36.4658 57.7002 37.232 57.2427Z" fill="#E0DBE1"/>
<path d="M114.923 77.827L101.132 22.4778C100.825 21.5629 100.059 21.1055 99.2927 21.5629L37.2319 57.2426C36.4657 57.7 36.006 58.7673 36.3125 59.8347L49.9505 115.031C50.257 115.946 51.0232 116.404 51.7894 115.946L114.003 80.2666C114.616 79.8092 115.076 78.7418 114.923 77.827Z" fill="#282525"/>
<path d="M112.165 73.5577L99.7526 23.2403L37.6918 58.9199L50.104 109.237L112.165 73.5577Z" fill="#1684C2"/>
<path d="M51.1764 115.336V117.014C51.1764 117.318 51.3296 117.623 51.7893 117.776L95.4618 142.935C96.2279 143.392 97.4538 143.392 98.22 142.935L159.974 107.255C160.281 107.103 160.587 106.798 160.587 106.493V104.815L51.1764 115.336Z" fill="url(#paint0_linear)"/>
<path d="M159.821 103.901L116.149 78.7419C115.383 78.2844 114.157 78.2844 113.39 78.7419L51.6361 114.574C50.8699 115.031 50.8699 115.794 51.6361 116.099L95.3085 141.257C96.0747 141.715 97.3006 141.715 98.0668 141.257L159.821 105.578C160.587 104.968 160.587 104.358 159.821 103.901Z" fill="url(#paint1_linear)"/>
<path d="M109.406 86.3658C109.406 86.2133 109.406 86.2133 109.406 86.2133C109.406 86.0608 109.406 85.9083 109.559 85.9083L112.47 84.2311C112.777 84.0786 113.236 84.0786 113.543 84.2311L115.995 85.6034C116.148 85.7558 116.148 85.7559 116.148 85.9083C116.148 85.9083 116.148 85.9083 116.148 86.0608C116.148 86.0608 116.148 86.0608 116.148 86.2133C116.148 86.3658 116.148 86.5182 115.995 86.5182L113.083 88.1955C112.777 88.348 112.317 88.348 112.011 88.1955L109.559 86.8232C109.406 86.6707 109.406 86.5182 109.406 86.3658ZM114.156 84.0786L116.608 85.4509C116.914 85.6034 117.374 85.6034 117.68 85.4509L120.592 83.7736C120.745 83.6212 120.745 83.6212 120.745 83.4687C120.745 83.4687 120.745 83.4687 120.745 83.3162C120.745 83.3162 120.745 83.3162 120.745 83.1637C120.745 83.0113 120.745 82.8588 120.592 82.8588L118.14 81.4865C117.834 81.334 117.374 81.334 117.067 81.4865L114.156 83.1637C114.003 83.3162 114.003 83.3162 114.003 83.4687C114.003 83.4687 114.003 83.4687 114.003 83.6212C114.003 83.6212 114.003 83.6212 114.003 83.7736C114.003 83.9261 114.003 83.9261 114.156 84.0786ZM104.962 89.4153L107.413 90.7876C107.72 90.9401 108.18 90.9401 108.486 90.7876L111.398 89.1103C111.551 88.9579 111.551 88.9579 111.551 88.8054C111.551 88.8054 111.551 88.8054 111.551 88.6529C111.551 88.6529 111.551 88.6529 111.551 88.5004C111.551 88.348 111.551 88.1955 111.398 88.1955L108.793 86.8232C108.486 86.6707 108.026 86.6707 107.72 86.8232L104.962 88.5004C104.808 88.6529 104.808 88.6529 104.808 88.8054C104.808 88.8054 104.808 88.8054 104.808 88.9579C104.808 88.9579 104.808 88.9579 104.808 89.1103C104.655 89.2628 104.808 89.4153 104.962 89.4153ZM69.7173 119.301L72.1691 120.673C72.4755 120.826 72.9352 120.826 73.2417 120.673L76.1532 118.996C76.3065 118.843 76.3065 118.843 76.3065 118.691C76.3065 118.691 76.3065 118.691 76.3065 118.538C76.3065 118.538 76.3065 118.538 76.3065 118.386C76.3065 118.233 76.3065 118.081 76.1532 118.081L73.7014 116.709C73.395 116.556 72.9353 116.556 72.6288 116.709L69.7173 118.386C69.564 118.538 69.564 118.538 69.564 118.691C69.564 118.691 69.564 118.691 69.564 118.843C69.564 118.843 69.564 118.843 69.564 118.996C69.564 119.148 69.564 119.301 69.7173 119.301ZM79.9841 103.748L82.4359 105.12C82.7424 105.273 83.2021 105.273 83.5086 105.12L86.4201 103.443C86.5733 103.291 86.5733 103.291 86.5733 103.138C86.5733 103.138 86.5733 103.138 86.5733 102.986C86.5733 102.986 86.5733 102.986 86.5733 102.833C86.5733 102.681 86.5733 102.528 86.4201 102.528L83.9683 101.156C83.6618 101.004 83.2021 101.004 82.8956 101.156L79.9841 102.833C79.8309 102.986 79.8309 102.986 79.8309 103.138C79.8309 103.138 79.8309 103.138 79.8309 103.291C79.8309 103.291 79.8309 103.291 79.8309 103.443C79.6777 103.443 79.8309 103.596 79.9841 103.748ZM89.3316 98.4114L91.7833 99.7837C92.0898 99.9362 92.5495 99.9362 92.856 99.7837L95.7675 98.1065C95.9207 97.954 95.9207 97.954 95.9207 97.8015C95.9207 97.8015 95.9207 97.8015 95.9207 97.6491C95.9207 97.6491 95.9207 97.6491 95.9207 97.4966C95.9207 97.3441 95.9207 97.1916 95.7675 97.1916L93.3157 95.8193C93.0092 95.6669 92.5495 95.6669 92.2431 95.8193L89.3316 97.4966C89.1783 97.6491 89.1783 97.6491 89.1783 97.8015C89.1783 97.8015 89.1783 97.8015 89.1783 97.954C89.1783 97.954 89.1783 97.954 89.1783 98.1065C89.0251 98.1065 89.1783 98.259 89.3316 98.4114ZM98.679 93.0747L101.131 94.447C101.437 94.5995 101.897 94.5995 102.203 94.447L106.647 91.8549C106.801 91.7025 106.801 91.7025 106.801 91.55C106.801 91.55 106.801 91.55 106.801 91.3975C106.801 91.3975 106.801 91.3975 106.801 91.245C106.801 91.0925 106.801 90.9401 106.647 90.9401L104.196 89.5678C103.889 89.4153 103.429 89.4153 103.123 89.5678L98.679 92.1599C98.5258 92.3124 98.5257 92.3124 98.5257 92.4648C98.5257 92.4648 98.5257 92.4648 98.5257 92.6173C98.5257 92.6173 98.5257 92.6173 98.5257 92.7698C98.3725 92.7698 98.5258 92.9223 98.679 93.0747ZM93.9287 95.6669L96.3804 97.0392C96.6869 97.1916 97.1466 97.1916 97.4531 97.0392L100.365 95.3619C100.518 95.2094 100.518 95.2094 100.518 95.057C100.518 95.057 100.518 95.057 100.518 94.9045C100.518 94.9045 100.518 94.9045 100.518 94.752C100.518 94.5995 100.518 94.447 100.365 94.447L97.9128 93.0747C97.6063 92.9223 97.1466 92.9223 96.8402 93.0747L93.9287 94.752C93.7754 94.9045 93.7754 94.9045 93.7754 95.057C93.7754 95.057 93.7754 95.057 93.7754 95.2094C93.7754 95.2094 93.7754 95.2094 93.7754 95.3619C93.7754 95.5144 93.7754 95.5144 93.9287 95.6669ZM84.5812 101.004L87.033 102.376C87.3395 102.528 87.7992 102.528 88.1057 102.376L91.0172 100.699C91.1704 100.699 91.1704 100.546 91.1704 100.394C91.1704 100.394 91.1704 100.394 91.1704 100.241C91.1704 100.241 91.1704 100.241 91.1704 100.089C91.1704 99.9362 91.1704 99.7837 91.0172 99.7837L88.5654 98.4114C88.2589 98.259 87.7992 98.259 87.4927 98.4114L84.5812 100.089C84.428 100.241 84.428 100.241 84.428 100.394C84.428 100.394 84.428 100.394 84.428 100.546C84.428 100.546 84.428 100.546 84.428 100.699C84.428 100.851 84.428 101.004 84.5812 101.004ZM104.502 94.5995L106.954 95.9718C107.26 96.1243 107.72 96.1243 108.026 95.9718L110.938 94.2946C111.091 94.1421 111.091 94.1421 111.091 93.9896C111.091 93.9896 111.091 93.9896 111.091 93.8371C111.091 93.8371 111.091 93.8371 111.091 93.6847C111.091 93.5322 111.091 93.3797 110.938 93.3797L108.486 92.0074C108.18 91.8549 107.72 91.8549 107.413 92.0074L104.502 93.6847C104.349 93.8371 104.349 93.8371 104.349 93.9896C104.349 93.9896 104.349 93.9896 104.349 94.1421C104.349 94.1421 104.349 94.1421 104.349 94.2946C104.195 94.2946 104.349 94.447 104.502 94.5995ZM67.1123 115.946L69.564 117.319C69.8705 117.471 70.3302 117.471 70.6367 117.319L73.5482 115.641C73.7014 115.489 73.7014 115.489 73.7014 115.336C73.7014 115.336 73.7014 115.336 73.7014 115.184C73.7014 115.184 73.7014 115.184 73.7014 115.031C73.7014 114.879 73.7014 114.727 73.5482 114.727L71.0964 113.354C70.7899 113.202 70.3302 113.202 70.0238 113.354L67.1123 115.031C66.959 115.184 66.959 115.184 66.959 115.336C66.959 115.336 66.959 115.336 66.959 115.489C66.959 115.489 66.959 115.489 66.959 115.641C66.959 115.794 66.959 115.946 67.1123 115.946ZM99.7516 97.1916L102.203 98.5639C102.51 98.7164 102.97 98.7164 103.276 98.5639L106.188 96.8867C106.341 96.7342 106.341 96.7342 106.341 96.5817C106.341 96.5817 106.341 96.5817 106.341 96.4292C106.341 96.4292 106.341 96.4292 106.341 96.2768C106.341 96.1243 106.341 95.9718 106.188 95.9718L103.736 94.5995C103.429 94.447 102.97 94.447 102.663 94.5995L99.7516 96.2768C99.5984 96.4292 99.5984 96.4292 99.5984 96.5817C99.5984 96.5817 99.5984 96.5817 99.5984 96.7342C99.5984 96.7342 99.5984 96.7342 99.5984 96.8867C99.5984 97.0392 99.5984 97.1916 99.7516 97.1916ZM95.1545 99.9362L97.6063 101.309C97.9128 101.461 98.3725 101.461 98.679 101.309L101.59 99.6313C101.744 99.4788 101.744 99.4788 101.744 99.3263C101.744 99.3263 101.744 99.3263 101.744 99.1738C101.744 99.1738 101.744 99.1738 101.744 99.0214C101.744 98.8689 101.744 98.7164 101.59 98.7164L99.1387 97.3441C98.8322 97.1916 98.3725 97.1916 98.066 97.3441L95.1545 99.0214C95.0013 99.1738 95.0013 99.1738 95.0013 99.3263C95.0013 99.3263 95.0013 99.3263 95.0013 99.4788C95.0013 99.4788 95.0013 99.4788 95.0013 99.6313C95.0013 99.6313 95.0013 99.7837 95.1545 99.9362ZM90.5574 102.681L93.0092 104.053C93.3157 104.206 93.7754 104.206 94.0819 104.053L96.9934 102.376C97.1466 102.223 97.1466 102.223 97.1466 102.071C97.1466 102.071 97.1466 102.071 97.1466 101.918C97.1466 101.918 97.1466 101.918 97.1466 101.766C97.1466 101.613 97.1466 101.461 96.9934 101.461L94.5416 100.089C94.2351 99.9362 93.7754 99.9362 93.4689 100.089L90.5574 101.766C90.4042 101.918 90.4042 101.918 90.4042 102.071C90.4042 102.071 90.4042 102.071 90.4042 102.223C90.4042 102.223 90.4042 102.223 90.4042 102.376C90.251 102.376 90.251 102.528 90.5574 102.681ZM71.8626 113.354L74.3144 114.727C74.6209 114.879 75.0806 114.879 75.387 114.727L78.2985 113.049C78.4518 112.897 78.4518 112.897 78.4518 112.744C78.4518 112.744 78.4518 112.744 78.4518 112.592C78.4518 112.592 78.4518 112.592 78.4518 112.439C78.4518 112.287 78.4518 112.134 78.2985 112.134L75.8467 110.762C75.5403 110.61 75.0806 110.61 74.7741 110.762L71.8626 112.439C71.7094 112.592 71.7094 112.592 71.7094 112.744C71.7094 112.744 71.7094 112.744 71.7094 112.897C71.7094 112.897 71.7094 112.897 71.7094 113.049C71.5561 113.049 71.7094 113.202 71.8626 113.354ZM76.4597 110.61L78.9115 111.982C79.2179 112.134 79.6777 112.134 79.9841 111.982L82.8956 110.305C83.0489 110.152 83.0489 110.152 83.0489 110C83.0489 110 83.0489 110 83.0489 109.847C83.0489 109.847 83.0489 109.847 83.0489 109.695C83.0489 109.542 83.0489 109.39 82.8956 109.39C79.3712 107.408 80.5971 107.408 76.6129 109.695C76.4597 109.847 76.4597 109.847 76.4597 110C76.4597 110 76.4597 110 76.4597 110.152C76.4597 110.152 76.4597 110.152 76.4597 110.305C76.3065 110.457 76.3065 110.61 76.4597 110.61ZM81.21 108.018L83.6618 109.39C83.9683 109.542 84.428 109.542 84.7345 109.39L87.646 107.713C87.7992 107.56 87.7992 107.56 87.7992 107.408C87.7992 107.408 87.7992 107.408 87.7992 107.255C87.7992 107.255 87.7992 107.255 87.7992 107.103C87.7992 106.95 87.7992 106.798 87.646 106.798L85.0409 105.425C84.7345 105.273 84.2748 105.273 83.9683 105.425L81.0568 107.103C80.9036 107.255 80.9035 107.255 80.9035 107.408C80.9035 107.408 80.9035 107.408 80.9035 107.56C80.9035 107.56 80.9035 107.56 80.9035 107.713C80.9035 107.713 81.0568 107.865 81.21 108.018ZM85.8071 105.273C88.2589 106.645 88.5654 107.103 89.3316 106.645L92.2431 104.968C92.3963 104.815 92.3963 104.815 92.3963 104.663C92.3963 104.663 92.3963 104.663 92.3963 104.511C92.3963 104.511 92.3963 104.511 92.3963 104.358C92.3963 104.206 92.3963 104.053 92.2431 104.053L89.7913 102.681C89.4848 102.528 89.0251 102.528 88.7186 102.681L85.8071 104.358C85.6539 104.511 85.6539 104.511 85.6539 104.663C85.6539 104.663 85.6539 104.663 85.6539 104.815C85.6539 104.815 85.6539 104.815 85.6539 104.968C85.6539 105.12 85.6539 105.12 85.8071 105.273ZM77.5323 122.96C77.5323 122.808 77.5323 122.808 77.5323 122.808C77.5323 122.655 77.5323 122.503 77.3791 122.503L74.9273 121.131C74.6209 120.978 74.1611 120.978 73.8547 121.131L69.4108 123.723C69.2576 123.875 69.2576 123.875 69.2576 124.028C69.2576 124.028 69.2576 124.028 69.2576 124.18C69.2576 124.18 69.2576 124.18 69.2576 124.333C69.2576 124.485 69.2576 124.638 69.4108 124.638L71.8626 126.01C72.1691 126.162 72.6288 126.162 72.9352 126.01L77.3791 123.418C77.5323 123.265 77.5323 123.113 77.5323 122.96ZM71.7094 121.435C71.7094 121.435 71.7094 121.283 71.7094 121.435C71.7094 121.283 71.7094 121.283 71.7094 121.283C71.7094 121.131 71.7094 120.978 71.5561 120.978L69.1043 119.606C68.7979 119.453 68.3382 119.453 68.0317 119.606L65.1202 121.131C64.967 121.283 64.967 121.283 64.967 121.435C64.967 121.435 64.967 121.435 64.967 121.588C64.967 121.588 64.967 121.588 64.967 121.74C64.967 121.893 64.967 122.045 65.1202 122.045L67.572 123.418C67.8784 123.57 68.3382 123.57 68.6446 123.418L71.5561 121.74C71.5561 121.588 71.7094 121.588 71.7094 121.435ZM75.2338 106.34C78.7582 108.322 77.5323 108.475 81.5165 106.035C81.6697 105.883 81.6697 105.883 81.6697 105.73C81.6697 105.73 81.6697 105.73 81.6697 105.578C81.6697 105.578 81.6697 105.578 81.6697 105.425C81.6697 105.273 81.6697 105.12 81.5165 105.12L79.0647 103.748C78.7582 103.596 78.2985 103.596 77.9921 103.748L75.0806 105.425C74.9273 105.578 74.9273 105.578 74.9273 105.73C74.9273 105.73 74.9273 105.73 74.9273 105.883C74.9273 105.883 74.9273 105.883 74.9273 106.035C75.0806 106.188 75.0806 106.34 75.2338 106.34ZM124.269 96.1243C124.269 95.9718 124.269 95.9718 124.269 95.9718C124.269 95.8193 124.269 95.6669 124.116 95.6669L121.664 94.2946C121.358 94.1421 120.898 94.1421 120.592 94.2946L117.68 95.9718C117.527 96.1243 117.527 96.1243 117.527 96.2768C117.527 96.2768 117.527 96.2768 117.527 96.4292C117.527 96.4292 117.527 96.4292 117.527 96.5817C117.527 96.7342 117.527 96.8867 117.68 96.8867L120.132 98.259C120.439 98.4114 120.898 98.4114 121.205 98.259L124.116 96.5817C124.116 96.4292 124.269 96.2768 124.269 96.1243ZM68.9511 118.081C68.9511 117.929 68.9511 117.929 68.9511 117.929C68.9511 117.776 68.9511 117.624 68.7979 117.624L66.3461 116.251C66.0396 116.099 65.5799 116.099 65.2734 116.251L60.8296 118.843C60.6763 118.996 60.6763 118.996 60.6763 119.148C60.6763 119.148 60.6763 119.148 60.6763 119.301C60.6763 119.301 60.6763 119.301 60.6763 119.453C60.6763 119.606 60.6763 119.758 60.8296 119.758L63.2813 121.131C63.5878 121.283 64.0475 121.283 64.354 121.131L68.7979 118.538C68.9511 118.386 69.1043 118.233 68.9511 118.081ZM70.6367 109.085L73.0885 110.457C73.395 110.61 73.8547 110.61 74.1611 110.457L77.0726 108.78C77.2259 108.627 77.2259 108.627 77.2259 108.475C77.2259 108.475 77.2259 108.475 77.2259 108.322C77.2259 108.322 77.2259 108.322 77.2259 108.17C77.2259 108.018 77.2259 107.865 77.0726 107.865L74.6209 106.493C74.3144 106.34 73.8547 106.34 73.5482 106.493L70.6367 108.17C70.4835 108.322 70.4835 108.322 70.4835 108.475C70.4835 108.475 70.4835 108.475 70.4835 108.627C70.4835 108.627 70.4835 108.627 70.4835 108.78C70.4835 108.932 70.4835 108.932 70.6367 109.085ZM65.8864 111.829L68.3382 113.202C68.6446 113.354 69.1043 113.354 69.4108 113.202L72.3223 111.524C72.4755 111.372 72.4755 111.372 72.4755 111.22C72.4755 111.22 72.4755 111.22 72.4755 111.067C72.4755 111.067 72.4755 111.067 72.4755 110.915C72.4755 110.762 72.4755 110.61 72.3223 110.61L69.8705 109.237C69.564 109.085 69.1043 109.085 68.7979 109.237L65.8864 110.915C65.7331 111.067 65.7331 111.067 65.7331 111.22C65.7331 111.22 65.7331 111.22 65.7331 111.372C65.7331 111.372 65.7331 111.372 65.7331 111.524C65.7331 111.524 65.7331 111.677 65.8864 111.829ZM63.1281 116.556C63.1281 116.556 63.1281 116.404 63.1281 116.556C63.1281 116.404 63.1281 116.404 63.1281 116.404C63.1281 116.251 63.1281 116.099 62.9749 116.099L60.5231 114.574C60.2166 114.422 59.7569 114.422 59.4504 114.574L56.5389 116.251C56.3857 116.404 56.3857 116.404 56.3857 116.556C56.3857 116.556 56.3857 116.556 56.3857 116.709C56.3857 116.709 56.3857 116.709 56.3857 116.861C56.3857 117.014 56.3857 117.166 56.5389 117.166L58.9907 118.538C59.2972 118.691 59.7569 118.691 60.0634 118.538L62.9749 116.861C63.1281 116.709 63.1281 116.709 63.1281 116.556ZM61.2893 114.422L63.7411 115.794C64.0475 115.946 64.5072 115.946 64.8137 115.794L67.7252 114.117C67.8784 113.964 67.8784 113.964 67.8784 113.812C67.8784 113.812 67.8784 113.812 67.8784 113.659C67.8784 113.659 67.8784 113.659 67.8784 113.507C67.8784 113.354 67.8784 113.202 67.7252 113.202L65.2734 111.829C64.9669 111.677 64.5072 111.677 64.2008 111.829L61.2893 113.507C61.136 113.659 61.136 113.659 61.136 113.812C61.136 113.812 61.136 113.812 61.136 113.964C61.136 113.964 61.136 113.964 61.136 114.117C61.136 114.269 61.136 114.422 61.2893 114.422ZM137.754 93.0747C137.754 92.9223 137.754 92.7698 137.601 92.7698L135.149 91.3975C134.843 91.245 134.383 91.245 134.077 91.3975L131.318 92.9223C131.165 93.0747 131.165 93.0747 131.165 93.2272C131.165 93.2272 131.165 93.2272 131.165 93.3797C131.165 93.3797 131.165 93.3797 131.165 93.5322C131.165 93.6847 131.165 93.8371 131.318 93.8371L133.77 95.2094C134.077 95.3619 134.536 95.3619 134.843 95.2094L137.754 93.5322C137.908 93.3797 137.908 93.3797 137.908 93.2272C137.754 93.2272 137.754 93.2272 137.754 93.0747ZM119.366 98.259L116.914 96.8867C116.608 96.7342 116.148 96.7342 115.841 96.8867L112.93 98.5639C112.777 98.7164 112.777 98.7164 112.777 98.8689C112.777 98.8689 112.777 98.8689 112.777 99.0214C112.777 99.0214 112.777 99.0214 112.777 99.1738C112.777 99.3263 112.777 99.4788 112.93 99.4788L115.382 100.851C115.688 101.004 116.148 101.004 116.454 100.851L119.366 99.1738C119.519 99.0214 119.519 99.0214 119.519 98.8689C119.519 98.8689 119.519 98.8689 119.519 98.7164C119.519 98.7164 119.519 98.7164 119.519 98.5639C119.519 98.5639 119.519 98.4114 119.366 98.259ZM128.713 92.9223L126.262 91.55C125.955 91.3975 125.495 91.3975 125.189 91.55L122.277 93.2272C122.124 93.3797 122.124 93.3797 122.124 93.5322C122.124 93.5322 122.124 93.5322 122.124 93.6847C122.124 93.6847 122.124 93.6847 122.124 93.8371C122.124 93.9896 122.124 94.1421 122.277 94.1421L124.729 95.5144C125.036 95.6669 125.495 95.6669 125.802 95.5144L128.713 93.8371C128.867 93.6847 128.867 93.6847 128.867 93.5322C128.867 93.5322 128.867 93.5322 128.867 93.3797C128.867 93.3797 128.867 93.3797 128.867 93.2272C128.867 93.2272 128.867 93.0747 128.713 92.9223ZM110.018 103.596L107.567 102.223C107.26 102.071 106.801 102.071 106.494 102.223L103.583 103.901C103.429 104.053 103.429 104.206 103.429 104.206C103.429 104.206 103.429 104.206 103.429 104.358C103.429 104.358 103.429 104.358 103.429 104.511C103.429 104.663 103.429 104.815 103.583 104.815L106.034 106.188C106.341 106.34 106.801 106.34 107.107 106.188L110.018 104.511C110.172 104.358 110.172 104.358 110.172 104.206C110.172 104.206 110.172 104.206 110.172 104.053C110.172 104.053 110.172 104.053 110.172 103.901C110.172 103.901 110.172 103.748 110.018 103.596ZM126.875 90.9401C126.875 91.0925 126.875 91.0925 126.875 91.0925C126.875 91.245 126.875 91.3975 127.028 91.3975L129.48 92.7698C129.786 92.9223 130.246 92.9223 130.552 92.7698L133.464 91.0925C133.617 90.9401 133.617 90.9401 133.617 90.7876C133.617 90.7876 133.617 90.7876 133.617 90.6351C133.617 90.6351 133.617 90.6351 133.617 90.4826C133.617 90.3302 133.617 90.1777 133.464 90.1777L131.012 88.8054C130.705 88.6529 130.246 88.6529 129.939 88.8054L127.028 90.4826C126.875 90.6351 126.721 90.7876 126.875 90.9401ZM91.3236 114.422L88.8718 113.049C88.5654 112.897 88.1057 112.897 87.7992 113.049L84.8877 114.727C84.7345 114.879 84.7345 114.879 84.7345 115.031C84.7345 115.031 84.7345 115.031 84.7345 115.184C84.7345 115.184 84.7345 115.184 84.7345 115.336C84.7345 115.489 84.7345 115.641 84.8877 115.641L87.3395 117.014C87.646 117.166 88.1057 117.166 88.4121 117.014L91.3236 115.336C91.4769 115.184 91.4769 115.184 91.4769 115.031C91.4769 115.031 91.4769 115.031 91.4769 114.879C91.4769 114.879 91.4769 114.879 91.4769 114.727C91.4769 114.574 91.4769 114.422 91.3236 114.422ZM100.671 109.085L98.2193 107.713C97.9128 107.56 97.4531 107.56 97.1466 107.713L94.2351 109.237C94.0819 109.39 94.0819 109.39 94.0819 109.542C94.0819 109.542 94.0819 109.542 94.0819 109.695C94.0819 109.695 94.0819 109.695 94.0819 109.847C94.0819 110 94.0819 110.152 94.2351 110.152L96.6869 111.524C96.9934 111.677 97.4531 111.677 97.7596 111.524L100.671 109.847C100.824 109.695 100.824 109.695 100.824 109.542C100.824 109.542 100.824 109.542 100.824 109.39C100.824 109.39 100.824 109.39 100.824 109.237C100.824 109.237 100.824 109.085 100.671 109.085ZM95.9207 111.677L93.4689 110.305C93.1625 110.152 92.7028 110.152 92.3963 110.305L89.638 111.982C89.4848 112.134 89.4848 112.134 89.4848 112.287C89.4848 112.287 89.4848 112.287 89.4848 112.439C89.4848 112.439 89.4848 112.439 89.4848 112.592C89.4848 112.744 89.4848 112.897 89.638 112.897L92.0898 114.269C92.3963 114.422 92.856 114.422 93.1625 114.269L96.074 112.592C96.2272 112.439 96.2272 112.439 96.2272 112.287C96.2272 112.287 96.2272 112.287 96.2272 112.134C96.2272 112.134 96.2272 112.134 96.2272 111.982C96.2272 111.982 96.074 111.829 95.9207 111.677ZM86.5733 117.014L84.1215 115.641C83.815 115.489 83.3553 115.489 83.0489 115.641L80.2906 117.319C80.1374 117.471 80.1374 117.471 80.1374 117.624C80.1374 117.624 80.1374 117.624 80.1374 117.776C80.1374 117.776 80.1374 117.776 80.1374 117.929C80.1374 118.081 80.1374 118.233 80.2906 118.233L82.7424 119.606C83.0489 119.758 83.5086 119.758 83.815 119.606L86.7265 117.929C86.8798 117.776 86.8798 117.776 86.8798 117.624C86.8798 117.624 86.8798 117.624 86.8798 117.471C86.8798 117.471 86.8798 117.471 86.8798 117.319C86.8798 117.319 86.7265 117.166 86.5733 117.014ZM81.9762 119.758L79.5244 118.386C79.218 118.233 78.7582 118.233 78.4518 118.386L75.5403 120.063C75.387 120.216 75.387 120.216 75.387 120.368C75.387 120.368 75.387 120.368 75.387 120.521C75.387 120.521 75.387 120.521 75.387 120.673C75.387 120.826 75.387 120.978 75.5403 120.978L77.9921 122.35C78.2985 122.503 78.7582 122.503 79.0647 122.35L81.9762 120.673C82.1294 120.521 82.1294 120.521 82.1294 120.368C82.1294 120.368 82.1294 120.368 82.1294 120.216C82.1294 120.216 82.1294 120.216 82.1294 120.063C82.1294 119.911 82.1294 119.911 81.9762 119.758ZM105.268 106.34L102.816 104.968C102.51 104.815 102.05 104.815 101.744 104.968L98.9855 106.645C98.8322 106.645 98.679 106.798 98.8322 106.95C98.8322 106.95 98.8322 106.95 98.8322 107.103C98.8322 107.103 98.8322 107.103 98.8322 107.255C98.8322 107.408 98.8322 107.56 98.9855 107.56L101.437 108.932C101.744 109.085 102.203 109.085 102.51 108.932L105.421 107.255C105.575 107.103 105.575 107.103 105.575 106.95C105.575 106.95 105.575 106.95 105.575 106.798C105.575 106.798 105.575 106.798 105.575 106.645C105.575 106.493 105.421 106.493 105.268 106.34ZM114.616 101.004L112.164 99.6313C111.857 99.4788 111.398 99.4788 111.091 99.6313L108.18 101.309C108.026 101.461 108.026 101.461 108.026 101.613C108.026 101.613 108.026 101.613 108.026 101.766C108.026 101.766 108.026 101.766 108.026 101.918C108.026 102.071 108.026 102.223 108.18 102.223L110.631 103.596C110.938 103.748 111.398 103.748 111.704 103.596L114.616 101.918C114.769 101.766 114.769 101.766 114.769 101.613C114.769 101.613 114.769 101.613 114.769 101.461C114.769 101.461 114.769 101.461 114.769 101.309C114.922 101.156 114.769 101.004 114.616 101.004ZM89.1783 120.368L86.7265 118.996C86.4201 118.843 85.9604 118.843 85.6539 118.996L82.7424 120.673C82.5892 120.826 82.5892 120.826 82.5892 120.978C82.5892 120.978 82.5892 120.978 82.5892 121.131C82.5892 121.131 82.5892 121.131 82.5892 121.283C82.5892 121.435 82.5892 121.588 82.7424 121.588L85.1942 122.96C85.5006 123.113 85.9604 123.113 86.2668 122.96L89.1783 121.283C89.3316 121.131 89.3316 121.131 89.3316 120.978C89.3316 120.978 89.3316 120.978 89.3316 120.826C89.3316 120.826 89.3316 120.826 89.3316 120.673C89.4848 120.521 89.4848 120.521 89.1783 120.368ZM93.9287 117.624L91.4769 116.251C91.1704 116.099 90.7107 116.099 90.4042 116.251L87.4927 117.929C87.3395 118.081 87.3395 118.081 87.3395 118.233C87.3395 118.233 87.3395 118.233 87.3395 118.386C87.3395 118.386 87.3395 118.386 87.3395 118.538C87.3395 118.691 87.3395 118.843 87.4927 118.843L89.9445 120.216C90.251 120.368 90.7107 120.368 91.0172 120.216L93.9287 118.538C94.0819 118.386 94.0819 118.386 94.0819 118.233C94.0819 118.233 94.0819 118.233 94.0819 118.081C94.0819 118.081 94.0819 118.081 94.0819 117.929C94.0819 117.929 94.0819 117.776 93.9287 117.624ZM84.5812 123.113L82.1294 121.74C81.823 121.588 81.3633 121.588 81.0568 121.74L78.1453 123.418C77.9921 123.57 77.9921 123.57 77.9921 123.723C77.9921 123.723 77.9921 123.723 77.9921 123.875C77.9921 123.875 77.9921 123.875 77.9921 124.028C77.9921 124.18 77.9921 124.333 78.1453 124.333L80.5971 125.705C80.9035 125.857 81.3633 125.857 81.6697 125.705L84.5812 124.028C84.7345 123.875 84.7345 123.875 84.7345 123.723C84.7345 123.723 84.7345 123.723 84.7345 123.57C84.7345 123.57 84.7345 123.57 84.7345 123.418C84.7345 123.265 84.7345 123.113 84.5812 123.113ZM79.9841 125.705L77.5323 124.333C77.2259 124.18 76.7662 124.18 76.4597 124.333L73.5482 126.01C73.395 126.162 73.395 126.162 73.395 126.315C73.395 126.315 73.395 126.315 73.395 126.467C73.395 126.467 73.395 126.467 73.395 126.62C73.395 126.772 73.395 126.925 73.5482 126.925L76 128.297C76.3065 128.449 76.7662 128.449 77.0726 128.297L79.9841 126.62C80.1374 126.467 80.1374 126.467 80.1374 126.315C80.1374 126.315 80.1374 126.315 80.1374 126.162C80.1374 126.162 80.1374 126.162 80.1374 126.01C80.1374 126.01 80.1374 125.857 79.9841 125.705ZM114.922 95.8193L112.47 94.447C112.164 94.2946 111.704 94.2946 111.398 94.447L106.954 97.0392C106.801 97.1916 106.801 97.1916 106.801 97.3441C106.801 97.3441 106.801 97.3441 106.801 97.4966C106.801 97.4966 106.801 97.4966 106.801 97.6491C106.801 97.8015 106.801 97.954 106.954 97.954L109.406 99.3263C109.712 99.4788 110.172 99.4788 110.478 99.3263L114.922 96.7342C115.075 96.5817 115.075 96.5817 115.075 96.4292C115.075 96.4292 115.075 96.4292 115.075 96.2768C115.075 96.2768 115.075 96.2768 115.075 96.1243C115.229 96.1243 115.075 95.9718 114.922 95.8193ZM123.35 100.699L120.898 99.3263C120.592 99.1738 120.132 99.1738 119.826 99.3263L115.382 101.918C115.229 102.071 115.229 102.071 115.229 102.223C115.229 102.223 115.229 102.223 115.229 102.376C115.229 102.376 115.229 102.376 115.229 102.528C115.229 102.681 115.229 102.833 115.382 102.833L117.834 104.206C118.14 104.358 118.6 104.358 118.906 104.206L123.35 101.613C123.503 101.461 123.503 101.461 123.503 101.309C123.503 101.309 123.503 101.309 123.503 101.156C123.503 101.156 123.503 101.156 123.503 101.004C123.657 101.004 123.503 100.851 123.35 100.699ZM133.004 95.3619L130.552 93.9896C130.246 93.8371 129.786 93.8371 129.48 93.9896L126.568 95.6669C126.415 95.8193 126.415 95.8193 126.415 95.9718C126.415 95.9718 126.415 95.9718 126.415 96.1243C126.415 96.1243 126.415 96.1243 126.415 96.2768C126.415 96.4292 126.415 96.5817 126.568 96.5817L129.02 97.954C129.326 98.1065 129.786 98.1065 130.092 97.954L133.004 96.2768C133.157 96.1243 133.157 96.1243 133.157 95.9718C133.157 95.9718 133.157 95.9718 133.157 95.8193C133.157 95.8193 133.157 95.8193 133.157 95.6669C133.157 95.6669 133.157 95.5144 133.004 95.3619ZM128.254 98.1065L125.802 96.7342C125.495 96.5817 125.036 96.5817 124.729 96.7342L121.818 98.4114C121.664 98.5639 121.664 98.5639 121.664 98.7164C121.664 98.7164 121.664 98.7164 121.664 98.8689C121.664 98.8689 121.664 98.8689 121.664 99.0214C121.664 99.1738 121.664 99.3263 121.818 99.3263L124.269 100.699C124.576 100.851 125.036 100.851 125.342 100.699L128.254 99.0214C128.407 98.8689 128.407 98.8689 128.407 98.7164C128.407 98.7164 128.407 98.7164 128.407 98.5639C128.407 98.5639 128.407 98.5639 128.407 98.4114C128.56 98.259 128.407 98.1065 128.254 98.1065ZM117.374 104.206L114.922 102.833C114.616 102.681 114.156 102.681 113.849 102.833L92.2431 115.184C92.0898 115.336 92.0898 115.336 92.0898 115.489C92.0898 115.489 92.0898 115.489 92.0898 115.641C92.0898 115.641 92.0898 115.641 92.0898 115.794C92.0898 115.946 92.0898 116.099 92.2431 116.099L94.6948 117.471C95.0013 117.624 95.461 117.624 95.7675 117.471L117.374 105.12C117.527 104.968 117.527 104.968 117.527 104.815C117.527 104.815 117.527 104.815 117.527 104.663C117.527 104.663 117.527 104.663 117.527 104.511C117.527 104.511 117.527 104.358 117.374 104.206ZM99.4452 104.815L96.9934 103.443C96.6869 103.291 96.2272 103.291 95.9207 103.443L93.0092 105.12C92.856 105.273 92.856 105.273 92.856 105.425C92.856 105.425 92.856 105.425 92.856 105.578C92.856 105.578 92.856 105.578 92.856 105.73C92.856 105.883 92.856 106.035 93.0092 106.035L95.461 107.408C95.7675 107.56 96.2272 107.56 96.5337 107.408L99.4452 105.73C99.5984 105.578 99.5984 105.578 99.5984 105.425C99.5984 105.425 99.5984 105.425 99.5984 105.273C99.5984 105.273 99.5984 105.273 99.5984 105.12C99.5984 104.968 99.5984 104.815 99.4452 104.815ZM94.8481 107.408L92.3963 106.035C92.0898 105.883 91.6301 105.883 91.3236 106.035L88.4121 107.713C88.2589 107.865 88.2589 107.865 88.2589 108.018C88.2589 108.018 88.2589 108.018 88.2589 108.17C88.2589 108.17 88.2589 108.17 88.2589 108.322C88.2589 108.475 88.2589 108.627 88.4121 108.627L90.8639 110C91.1704 110.152 91.6301 110.152 91.9366 110L94.8481 108.322C95.0013 108.17 95.0013 108.17 95.0013 108.018C95.0013 108.018 95.0013 108.018 95.0013 107.865C95.0013 107.865 95.0013 107.865 95.0013 107.713C95.0013 107.713 95.0013 107.56 94.8481 107.408ZM104.196 102.071L101.744 100.699C101.437 100.546 100.978 100.546 100.671 100.699L97.7596 102.376C97.6063 102.528 97.6063 102.528 97.6063 102.681C97.6063 102.681 97.6063 102.681 97.6063 102.833C97.6063 102.833 97.6063 102.833 97.6063 102.986C97.6063 103.138 97.6063 103.291 97.7596 103.291L100.211 104.663C100.518 104.815 100.978 104.815 101.284 104.663L104.196 102.986C104.349 102.833 104.349 102.833 104.349 102.681C104.349 102.681 104.349 102.681 104.349 102.528C104.349 102.528 104.349 102.528 104.349 102.376C104.349 102.376 104.349 102.223 104.196 102.071ZM118.293 85.9083C118.293 86.0608 118.293 86.0608 118.293 85.9083C118.293 86.0608 118.293 86.0608 118.293 86.0608C118.293 86.2133 118.293 86.3658 118.447 86.3658L120.898 87.738C121.205 87.8905 121.664 87.8905 121.971 87.738L124.882 86.0608C125.036 85.9083 125.036 85.9083 125.036 85.7558C125.036 85.7558 125.036 85.7558 125.036 85.6034C125.036 85.6034 125.036 85.6034 125.036 85.4509C125.036 85.2984 125.036 85.1459 124.882 85.1459L122.431 83.7736C122.124 83.6212 121.664 83.6212 121.358 83.7736L118.447 85.4509C118.293 85.7558 118.293 85.9083 118.293 85.9083ZM108.793 99.4788L106.341 98.1065C106.034 97.954 105.575 97.954 105.268 98.1065L102.357 99.7837C102.203 99.9362 102.203 99.9362 102.203 100.089C102.203 100.089 102.203 100.089 102.203 100.241C102.203 100.241 102.203 100.241 102.203 100.394C102.203 100.546 102.203 100.699 102.357 100.699L104.808 102.071C105.115 102.223 105.575 102.223 105.881 102.071L108.793 100.394C108.946 100.241 108.946 100.241 108.946 100.089C108.946 100.089 108.946 100.089 108.946 99.9362C108.946 99.9362 108.946 99.9362 108.946 99.7837C108.946 99.6313 108.946 99.4788 108.793 99.4788ZM90.0977 110.152L87.646 108.78C87.3395 108.627 86.8798 108.627 86.5733 108.78L83.6618 110.457C83.5086 110.61 83.5086 110.61 83.5086 110.762C83.5086 110.762 83.5086 110.762 83.5086 110.915C83.5086 110.915 83.5086 110.915 83.5086 111.067C83.5086 111.22 83.5086 111.372 83.6618 111.372L86.1136 112.744C86.4201 112.897 86.8798 112.897 87.1863 112.744L90.0977 111.067C90.251 110.915 90.251 110.915 90.251 110.762C90.251 110.762 90.251 110.762 90.251 110.61C90.251 110.61 90.251 110.61 90.251 110.457C90.4042 110.305 90.251 110.305 90.0977 110.152ZM80.7503 115.489L78.2985 114.117C77.9921 113.964 77.5323 113.964 77.2259 114.117L74.4676 115.794C74.3144 115.794 74.1611 115.946 74.3144 116.099C74.3144 116.099 74.3144 116.099 74.3144 116.251C74.3144 116.251 74.3144 116.251 74.3144 116.404C74.3144 116.556 74.3144 116.709 74.4676 116.709L76.9194 118.081C77.2259 118.233 77.6856 118.233 77.9921 118.081L80.9035 116.404C81.0568 116.251 81.0568 116.251 81.0568 116.099C81.0568 116.099 81.0568 116.099 81.0568 115.946C81.0568 115.946 81.0568 115.946 81.0568 115.794C81.0568 115.794 80.9036 115.641 80.7503 115.489ZM85.5006 112.897L83.0489 111.524C82.7424 111.372 82.2827 111.372 81.9762 111.524L79.0647 113.202C78.9115 113.202 78.9115 113.354 78.9115 113.354C78.9115 113.354 78.9115 113.354 78.9115 113.507C78.9115 113.507 78.9115 113.507 78.9115 113.659C78.9115 113.812 78.9115 113.964 79.0647 113.964L81.5165 115.336C81.823 115.489 82.2827 115.489 82.5892 115.336L85.5006 113.659C85.6539 113.507 85.6539 113.507 85.6539 113.354C85.6539 113.354 85.6539 113.354 85.6539 113.202C85.6539 113.202 85.6539 113.202 85.6539 113.049C85.6539 113.049 85.6539 112.897 85.5006 112.897Z" fill="#AEC3CB"/>
<path d="M62.9757 116.404L60.0642 118.081C59.7577 118.234 59.298 118.234 58.9916 118.081L56.5398 116.709C56.2333 116.556 56.2333 116.251 56.5398 116.099L59.4513 114.422C59.7577 114.269 60.2174 114.269 60.5239 114.422L62.9757 115.794C63.2822 116.099 63.2822 116.251 62.9757 116.404ZM67.5728 113.202L65.121 111.83C64.8145 111.677 64.3548 111.677 64.0484 111.83L61.1369 113.507C60.8304 113.659 60.8304 113.964 61.1369 114.117L63.5886 115.489C63.8951 115.642 64.3548 115.642 64.6613 115.489L67.5728 113.812C67.8793 113.659 67.8793 113.354 67.5728 113.202ZM72.3231 110.457L69.8713 109.085C69.5649 108.933 69.1052 108.933 68.7987 109.085L65.8872 110.762C65.5807 110.915 65.5807 111.22 65.8872 111.372L68.339 112.744C68.6454 112.897 69.1052 112.897 69.4116 112.744L72.3231 111.067C72.6296 110.915 72.6296 110.61 72.3231 110.457ZM76.9202 107.865L74.4684 106.493C74.162 106.34 73.7023 106.34 73.3958 106.493L70.4843 108.17C70.1778 108.323 70.1778 108.628 70.4843 108.78L72.9361 110.152C73.2425 110.305 73.7023 110.305 74.0087 110.152L76.9202 108.475C77.2267 108.17 77.2267 108.018 76.9202 107.865ZM81.6706 105.121L79.2188 103.748C78.9123 103.596 78.4526 103.596 78.1461 103.748L75.2346 105.426C74.9281 105.578 74.9281 105.883 75.2346 106.035L77.6864 107.408C77.9929 107.56 78.4526 107.56 78.7591 107.408L81.6706 105.731C81.977 105.578 81.977 105.273 81.6706 105.121ZM86.2677 102.529L83.8159 101.156C83.5094 101.004 83.0497 101.004 82.7432 101.156L79.8317 102.833C79.5252 102.986 79.5252 103.291 79.8317 103.443L82.2835 104.816C82.59 104.968 83.0497 104.968 83.3562 104.816L86.2677 103.138C86.5741 102.833 86.5741 102.681 86.2677 102.529ZM91.018 99.7839L88.5662 98.4116C88.2597 98.2591 87.8 98.2591 87.4935 98.4116L84.5821 100.089C84.2756 100.241 84.2756 100.546 84.5821 100.699L87.0338 102.071C87.3403 102.224 87.8 102.224 88.1065 102.071L91.018 100.394C91.3245 100.241 91.3245 99.9364 91.018 99.7839ZM95.6151 97.0393L93.1633 95.667C92.8568 95.5146 92.3971 95.5146 92.0906 95.667L89.1791 97.3443C88.8727 97.4968 88.8727 97.8017 89.1791 97.9542L91.6309 99.3265C91.9374 99.479 92.3971 99.479 92.7036 99.3265L95.6151 97.6492C95.9216 97.4968 95.9216 97.1918 95.6151 97.0393ZM100.365 94.4472L97.9136 93.0749C97.6072 92.9224 97.1474 92.9224 96.841 93.0749L93.9295 94.7522C93.623 94.9047 93.623 95.2096 93.9295 95.3621L96.3813 96.7344C96.6877 96.8869 97.1474 96.8869 97.4539 96.7344L100.365 95.0571C100.519 94.9047 100.519 94.5997 100.365 94.4472ZM106.495 90.9403L104.043 89.568C103.737 89.4155 103.277 89.4155 102.97 89.568L98.5266 92.1601C98.2201 92.3125 98.2201 92.6175 98.5266 92.77L100.978 94.1423C101.285 94.2947 101.745 94.2947 102.051 94.1423L106.495 91.3977C106.801 91.2452 106.801 91.0927 106.495 90.9403ZM123.964 95.5146L121.512 94.1423C121.206 93.9898 120.746 93.9898 120.439 94.1423L117.528 95.8195C117.221 95.972 117.221 96.2769 117.528 96.4294L119.98 97.8017C120.286 97.9542 120.746 97.9542 121.052 97.8017L123.964 96.1245C124.27 95.972 124.27 95.667 123.964 95.5146ZM128.714 92.77L126.262 91.3977C125.956 91.2452 125.496 91.2452 125.19 91.3977L122.278 93.0749C121.972 93.2274 121.972 93.5324 122.278 93.6848L124.73 95.0571C125.036 95.2096 125.496 95.2096 125.803 95.0571L128.714 93.3799C129.021 93.2274 129.021 92.9225 128.714 92.77ZM133.311 90.1779L130.859 88.8056C130.553 88.6531 130.093 88.6531 129.787 88.8056L126.875 90.4828C126.569 90.6353 126.569 90.9402 126.875 91.0927L129.327 92.465C129.634 92.6175 130.093 92.6175 130.4 92.465L133.311 90.7878C133.618 90.6353 133.618 90.3303 133.311 90.1779ZM128.254 97.9542L125.803 96.5819C125.496 96.4294 125.036 96.4294 124.73 96.5819L121.819 98.2591C121.512 98.4116 121.512 98.7166 121.819 98.8691L124.27 100.241C124.577 100.394 125.037 100.394 125.343 100.241L128.254 98.5641C128.561 98.4116 128.561 98.1067 128.254 97.9542ZM133.005 95.2096L130.553 93.8373C130.247 93.6848 129.787 93.6848 129.48 93.8373L126.569 95.5146C126.262 95.667 126.262 95.972 126.569 96.1245L129.021 97.4968C129.327 97.6492 129.787 97.6492 130.093 97.4968L133.005 95.8195C133.158 95.667 133.158 95.3621 133.005 95.2096ZM137.602 92.6175L135.15 91.2452C134.844 91.0927 134.384 91.0927 134.077 91.2452L131.319 92.9225C131.013 93.0749 131.013 93.3799 131.319 93.5324L133.771 94.9047C134.077 95.0571 134.537 95.0571 134.844 94.9047L137.755 93.2274C137.908 93.0749 137.908 92.77 137.602 92.6175ZM68.7987 117.471L66.3469 116.099C66.0404 115.946 65.5807 115.946 65.2742 116.099L60.8304 118.691C60.5239 118.844 60.5239 119.149 60.8304 119.301L63.2822 120.673C63.5886 120.826 64.0484 120.826 64.3548 120.673L68.7987 118.081C69.1052 117.776 69.1052 117.624 68.7987 117.471ZM73.549 114.727L71.0972 113.354C70.7908 113.202 70.3311 113.202 70.0246 113.354L67.1131 115.032C66.8066 115.184 66.8066 115.489 67.1131 115.642L69.5649 117.014C69.8713 117.166 70.3311 117.166 70.6375 117.014L73.549 115.337C73.7023 115.184 73.7023 114.879 73.549 114.727ZM78.1461 112.135L75.6943 110.762C75.3879 110.61 74.9282 110.61 74.6217 110.762L71.7102 112.44C71.4037 112.592 71.4037 112.897 71.7102 113.049L74.3152 114.269C74.6217 114.422 75.0814 114.422 75.3879 114.269L78.2994 112.592C78.4526 112.44 78.4526 112.287 78.1461 112.135ZM82.8964 109.39L80.4447 108.018C80.1382 107.865 79.6785 107.865 79.372 108.018L76.4605 109.695C76.154 109.847 76.154 110.152 76.4605 110.305L78.9123 111.677C79.2188 111.83 79.6785 111.83 79.985 111.677L82.8964 110C83.0497 109.847 83.0497 109.542 82.8964 109.39ZM87.4935 106.645L85.0418 105.273C84.7353 105.121 84.2756 105.121 83.9691 105.273L81.0576 106.95C80.7511 107.103 80.7511 107.408 81.0576 107.56L83.5094 108.933C83.8159 109.085 84.2756 109.085 84.5821 108.933L87.4935 107.255C87.8 107.103 87.8 106.798 87.4935 106.645ZM92.0906 104.053L89.6389 102.681C89.3324 102.529 88.8727 102.529 88.5662 102.681L85.6547 104.358C85.3482 104.511 85.3482 104.816 85.6547 104.968L88.1065 106.34C88.413 106.493 88.8727 106.493 89.1791 106.34L92.0906 104.663C92.3971 104.511 92.3971 104.206 92.0906 104.053ZM96.841 101.309L94.3892 99.9364C94.0827 99.7839 93.623 99.7839 93.3165 99.9364L90.405 101.614C90.0986 101.766 90.0986 102.071 90.405 102.224L92.8568 103.596C93.1633 103.748 93.623 103.748 93.9295 103.596L96.841 101.919C97.1474 101.766 97.1474 101.461 96.841 101.309ZM101.438 98.7166L98.9863 97.3443C98.6798 97.1918 98.2201 97.1918 97.9136 97.3443L95.0021 99.0215C94.6957 99.174 94.6957 99.479 95.0021 99.6314L97.4539 101.004C97.7604 101.156 98.2201 101.156 98.5266 101.004L101.438 99.3265C101.745 99.0215 101.745 98.8691 101.438 98.7166ZM106.188 95.972L103.737 94.5997C103.43 94.4472 102.97 94.4472 102.664 94.5997L99.7525 96.2769C99.446 96.4294 99.446 96.7344 99.7525 96.8869L102.204 98.2591C102.511 98.4116 102.97 98.4116 103.277 98.2591L106.188 96.5819C106.495 96.4294 106.495 96.1245 106.188 95.972ZM110.786 93.2274L108.334 91.8551C108.027 91.7026 107.568 91.7026 107.261 91.8551L104.35 93.5324C104.043 93.6848 104.043 93.9898 104.35 94.1423L106.801 95.5146C107.108 95.667 107.568 95.667 107.874 95.5146L110.786 93.8373C111.092 93.6848 111.092 93.3799 110.786 93.2274ZM71.4037 120.673L68.9519 119.301C68.6455 119.149 68.1857 119.149 67.8793 119.301L65.121 120.978C64.8145 121.131 64.8145 121.436 65.121 121.588L67.5728 122.96C67.8793 123.113 68.339 123.113 68.6455 122.96L71.5569 121.283C71.7102 121.131 71.7102 120.826 71.4037 120.673ZM76.154 118.081L73.7023 116.709C73.3958 116.556 72.9361 116.556 72.6296 116.709L69.7181 118.386C69.4116 118.539 69.4116 118.844 69.7181 118.996L72.1699 120.368C72.4764 120.521 72.9361 120.521 73.2425 120.368L76.154 118.691C76.4605 118.539 76.4605 118.234 76.154 118.081ZM80.7511 115.337L78.2994 113.964C77.9929 113.812 77.5332 113.812 77.2267 113.964L74.3152 115.642C74.0087 115.794 74.0087 116.099 74.3152 116.251L76.767 117.624C77.0735 117.776 77.5332 117.776 77.8396 117.624L80.7511 115.946C81.0576 115.794 81.0576 115.489 80.7511 115.337ZM85.5015 112.744L83.0497 111.372C82.7432 111.22 82.2835 111.22 81.977 111.372L79.0655 113.049C78.7591 113.202 78.7591 113.507 79.0655 113.659L81.5173 115.032C81.8238 115.184 82.2835 115.184 82.59 115.032L85.5015 113.354C85.8079 113.049 85.8079 112.897 85.5015 112.744ZM79.985 125.553L77.5332 124.18C77.2267 124.028 76.767 124.028 76.4605 124.18L73.549 125.857C73.2425 126.01 73.2425 126.315 73.549 126.467L76.0008 127.84C76.3073 127.992 76.767 127.992 77.0735 127.84L79.985 126.162C80.1382 126.01 80.1382 125.705 79.985 125.553ZM84.5821 122.96L82.1303 121.588C81.8238 121.436 81.3641 121.436 81.0576 121.588L78.1461 123.265C77.8396 123.418 77.8396 123.723 78.1461 123.875L80.5979 125.248C80.9044 125.4 81.3641 125.4 81.6706 125.248L84.5821 123.57C84.8885 123.418 84.8885 123.113 84.5821 122.96ZM89.1791 120.216L86.8806 118.844C86.5741 118.691 86.1144 118.691 85.8079 118.844L82.8964 120.521C82.59 120.673 82.59 120.978 82.8964 121.131L85.3482 122.503C85.6547 122.655 86.1144 122.655 86.4209 122.503L89.3324 120.826C89.4856 120.673 89.4856 120.368 89.1791 120.216ZM93.9295 117.624L91.4777 116.251C91.1712 116.099 90.7115 116.099 90.405 116.251L87.4935 117.929C87.1871 118.081 87.1871 118.386 87.4935 118.539L89.9453 119.911C90.2518 120.063 90.7115 120.063 91.018 119.911L93.9295 118.234C94.236 117.929 94.236 117.776 93.9295 117.624ZM123.351 100.546L120.899 99.174C120.593 99.0215 120.133 99.0215 119.826 99.174L115.383 101.766C115.076 101.919 115.076 102.224 115.383 102.376L117.834 103.748C118.141 103.901 118.601 103.901 118.907 103.748L123.351 101.156C123.657 101.004 123.657 100.851 123.351 100.546ZM90.0986 110L87.6468 108.628C87.3403 108.475 86.8806 108.475 86.5741 108.628L83.6626 110.305C83.3562 110.457 83.3562 110.762 83.6626 110.915L86.1144 112.287C86.4209 112.44 86.8806 112.44 87.1871 112.287L90.0986 110.61C90.405 110.457 90.405 110.152 90.0986 110ZM94.8489 107.255L92.3971 105.883C92.0906 105.731 91.6309 105.731 91.3245 105.883L88.413 107.56C88.1065 107.713 88.1065 108.018 88.413 108.17L90.8647 109.542C91.1712 109.695 91.6309 109.695 91.9374 109.542L94.8489 107.865C95.0021 107.713 95.0021 107.56 94.8489 107.255ZM99.446 104.663L96.9942 103.291C96.6877 103.138 96.228 103.138 95.9216 103.291L93.0101 104.968C92.7036 105.121 92.7036 105.426 93.0101 105.578L95.4618 106.95C95.7683 107.103 96.228 107.103 96.5345 106.95L99.446 105.273C99.7525 105.121 99.7525 104.816 99.446 104.663ZM104.196 101.919L101.745 100.546C101.438 100.394 100.978 100.394 100.672 100.546L97.7604 102.224C97.4539 102.376 97.4539 102.681 97.7604 102.833L100.212 104.206C100.519 104.358 100.978 104.358 101.285 104.206L104.196 102.529C104.35 102.376 104.35 102.071 104.196 101.919ZM108.793 99.3265L106.342 97.9542C106.035 97.8017 105.575 97.8017 105.269 97.9542L102.357 99.6314C102.051 99.7839 102.051 100.089 102.357 100.241L104.809 101.614C105.116 101.766 105.575 101.766 105.882 101.614L108.793 99.9364C109.1 99.7839 109.1 99.479 108.793 99.3265ZM114.923 95.667L112.471 94.2947C112.165 94.1423 111.705 94.1423 111.398 94.2947L106.955 96.8869C106.648 97.0393 106.648 97.3443 106.955 97.4968L109.406 98.8691C109.713 99.0215 110.173 99.0215 110.479 98.8691L114.923 96.2769C115.229 96.1245 115.229 95.972 114.923 95.667ZM77.2267 122.351L74.7749 120.978C74.4684 120.826 74.0087 120.826 73.7023 120.978L69.4116 123.418C69.1052 123.57 69.1052 123.875 69.4116 124.028L71.8634 125.4C72.1699 125.553 72.6296 125.553 72.9361 125.4L77.3799 122.808C77.5332 122.655 77.5332 122.503 77.2267 122.351ZM81.977 119.606L79.5252 118.234C79.2188 118.081 78.7591 118.081 78.4526 118.234L75.5411 119.911C75.2346 120.063 75.2346 120.368 75.5411 120.521L77.9929 121.893C78.2994 122.046 78.7591 122.046 79.0655 121.893L81.977 120.216C82.2835 120.063 82.2835 119.758 81.977 119.606ZM86.5741 116.861L84.1223 115.489C83.8159 115.337 83.3562 115.337 83.0497 115.489L80.1382 117.166C79.8317 117.319 79.8317 117.624 80.1382 117.776L82.59 119.148C82.8965 119.301 83.3562 119.301 83.6626 119.148L86.5741 117.471C86.8806 117.319 86.8806 117.166 86.5741 116.861ZM91.3245 114.269L88.8727 112.897C88.5662 112.744 88.1065 112.744 87.8 112.897L84.8885 114.574C84.5821 114.727 84.5821 115.032 84.8885 115.184L87.3403 116.556C87.6468 116.709 88.1065 116.709 88.413 116.556L91.3245 114.879C91.6309 114.727 91.6309 114.422 91.3245 114.269ZM95.9216 111.525L93.4698 110.152C93.1633 110 92.7036 110 92.3971 110.152L89.6389 111.83C89.3324 111.982 89.3324 112.287 89.6389 112.44L92.0906 113.812C92.3971 113.964 92.8568 113.964 93.1633 113.812L96.0748 112.135C96.228 111.982 96.228 111.677 95.9216 111.525ZM117.375 104.206L114.923 102.833C114.616 102.681 114.157 102.681 113.85 102.833L92.2439 115.184C91.9374 115.337 91.9374 115.642 92.2439 115.794L94.6957 117.166C95.0021 117.319 95.4618 117.319 95.7683 117.166L117.375 104.816C117.681 104.511 117.681 104.358 117.375 104.206ZM100.672 108.933L98.2201 107.56C97.9136 107.408 97.4539 107.408 97.1474 107.56L94.236 109.085C93.9295 109.237 93.9295 109.542 94.236 109.695L96.6877 111.067C96.9942 111.22 97.4539 111.22 97.7604 111.067L100.672 109.39C100.978 109.39 100.978 109.085 100.672 108.933ZM105.269 106.188L102.817 104.816C102.511 104.663 102.051 104.663 101.745 104.816L98.833 106.493C98.5266 106.645 98.5266 106.95 98.833 107.103L101.285 108.475C101.591 108.628 102.051 108.628 102.357 108.475L105.269 106.798C105.575 106.645 105.575 106.34 105.269 106.188ZM110.019 103.596L107.568 102.071C107.261 101.919 106.801 101.919 106.495 102.071L103.583 103.748C103.277 103.901 103.277 104.206 103.583 104.358L106.035 105.731C106.342 105.883 106.801 105.883 107.108 105.731L110.019 104.053C110.326 103.901 110.326 103.748 110.019 103.596ZM114.616 100.851L112.165 99.479C111.858 99.3265 111.398 99.3265 111.092 99.479L108.18 101.156C107.874 101.309 107.874 101.614 108.18 101.766L110.632 103.138C110.939 103.291 111.398 103.291 111.705 103.138L114.616 101.461C114.923 101.309 114.923 101.004 114.616 100.851ZM119.367 98.1067L116.915 96.7344C116.608 96.5819 116.149 96.5819 115.842 96.7344L112.931 98.4116C112.624 98.5641 112.624 98.8691 112.931 99.0215L115.383 100.394C115.689 100.546 116.149 100.546 116.455 100.394L119.367 98.7166C119.52 98.5641 119.52 98.2591 119.367 98.1067ZM111.245 88.1957L108.793 86.8234C108.487 86.6709 108.027 86.6709 107.721 86.8234L104.963 88.5006C104.656 88.6531 104.656 88.958 104.963 89.1105L107.414 90.4828C107.721 90.6353 108.18 90.6353 108.487 90.4828L111.398 88.8056C111.552 88.6531 111.552 88.3481 111.245 88.1957ZM115.842 85.4511L113.391 84.0788C113.084 83.9263 112.624 83.9263 112.318 84.0788L109.56 85.756C109.253 85.9085 109.253 86.2135 109.56 86.3659L112.011 87.7382C112.318 87.8907 112.778 87.8907 113.084 87.7382L115.996 86.061C116.149 85.9085 116.149 85.6036 115.842 85.4511ZM120.593 82.859L118.141 81.4867C117.834 81.3342 117.375 81.3342 117.068 81.4867L114.157 83.0114C113.85 83.1639 113.85 83.4689 114.157 83.6214L116.608 84.9936C116.915 85.1461 117.375 85.1461 117.681 84.9936L120.593 83.3164C120.899 83.1639 120.899 83.0114 120.593 82.859ZM124.883 85.2986L122.431 83.7738C122.125 83.6214 121.665 83.6214 121.359 83.7738L118.447 85.4511C118.141 85.6036 118.141 85.9085 118.447 86.061L120.899 87.4333C121.206 87.5858 121.665 87.5858 121.972 87.4333L124.883 85.756C125.036 85.6036 125.036 85.4511 124.883 85.2986Z" fill="#3D3838"/>
<path opacity="0.2" d="M137.295 115.184L115.842 127.535C115.383 127.84 114.616 127.84 114.157 127.535L99.9057 119.301C99.446 118.996 99.446 118.539 99.9057 118.234L121.359 105.883C121.819 105.578 122.585 105.578 123.044 105.883L137.295 114.117C137.755 114.422 137.755 114.879 137.295 115.184Z" fill="#97BBCB"/>
<path d="M99.9057 118.539L121.359 106.188C121.819 105.883 122.585 105.883 123.044 106.188L137.295 114.422C137.449 114.574 137.602 114.727 137.602 114.727C137.602 114.574 137.602 114.269 137.295 114.117L123.044 105.883C122.585 105.578 121.819 105.578 121.359 105.883L99.9057 118.234C99.5993 118.386 99.446 118.691 99.5993 118.844C99.5993 118.844 99.7525 118.691 99.9057 118.539Z" fill="#D2DFE4"/>
<path opacity="0.4" d="M114.157 79.5045L53.3218 114.422H53.1685L55.3138 115.642L116.149 80.7243H116.302L114.157 79.5045ZM55.3138 115.489L53.475 114.422L114.157 79.6569L115.996 80.7243L55.3138 115.489Z" fill="#C0B9C8"/>
<path d="M120.899 88.5007L117.681 86.671C117.375 86.5185 116.762 86.5185 116.455 86.671L109.1 90.9403C108.947 91.0928 108.794 91.2453 108.794 91.3978C108.794 91.3978 108.794 91.3978 108.794 91.5502C108.794 91.5502 108.794 91.5502 108.794 91.7027C108.794 91.8552 108.794 92.0077 109.1 92.1602L115.536 95.8196C115.842 95.9721 116.455 95.9721 116.762 95.8196L128.868 88.8057C129.021 88.6532 129.174 88.5007 129.174 88.3482C129.174 88.3482 129.174 88.3482 129.174 88.1957C129.174 88.1957 129.174 88.1957 129.174 88.0433C129.174 87.8908 129.174 87.7383 128.868 87.5858L126.416 86.2135C126.109 86.0611 125.803 86.0611 125.65 86.2135L121.512 88.5007C121.512 88.6532 121.206 88.6532 120.899 88.5007Z" fill="#C0B9C8"/>
<path d="M129.02 87.4333L126.568 86.061C126.262 85.9085 125.955 85.9085 125.802 86.061L121.665 88.3481C121.511 88.5006 121.205 88.5006 120.898 88.3481L117.681 86.5184C117.374 86.3659 116.761 86.3659 116.455 86.5184L109.099 90.7877C108.793 90.9402 108.793 91.2452 109.099 91.5501L115.535 95.2096C115.842 95.3621 116.455 95.3621 116.761 95.2096L128.867 88.1956C129.326 88.0432 129.326 87.7382 129.02 87.4333Z" fill="#3D3838"/>
<path d="M82.7431 135.311L85.1949 136.683C85.5014 136.836 85.6546 136.683 85.6546 136.531C85.6546 136.226 85.3481 135.921 85.1949 135.768L82.7431 134.396C82.4366 134.244 82.2834 134.396 82.2834 134.548C82.1302 134.701 82.4366 135.158 82.7431 135.311Z" fill="#282525"/>
<path d="M84.8885 136.378L85.1949 136.531L86.4208 135.768L86.1143 135.616L84.8885 136.378ZM84.1223 135.921L84.4287 136.073L85.6546 135.311L85.3482 135.158L84.1223 135.921ZM83.3561 135.463L83.6626 135.616L84.8885 134.853L84.582 134.701L83.3561 135.463ZM82.5899 135.158L82.8964 135.311L84.1223 134.549L83.8158 134.396L82.5899 135.158Z" fill="#AD852C"/>
<path opacity="0.5" d="M43.5148 56.938L52.8623 108.628L115.536 72.6431L106.189 20.8009L43.5148 56.938Z" fill="#209DE2"/>
<path opacity="0.5" d="M49.3378 54.9557L55.4673 108.018L119.06 71.5757L112.778 18.3612L49.3378 54.9557Z" fill="#15A2F1"/>
<path opacity="0.5" d="M55.1608 52.9735L58.2255 107.56L122.432 70.6608L119.367 16.074L55.1608 52.9735Z" fill="#25C8FB"/>
<path opacity="0.7" d="M60.9837 54.6508V106.95L125.803 69.5936V17.2939L60.9837 54.6508Z" fill="#CFF3FF"/>
</g>
<defs>
<linearGradient id="paint0_linear" x1="94.8666" y1="123.939" x2="99.2755" y2="123.939" gradientUnits="userSpaceOnUse">
<stop stop-color="#B9C2C8"/>
<stop offset="1" stop-color="#DBE0E1"/>
</linearGradient>
<linearGradient id="paint1_linear" x1="51.1019" y1="109.976" x2="149.737" y2="109.976" gradientUnits="userSpaceOnUse">
<stop stop-color="#E5EFF3"/>
<stop offset="1" stop-color="#EEFBFF"/>
</linearGradient>
<clipPath id="clip0">
<rect width="160" height="160" fill="white" transform="translate(0.761719)"/>
</clipPath>
</defs>
</svg>
