<svg width="161" height="160" viewBox="0 0 161 160" fill="none" xmlns="http://www.w3.org/2000/svg">
<g clip-path="url(#clip0)">
<path d="M141.249 51.6823C139.084 51.6823 137.281 52.6386 137.281 53.834C137.281 54.7904 138.243 55.5076 139.566 55.8662L134.034 73.439L18.2238 140.024L17.9833 140.144L13.654 155.445C11.4893 155.445 9.68539 156.402 9.68539 157.597C9.68539 158.793 11.4893 159.868 13.654 159.868C15.8186 159.868 17.6225 158.912 17.6225 157.717C17.6225 156.76 16.5402 155.924 14.8565 155.565L19.0656 141.1L134.875 74.5149L135.116 74.3954L140.888 56.2249C141.009 56.2249 141.129 56.2249 141.369 56.2249C143.534 56.2249 145.338 55.2685 145.338 54.0731C145.218 52.7581 143.414 51.8018 141.249 51.6823Z" fill="url(#paint0_linear)"/>
<path d="M141.249 52.6386C142.572 52.6386 143.654 53.2363 143.654 53.9536C143.654 54.6708 142.572 55.2685 141.249 55.2685C139.926 55.2685 138.844 54.6708 138.844 53.9536C138.844 53.2363 139.926 52.6386 141.249 52.6386Z" fill="white"/>
<path d="M13.6541 156.282C14.9769 156.282 16.0592 156.88 16.0592 157.597C16.0592 158.314 14.9769 158.912 13.6541 158.912C12.3312 158.912 11.2489 158.314 11.2489 157.597C11.2489 156.88 12.3312 156.282 13.6541 156.282Z" fill="white"/>
<path d="M156.402 67.7011C154.598 67.7011 153.035 68.4184 152.554 69.2552H147.503L32.4144 135.362L28.2053 150.186C26.0407 150.186 24.357 151.142 24.357 152.337C24.357 153.533 26.1609 154.609 28.3256 154.609C30.4903 154.609 32.2941 153.652 32.2941 152.457C32.2941 151.501 31.0915 150.544 29.4079 150.305L33.4967 136.199L147.863 70.4506H152.554C153.035 71.4069 154.478 72.0047 156.282 72.1242C158.446 72.1242 160.25 71.1679 160.25 69.9724C160.37 68.777 158.687 67.8207 156.402 67.7011Z" fill="url(#paint1_linear)"/>
<path d="M156.402 68.6575C157.725 68.6575 158.807 69.2552 158.807 69.9725C158.807 70.6898 157.725 71.2875 156.402 71.2875C155.079 71.2875 153.997 70.6898 153.997 69.9725C153.997 69.2552 155.079 68.6575 156.402 68.6575Z" fill="white"/>
<path d="M28.3258 151.142C29.6487 151.142 30.731 151.74 30.731 152.457C30.731 153.174 29.6487 153.772 28.3258 153.772C27.003 153.772 25.9206 153.174 25.9206 152.457C25.9206 151.74 27.003 151.142 28.3258 151.142Z" fill="white"/>
<path d="M137.281 61.0067C137.281 59.8112 135.477 58.7354 133.312 58.7354C131.147 58.7354 129.344 59.6917 129.344 60.8871C129.344 61.8435 130.546 62.7998 132.23 63.0389L131.388 65.7884L38.4275 119.224H9.08416C8.72338 118.268 7.16001 117.431 5.23586 117.431C3.07119 117.431 1.2673 118.387 1.2673 119.583C1.2673 120.778 3.07119 121.854 5.23586 121.854C6.91949 121.854 8.48287 121.256 8.9639 120.419H38.668L132.11 66.7447L132.35 66.6252L133.312 63.1584C135.477 63.1584 137.281 62.2021 137.281 61.0067Z" fill="url(#paint2_linear)"/>
<path d="M5.23597 118.268C6.55882 118.268 7.64115 118.865 7.64115 119.583C7.64115 120.3 6.55882 120.898 5.23597 120.898C3.91311 120.898 2.83078 120.3 2.83078 119.583C2.83078 118.865 3.91311 118.268 5.23597 118.268Z" fill="white"/>
<path d="M133.312 59.5721C134.635 59.5721 135.717 60.1698 135.717 60.887C135.717 61.6043 134.635 62.202 133.312 62.202C131.989 62.202 130.907 61.6043 130.907 60.887C130.907 60.1698 131.989 59.5721 133.312 59.5721Z" fill="white"/>
<path d="M156.402 83.7198C154.478 83.7198 152.794 84.437 152.433 85.5129H142.812L62.84 131.537L62.5994 131.656L58.6309 146.121L45.4023 153.772C44.6808 153.413 43.839 153.294 42.9972 153.294C40.8325 153.294 39.0286 154.25 39.0286 155.445C39.0286 156.641 40.8325 157.717 42.9972 157.717C45.1618 157.717 46.9657 156.76 46.9657 155.565C46.9657 155.206 46.8455 154.967 46.6049 154.728L59.7132 146.958L63.6818 132.493L143.173 86.7084H152.674C153.275 87.5452 154.718 88.1429 156.281 88.1429C158.446 88.1429 160.25 87.1865 160.25 85.9911C160.37 84.7957 158.687 83.7198 156.402 83.7198Z" fill="url(#paint3_linear)"/>
<path d="M42.8769 154.011C44.1998 154.011 45.2821 154.609 45.2821 155.326C45.2821 156.043 44.1998 156.641 42.8769 156.641C41.554 156.641 40.4717 156.043 40.4717 155.326C40.4717 154.609 41.554 154.011 42.8769 154.011Z" fill="white"/>
<path d="M156.402 84.5566C157.725 84.5566 158.807 85.1544 158.807 85.8716C158.807 86.5889 157.725 87.1866 156.402 87.1866C155.079 87.1866 153.997 86.5889 153.997 85.8716C153.997 85.1544 155.079 84.5566 156.402 84.5566Z" fill="white"/>
<path d="M30.0092 126.038C28.6863 126.038 27.604 126.636 27.604 127.353C27.604 127.592 27.7242 127.831 27.9648 128.07L14.7362 135.721C14.1349 135.482 13.4134 135.362 12.5716 135.362C10.4069 135.362 8.603 136.319 8.603 137.514C8.603 138.709 10.4069 139.785 12.5716 139.785C14.7362 139.785 16.5401 138.829 16.5401 137.634C16.5401 137.155 16.2996 136.797 15.9388 136.438L29.4079 128.787C29.6484 128.787 29.7686 128.787 30.0092 128.907C31.332 128.907 32.4144 128.309 32.4144 127.592C32.4144 126.755 31.332 126.157 30.0092 126.038Z" fill="url(#paint4_linear)"/>
<path d="M12.5716 136.199C13.8945 136.199 14.9768 136.797 14.9768 137.514C14.9768 138.231 13.8945 138.829 12.5716 138.829C11.2487 138.829 10.1664 138.231 10.1664 137.514C10.1664 136.797 11.2487 136.199 12.5716 136.199Z" fill="white"/>
<path d="M117.919 108.106L80.518 129.624V119.463L117.919 98.0649V108.106Z" fill="url(#paint5_linear)"/>
<path d="M42.9972 108.106L80.5182 129.624V119.463L42.9972 98.0649V108.106Z" fill="url(#paint6_linear)"/>
<path d="M117.919 98.0649L80.5183 76.5472L42.9973 98.0649L80.5183 119.463L117.919 98.0649Z" fill="url(#paint7_linear)"/>
<path d="M117.919 93.4028L80.518 114.92V104.759L117.919 83.2416V93.4028Z" fill="url(#paint8_linear)"/>
<path d="M42.9972 93.4028L80.5182 114.92V104.759L42.9972 83.2416V93.4028Z" fill="url(#paint9_linear)"/>
<path d="M117.919 83.2416L80.5183 61.7239L42.9973 83.2416L80.5183 104.759L117.919 83.2416Z" fill="url(#paint10_linear)"/>
<path d="M117.919 78.699L80.5181 100.217V90.0556L117.919 68.5379V78.699Z" fill="url(#paint11_linear)"/>
<path d="M42.9973 78.699L80.5183 100.217V90.0556L42.9973 68.5379V78.699Z" fill="url(#paint12_linear)"/>
<path d="M117.919 68.5379L80.5184 47.0201L42.9975 68.5379L80.5184 90.0556L117.919 68.5379Z" fill="url(#paint13_linear)"/>
<path d="M117.919 68.5381L80.458 46.8217L42.9972 68.5381L80.458 90.164L117.919 68.5381Z" fill="url(#paint14_linear)"/>
<g opacity="0.5">
<path opacity="0.5" d="M80.458 49.9888C81.4534 49.9888 82.3582 50.4412 82.2677 51.0746C82.2677 51.6175 81.4534 52.0699 80.3676 52.0699C79.3722 52.0699 78.4674 51.6175 78.5579 50.9841C78.5579 50.4412 79.4627 49.9888 80.458 49.9888Z" fill="white"/>
<path opacity="0.5" d="M86.6111 53.5175C87.6064 53.5175 88.5112 53.9699 88.4208 54.6033C88.4208 55.1462 87.6064 55.5987 86.5206 55.5987C85.5252 55.5987 84.6204 55.1462 84.7109 54.5128C84.7109 53.9699 85.6157 53.427 86.6111 53.5175Z" fill="white"/>
<g opacity="0.5">
<path opacity="0.5" d="M80.4581 56.9559C81.4534 56.9559 82.3583 57.4083 82.2678 58.0417C82.2678 58.5846 81.4534 59.037 80.3676 59.037C79.3723 59.037 78.4674 58.5846 78.5579 57.9512C78.5579 57.4083 79.4628 56.9559 80.4581 56.9559Z" fill="white"/>
<path opacity="0.5" d="M74.486 56.9559C75.4813 56.9559 76.3862 57.4083 76.2957 58.0417C76.2957 58.5846 75.4813 59.037 74.3955 59.037C73.4002 59.037 72.4953 58.5846 72.5858 57.9512C72.5858 57.4083 73.4002 56.9559 74.486 56.9559Z" fill="white"/>
</g>
<g opacity="0.5">
<path opacity="0.5" d="M98.917 60.4849C99.9123 60.4849 100.817 60.9373 100.727 61.5707C100.727 62.1136 99.9123 62.566 98.8265 62.566C97.8312 62.566 96.9263 62.1136 97.0168 61.4802C97.0168 60.9373 97.8311 60.3944 98.917 60.4849Z" fill="white"/>
<path opacity="0.5" d="M68.514 60.4849C69.5093 60.4849 70.4141 60.9373 70.3237 61.5707C70.3237 62.1136 69.5093 62.566 68.4235 62.566C67.4281 62.566 66.5233 62.1136 66.6138 61.4802C66.6138 60.9373 67.4281 60.3944 68.514 60.4849Z" fill="white"/>
<path opacity="0.5" d="M62.4515 60.4849C63.4468 60.4849 64.3516 60.9373 64.2612 61.5707C64.2612 62.1136 63.4468 62.5661 62.361 62.5661C61.3656 62.5661 60.4608 62.1137 60.5513 61.4803C60.6418 60.9373 61.4561 60.3944 62.4515 60.4849Z" fill="white"/>
</g>
<g opacity="0.5">
<path opacity="0.5" d="M80.4581 63.9233C81.4534 63.9233 82.3583 64.3757 82.2678 65.0091C82.2678 65.552 81.4534 66.0044 80.3676 66.0044C79.3723 66.0044 78.4674 65.552 78.5579 64.9186C78.5579 64.3757 79.4628 63.9233 80.4581 63.9233Z" fill="white"/>
<path opacity="0.5" d="M104.98 63.9233C103.984 63.9233 103.079 64.3757 103.079 64.9186C103.079 65.4615 103.894 66.0044 104.889 66.0044C105.885 66.0044 106.789 65.552 106.789 65.0091C106.88 64.4662 106.066 63.9233 104.98 63.9233Z" fill="white"/>
<path opacity="0.5" d="M74.4861 63.9233C75.4815 63.9233 76.3863 64.3757 76.2958 65.0091C76.2958 65.552 75.4815 66.0044 74.3956 66.0044C73.4003 66.0044 72.4955 65.552 72.5859 64.9186C72.5859 64.3757 73.4003 63.9233 74.4861 63.9233Z" fill="white"/>
<path opacity="0.5" d="M68.5143 63.9233C69.5097 63.9233 70.4145 64.3757 70.324 65.0091C70.324 65.552 69.5097 66.0044 68.4238 66.0044C67.4285 66.0044 66.5237 65.552 66.6141 64.9186C66.6141 64.3757 67.4285 63.9233 68.5143 63.9233Z" fill="white"/>
<path opacity="0.5" d="M56.4795 63.9236C57.4748 63.9236 58.3797 64.3761 58.2892 65.0095C58.2892 65.5524 57.4748 66.0048 56.389 66.0048C55.3937 66.0048 54.4888 65.5524 54.5793 64.919C54.5793 64.3761 55.4841 63.9236 56.4795 63.9236Z" fill="white"/>
</g>
<g opacity="0.5">
<path opacity="0.5" d="M86.6111 67.4523C87.6064 67.4523 88.5112 67.9047 88.4208 68.5381C88.3303 69.1715 87.6064 69.5334 86.5206 69.5334C85.5252 69.5334 84.6204 69.081 84.7109 68.4476C84.7109 67.9047 85.6157 67.3618 86.6111 67.4523Z" fill="white"/>
<path opacity="0.5" d="M92.7638 67.4523C93.7591 67.4523 94.664 67.9047 94.5735 68.5381C94.483 69.1715 93.7591 69.5334 92.6733 69.5334C91.678 69.5334 90.7731 69.081 90.8636 68.4476C90.8636 67.9047 91.678 67.3618 92.7638 67.4523Z" fill="white"/>
<path opacity="0.5" d="M98.917 67.4523C99.9124 67.4523 100.817 67.9047 100.727 68.5381C100.636 69.1715 99.9124 69.5334 98.8265 69.5334C97.8312 69.5334 96.9264 69.081 97.0168 68.4476C97.0168 67.9047 97.8312 67.3618 98.917 67.4523Z" fill="white"/>
<path opacity="0.5" d="M111.132 67.4523C112.128 67.4523 113.032 67.9047 112.942 68.5381C112.942 69.081 112.128 69.5334 111.042 69.5334C110.046 69.5334 109.142 69.081 109.232 68.4476C109.323 67.9047 110.137 67.3618 111.132 67.4523Z" fill="white"/>
<path opacity="0.5" d="M50.5074 67.4526C51.5028 67.4526 52.4076 67.905 52.3171 68.5384C52.3171 69.0814 51.5028 69.5338 50.4169 69.5338C49.4216 69.5338 48.5168 69.0814 48.6072 68.448C48.6072 67.9051 49.4216 67.3621 50.5074 67.4526Z" fill="white"/>
</g>
<g opacity="0.5">
<path opacity="0.5" d="M104.98 70.8907C105.975 70.8907 106.88 71.3431 106.789 71.9765C106.789 72.5194 105.975 72.9718 104.889 72.9718C103.894 72.9718 102.989 72.5194 103.079 71.886C103.17 71.3431 103.984 70.8907 104.98 70.8907Z" fill="white"/>
</g>
<g opacity="0.5">
<path opacity="0.5" d="M80.4577 74.4197C81.4531 74.4197 82.3579 74.8721 82.2674 75.5055C82.2674 76.0484 81.4531 76.5008 80.3673 76.5008C79.3719 76.5008 78.4671 76.0484 78.5576 75.415C78.5576 74.8721 79.4624 74.3292 80.4577 74.4197Z" fill="white"/>
<path opacity="0.5" d="M92.7637 74.4197C93.7591 74.4197 94.6639 74.8721 94.5734 75.5055C94.5734 76.0484 93.759 76.5008 92.6732 76.5008C91.6779 76.5008 90.773 76.0484 90.8635 75.415C90.8635 74.8721 91.6779 74.3292 92.7637 74.4197Z" fill="white"/>
<path opacity="0.5" d="M98.917 74.4197C99.9123 74.4197 100.817 74.8721 100.727 75.5055C100.727 76.0484 99.9123 76.5008 98.8265 76.5008C97.8312 76.5008 96.9263 76.0484 97.0168 75.415C97.0168 74.8721 97.8311 74.3292 98.917 74.4197Z" fill="white"/>
<path opacity="0.5" d="M74.4859 74.4197C75.4813 74.4197 76.3861 74.8721 76.2956 75.5055C76.2956 76.0484 75.4813 76.5008 74.3955 76.5008C73.4001 76.5008 72.4953 76.0484 72.5858 75.415C72.5858 74.8721 73.4001 74.3292 74.4859 74.4197Z" fill="white"/>
<path opacity="0.5" d="M68.514 74.4197C69.5093 74.4197 70.4141 74.8721 70.3237 75.5055C70.3237 76.0484 69.5093 76.5008 68.4235 76.5008C67.4281 76.5008 66.5233 76.0484 66.6138 75.415C66.6138 74.8721 67.4281 74.3292 68.514 74.4197Z" fill="white"/>
<path opacity="0.5" d="M62.4515 74.4196C63.4468 74.4196 64.3516 74.872 64.2612 75.5054C64.2612 76.0483 63.4468 76.5008 62.361 76.5008C61.3656 76.5008 60.4608 76.0483 60.5513 75.4149C60.6418 74.872 61.4561 74.3291 62.4515 74.4196Z" fill="white"/>
</g>
<g opacity="0.5">
<path opacity="0.5" d="M74.486 77.858C75.4813 77.858 76.3862 78.3104 76.2957 78.9438C76.2957 79.4867 75.4813 79.9391 74.3955 79.9391C73.4002 79.9391 72.4953 79.4867 72.5858 78.8533C72.5858 78.3104 73.4002 77.858 74.486 77.858Z" fill="white"/>
</g>
<g opacity="0.5">
<path opacity="0.5" d="M86.6111 81.3869C87.6064 81.3869 88.5112 81.8393 88.4208 82.4727C88.4208 83.0156 87.6064 83.468 86.5206 83.468C85.5252 83.468 84.6204 83.0156 84.7109 82.3822C84.8014 81.7488 85.6157 81.2964 86.6111 81.3869Z" fill="white"/>
</g>
<g opacity="0.5">
<path opacity="0.5" d="M80.458 84.8254C81.4534 84.8254 82.3582 85.2778 82.2677 85.9112C82.2677 86.4541 81.4534 86.9065 80.3676 86.9065C79.3722 86.9065 78.4674 86.4541 78.5579 85.8207C78.5579 85.2778 79.4627 84.8254 80.458 84.8254Z" fill="white"/>
</g>
</g>
<g opacity="0.7">
<mask id="mask0" mask-type="alpha" maskUnits="userSpaceOnUse" x="78" y="0" width="5" height="53">
<g opacity="0.7">
<g opacity="0.7">
<path opacity="0.7" d="M80.4581 1.21723C79.4627 1.21723 78.5579 0.764804 78.5579 0.131409V51.0745C78.5579 51.6174 79.3723 52.1603 80.4581 52.1603C81.5439 52.1603 82.3583 51.7079 82.3583 51.0745V0.131409C82.2678 0.764804 81.4534 1.21723 80.4581 1.21723Z" fill="url(#paint15_linear)"/>
</g>
</g>
</mask>
<g mask="url(#mask0)">
<path opacity="0.7" d="M80.4581 1.21723C79.4627 1.21723 78.5579 0.764804 78.5579 0.131409V51.0745C78.5579 51.6174 79.3723 52.1603 80.4581 52.1603C81.5439 52.1603 82.3583 51.7079 82.3583 51.0745V0.131409C82.2678 0.764804 81.4534 1.21723 80.4581 1.21723Z" fill="url(#paint16_linear)"/>
</g>
</g>
<g opacity="0.7">
<mask id="mask1" mask-type="alpha" maskUnits="userSpaceOnUse" x="96" y="10" width="5" height="53">
<g opacity="0.7">
<g opacity="0.7">
<path opacity="0.7" d="M98.8264 11.8944C97.831 11.8944 96.9262 11.442 96.9262 10.8086V61.3897C96.9262 61.9326 97.7405 62.4755 98.8264 62.4755C99.9122 62.4755 100.727 62.0231 100.727 61.3897V10.8991C100.727 11.442 99.9122 11.8944 98.8264 11.8944Z" fill="url(#paint17_linear)"/>
</g>
</g>
</mask>
<g mask="url(#mask1)">
<path opacity="0.7" d="M98.8264 11.8944C97.831 11.8944 96.9262 11.442 96.9262 10.8086V61.3897C96.9262 61.9326 97.7405 62.4755 98.8264 62.4755C99.9122 62.4755 100.727 62.0231 100.727 61.3897V10.8991C100.727 11.442 99.9122 11.8944 98.8264 11.8944Z" fill="url(#paint18_linear)"/>
</g>
</g>
<g opacity="0.7">
<mask id="mask2" mask-type="alpha" maskUnits="userSpaceOnUse" x="103" y="28" width="4" height="39">
<g opacity="0.7">
<g opacity="0.7">
<path opacity="0.7" d="M104.979 29.9915C103.984 29.9915 103.079 29.539 103.079 28.9056V64.9187C103.079 65.4616 103.894 66.0045 104.979 66.0045C105.975 66.0045 106.88 65.5521 106.88 64.9187V28.9961C106.88 29.539 106.065 29.9915 104.979 29.9915Z" fill="url(#paint19_linear)"/>
</g>
</g>
</mask>
<g mask="url(#mask2)">
<path opacity="0.7" d="M104.979 29.9915C103.984 29.9915 103.079 29.539 103.079 28.9056V64.9187C103.079 65.4616 103.894 66.0045 104.979 66.0045C105.975 66.0045 106.88 65.5521 106.88 64.9187V28.9961C106.88 29.539 106.065 29.9915 104.979 29.9915Z" fill="url(#paint20_linear)"/>
</g>
</g>
<g opacity="0.7">
<mask id="mask3" mask-type="alpha" maskUnits="userSpaceOnUse" x="109" y="35" width="5" height="35">
<g opacity="0.7">
<g opacity="0.7">
<path opacity="0.7" d="M111.132 36.3254C110.137 36.3254 109.232 35.873 109.232 35.2396V68.5381C109.232 69.081 110.047 69.6239 111.132 69.6239C112.128 69.6239 113.033 69.1715 113.033 68.5381V35.2396C113.033 35.7825 112.128 36.3254 111.132 36.3254Z" fill="url(#paint21_linear)"/>
</g>
</g>
</mask>
<g mask="url(#mask3)">
<path opacity="0.7" d="M111.132 36.3254C110.137 36.3254 109.232 35.873 109.232 35.2396V68.5381C109.232 69.081 110.047 69.6239 111.132 69.6239C112.128 69.6239 113.033 69.1715 113.033 68.5381V35.2396C113.033 35.7825 112.128 36.3254 111.132 36.3254Z" fill="url(#paint22_linear)"/>
</g>
</g>
<g opacity="0.7">
<mask id="mask4" mask-type="alpha" maskUnits="userSpaceOnUse" x="103" y="45" width="4" height="29">
<g opacity="0.7">
<g opacity="0.7">
<path opacity="0.7" d="M104.979 47.0025C103.984 47.0025 103.079 46.5501 103.079 45.9167V71.9764C103.079 72.5193 103.894 73.0622 104.979 73.0622C105.975 73.0622 106.88 72.6098 106.88 71.9764V45.9167C106.88 46.4596 106.065 47.0025 104.979 47.0025Z" fill="url(#paint23_linear)"/>
</g>
</g>
</mask>
<g mask="url(#mask4)">
<path opacity="0.7" d="M104.979 47.0025C103.984 47.0025 103.079 46.5501 103.079 45.9167V71.9764C103.079 72.5193 103.894 73.0622 104.979 73.0622C105.975 73.0622 106.88 72.6098 106.88 71.9764V45.9167C106.88 46.4596 106.065 47.0025 104.979 47.0025Z" fill="url(#paint24_linear)"/>
</g>
</g>
<g opacity="0.7">
<mask id="mask5" mask-type="alpha" maskUnits="userSpaceOnUse" x="96" y="33" width="5" height="37">
<g opacity="0.7">
<g opacity="0.7">
<path opacity="0.7" d="M98.8264 34.6967C97.831 34.6967 96.9262 34.2442 96.9262 33.6108V68.4476C96.9262 68.9905 97.7405 69.5334 98.8264 69.5334C99.9122 69.5334 100.727 69.081 100.727 68.4476V33.6108C100.727 34.1537 99.9122 34.6967 98.8264 34.6967Z" fill="url(#paint25_linear)"/>
</g>
</g>
</mask>
<g mask="url(#mask5)">
<path opacity="0.7" d="M98.8264 34.6967C97.831 34.6967 96.9262 34.2442 96.9262 33.6108V68.4476C96.9262 68.9905 97.7405 69.5334 98.8264 69.5334C99.9122 69.5334 100.727 69.081 100.727 68.4476V33.6108C100.727 34.1537 99.9122 34.6967 98.8264 34.6967Z" fill="url(#paint26_linear)"/>
</g>
</g>
<g opacity="0.7">
<mask id="mask6" mask-type="alpha" maskUnits="userSpaceOnUse" x="90" y="13" width="5" height="48">
<g opacity="0.7">
<g opacity="0.7">
<path opacity="0.7" d="M92.7639 15.0614C91.7685 15.0614 90.8637 14.609 90.8637 13.9756V59.0371C90.8637 59.58 91.678 60.1229 92.7639 60.1229C93.7592 60.1229 94.6641 59.6705 94.6641 59.0371V14.0661C94.5736 14.609 93.7592 15.0614 92.7639 15.0614Z" fill="url(#paint27_linear)"/>
</g>
</g>
</mask>
<g mask="url(#mask6)">
<path opacity="0.7" d="M92.7639 15.0614C91.7685 15.0614 90.8637 14.609 90.8637 13.9756V59.0371C90.8637 59.58 91.678 60.1229 92.7639 60.1229C93.7592 60.1229 94.6641 59.6705 94.6641 59.0371V14.0661C94.5736 14.609 93.7592 15.0614 92.7639 15.0614Z" fill="url(#paint28_linear)"/>
</g>
</g>
<g opacity="0.7">
<mask id="mask7" mask-type="alpha" maskUnits="userSpaceOnUse" x="72" y="7" width="5" height="53">
<g opacity="0.7">
<g opacity="0.7">
<path opacity="0.7" d="M74.4861 8.18451C73.4908 8.18451 72.5859 7.73209 72.5859 7.09869V58.0418C72.5859 58.5847 73.4003 59.1276 74.4861 59.1276C75.5719 59.1276 76.3863 58.6752 76.3863 58.0418V7.09869C76.2958 7.6416 75.4814 8.18451 74.4861 8.18451Z" fill="url(#paint29_linear)"/>
</g>
</g>
</mask>
<g mask="url(#mask7)">
<path opacity="0.7" d="M74.4861 8.18451C73.4908 8.18451 72.5859 7.73209 72.5859 7.09869V58.0418C72.5859 58.5847 73.4003 59.1276 74.4861 59.1276C75.5719 59.1276 76.3863 58.6752 76.3863 58.0418V7.09869C76.2958 7.6416 75.4814 8.18451 74.4861 8.18451Z" fill="url(#paint30_linear)"/>
</g>
</g>
<g opacity="0.7">
<mask id="mask8" mask-type="alpha" maskUnits="userSpaceOnUse" x="72" y="22" width="5" height="45">
<g opacity="0.7">
<g opacity="0.7">
<path opacity="0.7" d="M74.4861 24.0195C73.4908 24.0195 72.5859 23.567 72.5859 22.9337V65.0092C72.5859 65.5521 73.4003 66.095 74.4861 66.095C75.5719 66.095 76.3863 65.6426 76.3863 65.0092V22.9337C76.2958 23.4766 75.4814 24.0195 74.4861 24.0195Z" fill="url(#paint31_linear)"/>
</g>
</g>
</mask>
<g mask="url(#mask8)">
<path opacity="0.7" d="M74.4861 24.0195C73.4908 24.0195 72.5859 23.567 72.5859 22.9337V65.0092C72.5859 65.5521 73.4003 66.095 74.4861 66.095C75.5719 66.095 76.3863 65.6426 76.3863 65.0092V22.9337C76.2958 23.4766 75.4814 24.0195 74.4861 24.0195Z" fill="url(#paint32_linear)"/>
</g>
</g>
<g opacity="0.7">
<mask id="mask9" mask-type="alpha" maskUnits="userSpaceOnUse" x="72" y="39" width="5" height="38">
<g opacity="0.7">
<g opacity="0.7">
<path opacity="0.7" d="M74.4861 40.6687C73.4908 40.6687 72.5859 40.2163 72.5859 39.5829V75.4149C72.5859 75.9579 73.4003 76.5008 74.4861 76.5008C75.5719 76.5008 76.3863 76.0483 76.3863 75.4149V39.5829C76.2958 40.2163 75.4814 40.6687 74.4861 40.6687Z" fill="url(#paint33_linear)"/>
</g>
</g>
</mask>
<g mask="url(#mask9)">
<path opacity="0.7" d="M74.4861 40.6687C73.4908 40.6687 72.5859 40.2163 72.5859 39.5829V75.4149C72.5859 75.9579 73.4003 76.5008 74.4861 76.5008C75.5719 76.5008 76.3863 76.0483 76.3863 75.4149V39.5829C76.2958 40.2163 75.4814 40.6687 74.4861 40.6687Z" fill="url(#paint34_linear)"/>
</g>
</g>
<g opacity="0.7">
<mask id="mask10" mask-type="alpha" maskUnits="userSpaceOnUse" x="72" y="54" width="5" height="26">
<g opacity="0.7">
<g opacity="0.7">
<path opacity="0.7" d="M74.4861 55.3273C73.4908 55.3273 72.5859 54.8749 72.5859 54.2415V78.8534C72.5859 79.3963 73.4003 79.9392 74.4861 79.9392C75.5719 79.9392 76.3863 79.4868 76.3863 78.8534V54.3319C76.2958 54.8748 75.4814 55.3273 74.4861 55.3273Z" fill="url(#paint35_linear)"/>
</g>
</g>
</mask>
<g mask="url(#mask10)">
<path opacity="0.7" d="M74.4861 55.3273C73.4908 55.3273 72.5859 54.8749 72.5859 54.2415V78.8534C72.5859 79.3963 73.4003 79.9392 74.4861 79.9392C75.5719 79.9392 76.3863 79.4868 76.3863 78.8534V54.3319C76.2958 54.8748 75.4814 55.3273 74.4861 55.3273Z" fill="url(#paint36_linear)"/>
</g>
</g>
<g opacity="0.7">
<mask id="mask11" mask-type="alpha" maskUnits="userSpaceOnUse" x="60" y="10" width="5" height="53">
<g opacity="0.7">
<g opacity="0.7">
<path opacity="0.7" d="M62.4512 11.6229C61.4559 11.6229 60.5511 11.1705 60.5511 10.5371V61.4802C60.5511 62.0231 61.3654 62.566 62.4512 62.566C63.4466 62.566 64.3514 62.1136 64.3514 61.4802V10.6276C64.3514 11.1705 63.5371 11.6229 62.4512 11.6229Z" fill="url(#paint37_linear)"/>
</g>
</g>
</mask>
<g mask="url(#mask11)">
<path opacity="0.7" d="M62.4512 11.6229C61.4559 11.6229 60.5511 11.1705 60.5511 10.5371V61.4802C60.5511 62.0231 61.3654 62.566 62.4512 62.566C63.4466 62.566 64.3514 62.1136 64.3514 61.4802V10.6276C64.3514 11.1705 63.5371 11.6229 62.4512 11.6229Z" fill="url(#paint38_linear)"/>
</g>
</g>
<g opacity="0.7">
<mask id="mask12" mask-type="alpha" maskUnits="userSpaceOnUse" x="60" y="44" width="5" height="33">
<g opacity="0.7">
<g opacity="0.7">
<path opacity="0.7" d="M62.4512 45.4645C61.4559 45.4645 60.5511 45.0121 60.5511 44.3787V75.415C60.5511 75.9579 61.3654 76.5008 62.4512 76.5008C63.4466 76.5008 64.3514 76.0484 64.3514 75.415V44.3787C64.3514 45.0121 63.5371 45.4645 62.4512 45.4645Z" fill="url(#paint39_linear)"/>
</g>
</g>
</mask>
<g mask="url(#mask12)">
<path opacity="0.7" d="M62.4512 45.4645C61.4559 45.4645 60.5511 45.0121 60.5511 44.3787V75.415C60.5511 75.9579 61.3654 76.5008 62.4512 76.5008C63.4466 76.5008 64.3514 76.0484 64.3514 75.415V44.3787C64.3514 45.0121 63.5371 45.4645 62.4512 45.4645Z" fill="url(#paint40_linear)"/>
</g>
</g>
<g opacity="0.7">
<mask id="mask13" mask-type="alpha" maskUnits="userSpaceOnUse" x="48" y="33" width="5" height="37">
<g opacity="0.7">
<g opacity="0.7">
<path opacity="0.7" d="M50.5075 34.7871C49.5121 34.7871 48.6073 34.3347 48.6073 33.7013V68.4475C48.6073 68.9904 49.4216 69.5334 50.5075 69.5334C51.5028 69.5334 52.4076 69.0809 52.4076 68.4475V33.7918C52.3172 34.3347 51.5028 34.7871 50.5075 34.7871Z" fill="url(#paint41_linear)"/>
</g>
</g>
</mask>
<g mask="url(#mask13)">
<path opacity="0.7" d="M50.5075 34.7871C49.5121 34.7871 48.6073 34.3347 48.6073 33.7013V68.4475C48.6073 68.9904 49.4216 69.5334 50.5075 69.5334C51.5028 69.5334 52.4076 69.0809 52.4076 68.4475V33.7918C52.3172 34.3347 51.5028 34.7871 50.5075 34.7871Z" fill="url(#paint42_linear)"/>
</g>
</g>
<g opacity="0.7">
<mask id="mask14" mask-type="alpha" maskUnits="userSpaceOnUse" x="54" y="20" width="5" height="47">
<g opacity="0.7">
<g opacity="0.7">
<path opacity="0.7" d="M56.4795 21.2144C55.4842 21.2144 54.5793 20.762 54.5793 20.1286V64.9187C54.5793 65.4616 55.3937 66.0045 56.4795 66.0045C57.4748 66.0045 58.3797 65.5521 58.3797 64.9187V20.2191C58.2892 20.762 57.4748 21.2144 56.4795 21.2144Z" fill="url(#paint43_linear)"/>
</g>
</g>
</mask>
<g mask="url(#mask14)">
<path opacity="0.7" d="M56.4795 21.2144C55.4842 21.2144 54.5793 20.762 54.5793 20.1286V64.9187C54.5793 65.4616 55.3937 66.0045 56.4795 66.0045C57.4748 66.0045 58.3797 65.5521 58.3797 64.9187V20.2191C58.2892 20.762 57.4748 21.2144 56.4795 21.2144Z" fill="url(#paint44_linear)"/>
</g>
</g>
<g opacity="0.7">
<mask id="mask15" mask-type="alpha" maskUnits="userSpaceOnUse" x="66" y="19" width="5" height="44">
<g opacity="0.7">
<g opacity="0.7">
<path opacity="0.7" d="M68.4235 20.1285C67.4282 20.1285 66.5233 19.6761 66.5233 19.0427V61.4802C66.5233 62.0231 67.3377 62.566 68.4235 62.566C69.4189 62.566 70.3237 62.1136 70.3237 61.4802V19.0427C70.3237 19.5856 69.5093 20.1285 68.4235 20.1285Z" fill="url(#paint45_linear)"/>
</g>
</g>
</mask>
<g mask="url(#mask15)">
<path opacity="0.7" d="M68.4235 20.1285C67.4282 20.1285 66.5233 19.6761 66.5233 19.0427V61.4802C66.5233 62.0231 67.3377 62.566 68.4235 62.566C69.4189 62.566 70.3237 62.1136 70.3237 61.4802V19.0427C70.3237 19.5856 69.5093 20.1285 68.4235 20.1285Z" fill="url(#paint46_linear)"/>
</g>
</g>
<g opacity="0.7">
<mask id="mask16" mask-type="alpha" maskUnits="userSpaceOnUse" x="84" y="6" width="5" height="50">
<g opacity="0.7">
<g opacity="0.7">
<path opacity="0.7" d="M86.6111 7.55121C85.6158 7.55121 84.7109 7.09879 84.7109 6.46539V54.5129C84.7109 55.0558 85.5253 55.5988 86.6111 55.5988C87.6064 55.5988 88.5113 55.1463 88.5113 54.5129V6.55588C88.4208 7.09879 87.6064 7.55121 86.6111 7.55121Z" fill="url(#paint47_linear)"/>
</g>
</g>
</mask>
<g mask="url(#mask16)">
<path opacity="0.7" d="M86.6111 7.55121C85.6158 7.55121 84.7109 7.09879 84.7109 6.46539V54.5129C84.7109 55.0558 85.5253 55.5988 86.6111 55.5988C87.6064 55.5988 88.5113 55.1463 88.5113 54.5129V6.55588C88.4208 7.09879 87.6064 7.55121 86.6111 7.55121Z" fill="url(#paint48_linear)"/>
</g>
</g>
<g opacity="0.7">
<mask id="mask17" mask-type="alpha" maskUnits="userSpaceOnUse" x="84" y="34" width="5" height="36">
<g opacity="0.7">
<g opacity="0.7">
<path opacity="0.7" d="M86.6111 35.2396C85.6158 35.2396 84.7109 34.7871 84.7109 34.1537V68.4476C84.7109 68.9905 85.5253 69.5334 86.6111 69.5334C87.6064 69.5334 88.5113 69.081 88.5113 68.4476V34.2442C88.4208 34.7871 87.6064 35.2396 86.6111 35.2396Z" fill="url(#paint49_linear)"/>
</g>
</g>
</mask>
<g mask="url(#mask17)">
<path opacity="0.7" d="M86.6111 35.2396C85.6158 35.2396 84.7109 34.7871 84.7109 34.1537V68.4476C84.7109 68.9905 85.5253 69.5334 86.6111 69.5334C87.6064 69.5334 88.5113 69.081 88.5113 68.4476V34.2442C88.4208 34.7871 87.6064 35.2396 86.6111 35.2396Z" fill="url(#paint50_linear)"/>
</g>
</g>
<g opacity="0.7">
<mask id="mask18" mask-type="alpha" maskUnits="userSpaceOnUse" x="84" y="61" width="5" height="23">
<g opacity="0.7">
<g opacity="0.7">
<path opacity="0.7" d="M86.6111 62.8375C85.6158 62.8375 84.7109 62.385 84.7109 61.7516V82.3822C84.7109 82.9251 85.5253 83.4681 86.6111 83.4681C87.6064 83.4681 88.5113 83.0156 88.5113 82.3822V61.7516C88.4208 62.385 87.6064 62.8375 86.6111 62.8375Z" fill="url(#paint51_linear)"/>
</g>
</g>
</mask>
<g mask="url(#mask18)">
<path opacity="0.7" d="M86.6111 62.8375C85.6158 62.8375 84.7109 62.385 84.7109 61.7516V82.3822C84.7109 82.9251 85.5253 83.4681 86.6111 83.4681C87.6064 83.4681 88.5113 83.0156 88.5113 82.3822V61.7516C88.4208 62.385 87.6064 62.8375 86.6111 62.8375Z" fill="url(#paint52_linear)"/>
</g>
</g>
<g opacity="0.7">
<mask id="mask19" mask-type="alpha" maskUnits="userSpaceOnUse" x="90" y="24" width="5" height="46">
<g opacity="0.7">
<g opacity="0.7">
<path opacity="0.7" d="M92.7639 25.3767C91.7685 25.3767 90.8637 24.9242 90.8637 24.2908V68.4475C90.8637 68.9904 91.678 69.5333 92.7639 69.5333C93.7592 69.5333 94.6641 69.0809 94.6641 68.4475V24.2908C94.5736 24.9242 93.7592 25.3767 92.7639 25.3767Z" fill="url(#paint53_linear)"/>
</g>
</g>
</mask>
<g mask="url(#mask19)">
<path opacity="0.7" d="M92.7639 25.3767C91.7685 25.3767 90.8637 24.9242 90.8637 24.2908V68.4475C90.8637 68.9904 91.678 69.5333 92.7639 69.5333C93.7592 69.5333 94.6641 69.0809 94.6641 68.4475V24.2908C94.5736 24.9242 93.7592 25.3767 92.7639 25.3767Z" fill="url(#paint54_linear)"/>
</g>
</g>
<g opacity="0.7">
<mask id="mask20" mask-type="alpha" maskUnits="userSpaceOnUse" x="90" y="48" width="5" height="29">
<g opacity="0.7">
<g opacity="0.7">
<path opacity="0.7" d="M92.7639 49.8982C91.7685 49.8982 90.8637 49.4458 90.8637 48.8124V75.415C90.8637 75.9579 91.678 76.5008 92.7639 76.5008C93.7592 76.5008 94.6641 76.0484 94.6641 75.415V48.8124C94.5736 49.3553 93.7592 49.8982 92.7639 49.8982Z" fill="url(#paint55_linear)"/>
</g>
</g>
</mask>
<g mask="url(#mask20)">
<path opacity="0.7" d="M92.7639 49.8982C91.7685 49.8982 90.8637 49.4458 90.8637 48.8124V75.415C90.8637 75.9579 91.678 76.5008 92.7639 76.5008C93.7592 76.5008 94.6641 76.0484 94.6641 75.415V48.8124C94.5736 49.3553 93.7592 49.8982 92.7639 49.8982Z" fill="url(#paint56_linear)"/>
</g>
</g>
<g opacity="0.7">
<mask id="mask21" mask-type="alpha" maskUnits="userSpaceOnUse" x="66" y="29" width="5" height="38">
<g opacity="0.7">
<g opacity="0.7">
<path opacity="0.7" d="M68.4235 30.6248C67.4282 30.6248 66.5233 30.1723 66.5233 29.5389V64.9186C66.5233 65.4615 67.3377 66.0044 68.4235 66.0044C69.4189 66.0044 70.3237 65.552 70.3237 64.9186V29.5389C70.3237 30.1723 69.5093 30.6248 68.4235 30.6248Z" fill="url(#paint57_linear)"/>
</g>
</g>
</mask>
<g mask="url(#mask21)">
<path opacity="0.7" d="M68.4235 30.6248C67.4282 30.6248 66.5233 30.1723 66.5233 29.5389V64.9186C66.5233 65.4615 67.3377 66.0044 68.4235 66.0044C69.4189 66.0044 70.3237 65.552 70.3237 64.9186V29.5389C70.3237 30.1723 69.5093 30.6248 68.4235 30.6248Z" fill="url(#paint58_linear)"/>
</g>
</g>
<g opacity="0.7">
<mask id="mask22" mask-type="alpha" maskUnits="userSpaceOnUse" x="66" y="34" width="5" height="43">
<g opacity="0.7">
<g opacity="0.7">
<path opacity="0.7" d="M68.4235 35.873C67.4282 35.873 66.5233 35.4206 66.5233 34.7872V75.4149C66.5233 75.9578 67.3377 76.5008 68.4235 76.5008C69.4189 76.5008 70.3237 76.0483 70.3237 75.4149V34.7872C70.3237 35.4206 69.5093 35.873 68.4235 35.873Z" fill="url(#paint59_linear)"/>
</g>
</g>
</mask>
<g mask="url(#mask22)">
<path opacity="0.7" d="M68.4235 35.873C67.4282 35.873 66.5233 35.4206 66.5233 34.7872V75.4149C66.5233 75.9578 67.3377 76.5008 68.4235 76.5008C69.4189 76.5008 70.3237 76.0483 70.3237 75.4149V34.7872C70.3237 35.4206 69.5093 35.873 68.4235 35.873Z" fill="url(#paint60_linear)"/>
</g>
</g>
<g opacity="0.7">
<mask id="mask23" mask-type="alpha" maskUnits="userSpaceOnUse" x="78" y="15" width="5" height="45">
<g opacity="0.7">
<g opacity="0.7">
<path opacity="0.7" d="M80.4581 16.4188C79.4627 16.4188 78.5579 15.9663 78.5579 15.3329V58.0419C78.5579 58.5848 79.3723 59.1277 80.4581 59.1277C81.5439 59.1277 82.3583 58.6753 82.3583 58.0419V15.3329C82.2678 15.8759 81.4534 16.4188 80.4581 16.4188Z" fill="url(#paint61_linear)"/>
</g>
</g>
</mask>
<g mask="url(#mask23)">
<path opacity="0.7" d="M80.4581 16.4188C79.4627 16.4188 78.5579 15.9663 78.5579 15.3329V58.0419C78.5579 58.5848 79.3723 59.1277 80.4581 59.1277C81.5439 59.1277 82.3583 58.6753 82.3583 58.0419V15.3329C82.2678 15.8759 81.4534 16.4188 80.4581 16.4188Z" fill="url(#paint62_linear)"/>
</g>
</g>
<g opacity="0.7">
<mask id="mask24" mask-type="alpha" maskUnits="userSpaceOnUse" x="78" y="22" width="5" height="45">
<g opacity="0.7">
<g opacity="0.7">
<path opacity="0.7" d="M80.4581 23.2955C79.4627 23.2955 78.5579 22.8431 78.5579 22.2097V64.9186C78.5579 65.4616 79.3723 66.0045 80.4581 66.0045C81.5439 66.0045 82.3583 65.552 82.3583 64.9186V22.2097C82.2678 22.7526 81.4534 23.2955 80.4581 23.2955Z" fill="url(#paint63_linear)"/>
</g>
</g>
</mask>
<g mask="url(#mask24)">
<path opacity="0.7" d="M80.4581 23.2955C79.4627 23.2955 78.5579 22.8431 78.5579 22.2097V64.9186C78.5579 65.4616 79.3723 66.0045 80.4581 66.0045C81.5439 66.0045 82.3583 65.552 82.3583 64.9186V22.2097C82.2678 22.7526 81.4534 23.2955 80.4581 23.2955Z" fill="url(#paint64_linear)"/>
</g>
</g>
<g opacity="0.7">
<mask id="mask25" mask-type="alpha" maskUnits="userSpaceOnUse" x="78" y="32" width="5" height="45">
<g opacity="0.7">
<g opacity="0.7">
<path opacity="0.7" d="M80.4581 33.7918C79.4627 33.7918 78.5579 33.3393 78.5579 32.7059V75.4149C78.5579 75.9578 79.3723 76.5007 80.4581 76.5007C81.5439 76.5007 82.3583 76.0483 82.3583 75.4149V32.7059C82.2678 33.3393 81.4534 33.7918 80.4581 33.7918Z" fill="url(#paint65_linear)"/>
</g>
</g>
</mask>
<g mask="url(#mask25)">
<path opacity="0.7" d="M80.4581 33.7918C79.4627 33.7918 78.5579 33.3393 78.5579 32.7059V75.4149C78.5579 75.9578 79.3723 76.5007 80.4581 76.5007C81.5439 76.5007 82.3583 76.0482 82.3583 75.4149V32.7059C82.2678 33.3393 81.4534 33.7918 80.4581 33.7918Z" fill="url(#paint66_linear)"/>
</g>
</g>
<g opacity="0.7">
<mask id="mask26" mask-type="alpha" maskUnits="userSpaceOnUse" x="78" y="68" width="5" height="19">
<g opacity="0.7">
<g opacity="0.7">
<path opacity="0.7" d="M80.4581 69.8049C79.4627 69.8049 78.5579 69.3525 78.5579 68.7191V85.8207C78.5579 86.3636 79.3723 86.9065 80.4581 86.9065C81.5439 86.9065 82.3583 86.4541 82.3583 85.8207V68.8095C82.2678 69.3524 81.4534 69.8049 80.4581 69.8049Z" fill="url(#paint67_linear)"/>
</g>
</g>
</mask>
<g mask="url(#mask26)">
<path opacity="0.7" d="M80.4581 69.8049C79.4627 69.8049 78.5579 69.3525 78.5579 68.7191V85.8207C78.5579 86.3636 79.3723 86.9065 80.4581 86.9065C81.5439 86.9065 82.3583 86.4541 82.3583 85.8207V68.8095C82.2678 69.3524 81.4534 69.8049 80.4581 69.8049Z" fill="url(#paint68_linear)"/>
</g>
</g>
<g opacity="0.7">
<mask id="mask27" mask-type="alpha" maskUnits="userSpaceOnUse" x="96" y="57" width="5" height="20">
<g opacity="0.7">
<g opacity="0.7">
<path opacity="0.7" d="M98.8264 58.9467C97.831 58.9467 96.9262 58.4943 96.9262 57.8609V75.415C96.9262 75.9579 97.7405 76.5008 98.8264 76.5008C99.8217 76.5008 100.727 76.0484 100.727 75.415V57.8609C100.727 58.4038 99.9122 58.9467 98.8264 58.9467Z" fill="url(#paint69_linear)"/>
</g>
</g>
</mask>
<g mask="url(#mask27)">
<path opacity="0.7" d="M98.8264 58.9467C97.831 58.9467 96.9262 58.4943 96.9262 57.8609V75.415C96.9262 75.9579 97.7405 76.5008 98.8264 76.5008C99.8217 76.5008 100.727 76.0484 100.727 75.415V57.8609C100.727 58.4038 99.9122 58.9467 98.8264 58.9467Z" fill="url(#paint70_linear)"/>
</g>
</g>
</g>
<defs>
<linearGradient id="paint0_linear" x1="145.446" y1="105.884" x2="9.69004" y2="105.884" gradientUnits="userSpaceOnUse">
<stop stop-color="#DEF1F7"/>
<stop offset="1" stop-color="#B7DDE9"/>
</linearGradient>
<linearGradient id="paint1_linear" x1="160.365" y1="111.242" x2="24.3617" y2="111.242" gradientUnits="userSpaceOnUse">
<stop stop-color="#DEF1F7"/>
<stop offset="1" stop-color="#B7DDE9"/>
</linearGradient>
<linearGradient id="paint2_linear" x1="137.389" y1="90.3581" x2="1.27196" y2="90.3581" gradientUnits="userSpaceOnUse">
<stop stop-color="#DEF1F7"/>
<stop offset="1" stop-color="#B7DDE9"/>
</linearGradient>
<linearGradient id="paint3_linear" x1="160.353" y1="120.793" x2="39.0327" y2="120.793" gradientUnits="userSpaceOnUse">
<stop stop-color="#DEF1F7"/>
<stop offset="1" stop-color="#B7DDE9"/>
</linearGradient>
<linearGradient id="paint4_linear" x1="32.4334" y1="132.925" x2="8.60381" y2="132.925" gradientUnits="userSpaceOnUse">
<stop stop-color="#DEF1F7"/>
<stop offset="1" stop-color="#B7DDE9"/>
</linearGradient>
<linearGradient id="paint5_linear" x1="80.5669" y1="113.8" x2="117.99" y2="113.8" gradientUnits="userSpaceOnUse">
<stop stop-color="#066EA9"/>
<stop offset="1" stop-color="#1680BB"/>
</linearGradient>
<linearGradient id="paint6_linear" x1="43.0463" y1="113.8" x2="80.5896" y2="113.8" gradientUnits="userSpaceOnUse">
<stop stop-color="#1691D6"/>
<stop offset="1" stop-color="#1680BB"/>
</linearGradient>
<linearGradient id="paint7_linear" x1="43.019" y1="98.0262" x2="118.084" y2="98.0262" gradientUnits="userSpaceOnUse">
<stop offset="0.00518135" stop-color="#22CBFF"/>
<stop offset="0.697917" stop-color="#39B0D5"/>
</linearGradient>
<linearGradient id="paint8_linear" x1="80.5669" y1="99.0365" x2="117.99" y2="99.0365" gradientUnits="userSpaceOnUse">
<stop stop-color="#066EA9"/>
<stop offset="1" stop-color="#1680BB"/>
</linearGradient>
<linearGradient id="paint9_linear" x1="43.0463" y1="99.0365" x2="80.5896" y2="99.0365" gradientUnits="userSpaceOnUse">
<stop stop-color="#1691D6"/>
<stop offset="1" stop-color="#1680BB"/>
</linearGradient>
<linearGradient id="paint10_linear" x1="43.019" y1="83.2627" x2="118.084" y2="83.2627" gradientUnits="userSpaceOnUse">
<stop offset="0.00518135" stop-color="#22CBFF"/>
<stop offset="0.697917" stop-color="#39B0D5"/>
</linearGradient>
<linearGradient id="paint11_linear" x1="80.567" y1="84.3328" x2="117.99" y2="84.3328" gradientUnits="userSpaceOnUse">
<stop stop-color="#066EA9"/>
<stop offset="1" stop-color="#1680BB"/>
</linearGradient>
<linearGradient id="paint12_linear" x1="43.0464" y1="84.3328" x2="80.5897" y2="84.3328" gradientUnits="userSpaceOnUse">
<stop stop-color="#1691D6"/>
<stop offset="1" stop-color="#1680BB"/>
</linearGradient>
<linearGradient id="paint13_linear" x1="112.019" y1="82.0783" x2="49.0798" y2="54.6616" gradientUnits="userSpaceOnUse">
<stop stop-color="#4B42C6"/>
<stop offset="0.4839" stop-color="#4E47CB"/>
<stop offset="1" stop-color="#5454D6"/>
</linearGradient>
<linearGradient id="paint14_linear" x1="43.0189" y1="68.5142" x2="118.084" y2="68.5142" gradientUnits="userSpaceOnUse">
<stop offset="0.00518135" stop-color="#4ED5FF"/>
<stop offset="1" stop-color="#22ACD7"/>
</linearGradient>
<linearGradient id="paint15_linear" x1="80.4555" y1="0.142991" x2="80.4555" y2="52.094" gradientUnits="userSpaceOnUse">
<stop offset="0.00518135" stop-color="white"/>
<stop offset="0.326" stop-color="#F3F3F3"/>
<stop offset="0.9113" stop-color="#D2D2D2"/>
<stop offset="1" stop-color="#CCCCCC"/>
</linearGradient>
<linearGradient id="paint16_linear" x1="80.4262" y1="0.241642" x2="80.4262" y2="52.1549" gradientUnits="userSpaceOnUse">
<stop offset="0.00518135" stop-color="#46B4D5"/>
<stop offset="1" stop-color="#46B4D4" stop-opacity="0"/>
</linearGradient>
<linearGradient id="paint17_linear" x1="98.8616" y1="10.8741" x2="98.8616" y2="62.5422" gradientUnits="userSpaceOnUse">
<stop offset="0.00518135" stop-color="white"/>
<stop offset="0.326" stop-color="#F3F3F3"/>
<stop offset="0.9113" stop-color="#D2D2D2"/>
<stop offset="1" stop-color="#CCCCCC"/>
</linearGradient>
<linearGradient id="paint18_linear" x1="98.7945" y1="10.9181" x2="98.7945" y2="62.4702" gradientUnits="userSpaceOnUse">
<stop offset="0.00518135" stop-color="#46B4D5"/>
<stop offset="1" stop-color="#46B4D4" stop-opacity="0"/>
</linearGradient>
<linearGradient id="paint19_linear" x1="104.997" y1="28.972" x2="104.997" y2="66.0468" gradientUnits="userSpaceOnUse">
<stop offset="0.00518135" stop-color="white"/>
<stop offset="0.326" stop-color="#F3F3F3"/>
<stop offset="0.9113" stop-color="#D2D2D2"/>
<stop offset="1" stop-color="#CCCCCC"/>
</linearGradient>
<linearGradient id="paint20_linear" x1="104.948" y1="28.9842" x2="104.948" y2="66.0007" gradientUnits="userSpaceOnUse">
<stop offset="0.00518135" stop-color="#46B4D5"/>
<stop offset="1" stop-color="#46B4D4" stop-opacity="0"/>
</linearGradient>
<linearGradient id="paint21_linear" x1="111.132" y1="35.2421" x2="111.132" y2="69.5465" gradientUnits="userSpaceOnUse">
<stop offset="0.00518135" stop-color="white"/>
<stop offset="0.326" stop-color="#F3F3F3"/>
<stop offset="0.9113" stop-color="#D2D2D2"/>
<stop offset="1" stop-color="#CCCCCC"/>
</linearGradient>
<linearGradient id="paint22_linear" x1="111.1" y1="35.3125" x2="111.1" y2="69.6204" gradientUnits="userSpaceOnUse">
<stop offset="0.00518135" stop-color="#46B4D5"/>
<stop offset="1" stop-color="#46B4D4" stop-opacity="0"/>
</linearGradient>
<linearGradient id="paint23_linear" x1="104.997" y1="45.9125" x2="104.997" y2="73.0123" gradientUnits="userSpaceOnUse">
<stop offset="0.00518135" stop-color="white"/>
<stop offset="0.326" stop-color="#F3F3F3"/>
<stop offset="0.9113" stop-color="#D2D2D2"/>
<stop offset="1" stop-color="#CCCCCC"/>
</linearGradient>
<linearGradient id="paint24_linear" x1="104.948" y1="45.9742" x2="104.948" y2="73.0594" gradientUnits="userSpaceOnUse">
<stop offset="0.00518135" stop-color="#46B4D5"/>
<stop offset="1" stop-color="#46B4D4" stop-opacity="0"/>
</linearGradient>
<linearGradient id="paint25_linear" x1="98.8616" y1="33.6078" x2="98.8616" y2="69.5078" gradientUnits="userSpaceOnUse">
<stop offset="0.00518135" stop-color="white"/>
<stop offset="0.326" stop-color="#F3F3F3"/>
<stop offset="0.9113" stop-color="#D2D2D2"/>
<stop offset="1" stop-color="#CCCCCC"/>
</linearGradient>
<linearGradient id="paint26_linear" x1="98.7945" y1="33.6869" x2="98.7945" y2="69.5297" gradientUnits="userSpaceOnUse">
<stop offset="0.00518135" stop-color="#46B4D5"/>
<stop offset="1" stop-color="#46B4D4" stop-opacity="0"/>
</linearGradient>
<linearGradient id="paint27_linear" x1="92.7261" y1="14.0465" x2="92.7261" y2="60.1322" gradientUnits="userSpaceOnUse">
<stop offset="0.00518135" stop-color="white"/>
<stop offset="0.326" stop-color="#F3F3F3"/>
<stop offset="0.9113" stop-color="#D2D2D2"/>
<stop offset="1" stop-color="#CCCCCC"/>
</linearGradient>
<linearGradient id="paint28_linear" x1="92.732" y1="14.0734" x2="92.732" y2="60.1182" gradientUnits="userSpaceOnUse">
<stop offset="0.00518135" stop-color="#46B4D5"/>
<stop offset="1" stop-color="#46B4D4" stop-opacity="0"/>
</linearGradient>
<linearGradient id="paint29_linear" x1="74.4596" y1="7.10847" x2="74.4596" y2="59.0594" gradientUnits="userSpaceOnUse">
<stop offset="0.00518135" stop-color="white"/>
<stop offset="0.326" stop-color="#F3F3F3"/>
<stop offset="0.9113" stop-color="#D2D2D2"/>
<stop offset="1" stop-color="#CCCCCC"/>
</linearGradient>
<linearGradient id="paint30_linear" x1="74.4542" y1="7.20893" x2="74.4542" y2="59.1222" gradientUnits="userSpaceOnUse">
<stop offset="0.00518135" stop-color="#46B4D5"/>
<stop offset="1" stop-color="#46B4D4" stop-opacity="0"/>
</linearGradient>
<linearGradient id="paint31_linear" x1="74.4596" y1="22.9413" x2="74.4596" y2="66.0251" gradientUnits="userSpaceOnUse">
<stop offset="0.00518135" stop-color="white"/>
<stop offset="0.326" stop-color="#F3F3F3"/>
<stop offset="0.9113" stop-color="#D2D2D2"/>
<stop offset="1" stop-color="#CCCCCC"/>
</linearGradient>
<linearGradient id="paint32_linear" x1="74.4542" y1="23.0251" x2="74.4542" y2="66.0905" gradientUnits="userSpaceOnUse">
<stop offset="0.00518135" stop-color="#46B4D5"/>
<stop offset="1" stop-color="#46B4D4" stop-opacity="0"/>
</linearGradient>
<linearGradient id="paint33_linear" x1="74.4596" y1="39.594" x2="74.4596" y2="76.4734" gradientUnits="userSpaceOnUse">
<stop offset="0.00518135" stop-color="white"/>
<stop offset="0.326" stop-color="#F3F3F3"/>
<stop offset="0.9113" stop-color="#D2D2D2"/>
<stop offset="1" stop-color="#CCCCCC"/>
</linearGradient>
<linearGradient id="paint34_linear" x1="74.4542" y1="39.6611" x2="74.4542" y2="76.4969" gradientUnits="userSpaceOnUse">
<stop offset="0.00518135" stop-color="#46B4D5"/>
<stop offset="1" stop-color="#46B4D4" stop-opacity="0"/>
</linearGradient>
<linearGradient id="paint35_linear" x1="74.4596" y1="54.3021" x2="74.4596" y2="79.9562" gradientUnits="userSpaceOnUse">
<stop offset="0.00518135" stop-color="white"/>
<stop offset="0.326" stop-color="#F3F3F3"/>
<stop offset="0.9113" stop-color="#D2D2D2"/>
<stop offset="1" stop-color="#CCCCCC"/>
</linearGradient>
<linearGradient id="paint36_linear" x1="74.4542" y1="54.2959" x2="74.4542" y2="79.9365" gradientUnits="userSpaceOnUse">
<stop offset="0.00518135" stop-color="#46B4D5"/>
<stop offset="1" stop-color="#46B4D4" stop-opacity="0"/>
</linearGradient>
<linearGradient id="paint37_linear" x1="62.4673" y1="10.5912" x2="62.4673" y2="62.5422" gradientUnits="userSpaceOnUse">
<stop offset="0.00518135" stop-color="white"/>
<stop offset="0.326" stop-color="#F3F3F3"/>
<stop offset="0.9113" stop-color="#D2D2D2"/>
<stop offset="1" stop-color="#CCCCCC"/>
</linearGradient>
<linearGradient id="paint38_linear" x1="62.4194" y1="10.6473" x2="62.4194" y2="62.5606" gradientUnits="userSpaceOnUse">
<stop offset="0.00518135" stop-color="#46B4D5"/>
<stop offset="1" stop-color="#46B4D4" stop-opacity="0"/>
</linearGradient>
<linearGradient id="paint39_linear" x1="62.4673" y1="44.3923" x2="62.4673" y2="76.4734" gradientUnits="userSpaceOnUse">
<stop offset="0.00518135" stop-color="white"/>
<stop offset="0.326" stop-color="#F3F3F3"/>
<stop offset="0.9113" stop-color="#D2D2D2"/>
<stop offset="1" stop-color="#CCCCCC"/>
</linearGradient>
<linearGradient id="paint40_linear" x1="62.4194" y1="44.4467" x2="62.4194" y2="76.4975" gradientUnits="userSpaceOnUse">
<stop offset="0.00518135" stop-color="#46B4D5"/>
<stop offset="1" stop-color="#46B4D4" stop-opacity="0"/>
</linearGradient>
<linearGradient id="paint41_linear" x1="50.4756" y1="33.7772" x2="50.4756" y2="69.5296" gradientUnits="userSpaceOnUse">
<stop offset="0.00518135" stop-color="white"/>
<stop offset="0.326" stop-color="#F3F3F3"/>
<stop offset="0.9113" stop-color="#D2D2D2"/>
<stop offset="1" stop-color="#CCCCCC"/>
</linearGradient>
<linearGradient id="paint42_linear" x1="50.4756" y1="33.7772" x2="50.4756" y2="69.5296" gradientUnits="userSpaceOnUse">
<stop offset="0.00518135" stop-color="#46B4D5"/>
<stop offset="1" stop-color="#46B4D4" stop-opacity="0"/>
</linearGradient>
<linearGradient id="paint43_linear" x1="56.4716" y1="20.1988" x2="56.4716" y2="66.025" gradientUnits="userSpaceOnUse">
<stop offset="0.00518135" stop-color="white"/>
<stop offset="0.326" stop-color="#F3F3F3"/>
<stop offset="0.9113" stop-color="#D2D2D2"/>
<stop offset="1" stop-color="#CCCCCC"/>
</linearGradient>
<linearGradient id="paint44_linear" x1="56.4477" y1="20.2258" x2="56.4477" y2="65.9998" gradientUnits="userSpaceOnUse">
<stop offset="0.00518135" stop-color="#46B4D5"/>
<stop offset="1" stop-color="#46B4D4" stop-opacity="0"/>
</linearGradient>
<linearGradient id="paint45_linear" x1="68.4635" y1="19.0435" x2="68.4635" y2="62.5422" gradientUnits="userSpaceOnUse">
<stop offset="0.00518135" stop-color="white"/>
<stop offset="0.326" stop-color="#F3F3F3"/>
<stop offset="0.9113" stop-color="#D2D2D2"/>
<stop offset="1" stop-color="#CCCCCC"/>
</linearGradient>
<linearGradient id="paint46_linear" x1="68.3917" y1="19.1349" x2="68.3917" y2="62.5615" gradientUnits="userSpaceOnUse">
<stop offset="0.00518135" stop-color="#46B4D5"/>
<stop offset="1" stop-color="#46B4D4" stop-opacity="0"/>
</linearGradient>
<linearGradient id="paint47_linear" x1="86.5909" y1="6.54611" x2="86.5909" y2="55.5986" gradientUnits="userSpaceOnUse">
<stop offset="0.00518135" stop-color="white"/>
<stop offset="0.326" stop-color="#F3F3F3"/>
<stop offset="0.9113" stop-color="#D2D2D2"/>
<stop offset="1" stop-color="#CCCCCC"/>
</linearGradient>
<linearGradient id="paint48_linear" x1="86.5792" y1="6.56949" x2="86.5792" y2="55.5937" gradientUnits="userSpaceOnUse">
<stop offset="0.00518135" stop-color="#46B4D5"/>
<stop offset="1" stop-color="#46B4D4" stop-opacity="0"/>
</linearGradient>
<linearGradient id="paint49_linear" x1="86.5909" y1="34.2355" x2="86.5909" y2="69.5614" gradientUnits="userSpaceOnUse">
<stop offset="0.00518135" stop-color="white"/>
<stop offset="0.326" stop-color="#F3F3F3"/>
<stop offset="0.9113" stop-color="#D2D2D2"/>
<stop offset="1" stop-color="#CCCCCC"/>
</linearGradient>
<linearGradient id="paint50_linear" x1="86.5792" y1="34.2287" x2="86.5792" y2="69.5297" gradientUnits="userSpaceOnUse">
<stop offset="0.00518135" stop-color="#46B4D5"/>
<stop offset="1" stop-color="#46B4D4" stop-opacity="0"/>
</linearGradient>
<linearGradient id="paint51_linear" x1="86.5909" y1="61.7705" x2="86.5909" y2="83.4389" gradientUnits="userSpaceOnUse">
<stop offset="0.00518135" stop-color="white"/>
<stop offset="0.326" stop-color="#F3F3F3"/>
<stop offset="0.9113" stop-color="#D2D2D2"/>
<stop offset="1" stop-color="#CCCCCC"/>
</linearGradient>
<linearGradient id="paint52_linear" x1="86.5792" y1="61.7977" x2="86.5792" y2="83.4658" gradientUnits="userSpaceOnUse">
<stop offset="0.00518135" stop-color="#46B4D5"/>
<stop offset="1" stop-color="#46B4D4" stop-opacity="0"/>
</linearGradient>
<linearGradient id="paint53_linear" x1="92.726" y1="24.334" x2="92.726" y2="69.5296" gradientUnits="userSpaceOnUse">
<stop offset="0.00518135" stop-color="white"/>
<stop offset="0.326" stop-color="#F3F3F3"/>
<stop offset="0.9113" stop-color="#D2D2D2"/>
<stop offset="1" stop-color="#CCCCCC"/>
</linearGradient>
<linearGradient id="paint54_linear" x1="92.732" y1="24.3867" x2="92.732" y2="69.5287" gradientUnits="userSpaceOnUse">
<stop offset="0.00518135" stop-color="#46B4D5"/>
<stop offset="1" stop-color="#46B4D4" stop-opacity="0"/>
</linearGradient>
<linearGradient id="paint55_linear" x1="92.726" y1="48.8227" x2="92.726" y2="76.4734" gradientUnits="userSpaceOnUse">
<stop offset="0.00518135" stop-color="white"/>
<stop offset="0.326" stop-color="#F3F3F3"/>
<stop offset="0.9113" stop-color="#D2D2D2"/>
<stop offset="1" stop-color="#CCCCCC"/>
</linearGradient>
<linearGradient id="paint56_linear" x1="92.732" y1="48.871" x2="92.732" y2="76.4979" gradientUnits="userSpaceOnUse">
<stop offset="0.00518135" stop-color="#46B4D5"/>
<stop offset="1" stop-color="#46B4D4" stop-opacity="0"/>
</linearGradient>
<linearGradient id="paint57_linear" x1="68.4635" y1="29.5722" x2="68.4635" y2="66.0249" gradientUnits="userSpaceOnUse">
<stop offset="0.00518135" stop-color="white"/>
<stop offset="0.326" stop-color="#F3F3F3"/>
<stop offset="0.9113" stop-color="#D2D2D2"/>
<stop offset="1" stop-color="#CCCCCC"/>
</linearGradient>
<linearGradient id="paint58_linear" x1="68.3917" y1="29.6162" x2="68.3917" y2="66.0006" gradientUnits="userSpaceOnUse">
<stop offset="0.00518135" stop-color="#46B4D5"/>
<stop offset="1" stop-color="#46B4D4" stop-opacity="0"/>
</linearGradient>
<linearGradient id="paint59_linear" x1="68.4635" y1="34.8224" x2="68.4635" y2="76.4733" gradientUnits="userSpaceOnUse">
<stop offset="0.00518135" stop-color="white"/>
<stop offset="0.326" stop-color="#F3F3F3"/>
<stop offset="0.9113" stop-color="#D2D2D2"/>
<stop offset="1" stop-color="#CCCCCC"/>
</linearGradient>
<linearGradient id="paint60_linear" x1="68.3917" y1="34.8755" x2="68.3917" y2="76.4964" gradientUnits="userSpaceOnUse">
<stop offset="0.00518135" stop-color="#46B4D5"/>
<stop offset="1" stop-color="#46B4D4" stop-opacity="0"/>
</linearGradient>
<linearGradient id="paint61_linear" x1="80.4555" y1="15.3401" x2="80.4555" y2="59.0814" gradientUnits="userSpaceOnUse">
<stop offset="0.00518135" stop-color="white"/>
<stop offset="0.326" stop-color="#F3F3F3"/>
<stop offset="0.9113" stop-color="#D2D2D2"/>
<stop offset="1" stop-color="#CCCCCC"/>
</linearGradient>
<linearGradient id="paint62_linear" x1="80.4262" y1="15.4257" x2="80.4262" y2="59.1232" gradientUnits="userSpaceOnUse">
<stop offset="0.00518135" stop-color="#46B4D5"/>
<stop offset="1" stop-color="#46B4D4" stop-opacity="0"/>
</linearGradient>
<linearGradient id="paint63_linear" x1="80.4555" y1="22.216" x2="80.4555" y2="65.9572" gradientUnits="userSpaceOnUse">
<stop offset="0.00518135" stop-color="white"/>
<stop offset="0.326" stop-color="#F3F3F3"/>
<stop offset="0.9113" stop-color="#D2D2D2"/>
<stop offset="1" stop-color="#CCCCCC"/>
</linearGradient>
<linearGradient id="paint64_linear" x1="80.4262" y1="22.3025" x2="80.4262" y2="65.9999" gradientUnits="userSpaceOnUse">
<stop offset="0.00518135" stop-color="#46B4D5"/>
<stop offset="1" stop-color="#46B4D4" stop-opacity="0"/>
</linearGradient>
<linearGradient id="paint65_linear" x1="80.4555" y1="32.732" x2="80.4555" y2="76.4733" gradientUnits="userSpaceOnUse">
<stop offset="0.00518135" stop-color="white"/>
<stop offset="0.326" stop-color="#F3F3F3"/>
<stop offset="0.9113" stop-color="#D2D2D2"/>
<stop offset="1" stop-color="#CCCCCC"/>
</linearGradient>
<linearGradient id="paint66_linear" x1="80.4262" y1="32.7987" x2="80.4262" y2="76.4961" gradientUnits="userSpaceOnUse">
<stop offset="0.00518135" stop-color="#46B4D5"/>
<stop offset="1" stop-color="#46B4D4" stop-opacity="0"/>
</linearGradient>
<linearGradient id="paint67_linear" x1="80.4555" y1="68.8" x2="80.4555" y2="86.9217" gradientUnits="userSpaceOnUse">
<stop offset="0.00518135" stop-color="white"/>
<stop offset="0.326" stop-color="#F3F3F3"/>
<stop offset="0.9113" stop-color="#D2D2D2"/>
<stop offset="1" stop-color="#CCCCCC"/>
</linearGradient>
<linearGradient id="paint68_linear" x1="80.4262" y1="68.7576" x2="80.4262" y2="86.9047" gradientUnits="userSpaceOnUse">
<stop offset="0.00518135" stop-color="#46B4D5"/>
<stop offset="1" stop-color="#46B4D4" stop-opacity="0"/>
</linearGradient>
<linearGradient id="paint69_linear" x1="98.8615" y1="57.8707" x2="98.8615" y2="76.4953" gradientUnits="userSpaceOnUse">
<stop offset="0.00518135" stop-color="white"/>
<stop offset="0.326" stop-color="#F3F3F3"/>
<stop offset="0.9113" stop-color="#D2D2D2"/>
<stop offset="1" stop-color="#CCCCCC"/>
</linearGradient>
<linearGradient id="paint70_linear" x1="98.7945" y1="57.9004" x2="98.7945" y2="76.4989" gradientUnits="userSpaceOnUse">
<stop offset="0.00518135" stop-color="#46B4D5"/>
<stop offset="1" stop-color="#46B4D4" stop-opacity="0"/>
</linearGradient>
<clipPath id="clip0">
<rect width="160" height="160" fill="white" transform="translate(0.761719)"/>
</clipPath>
</defs>
</svg>