<svg width="161" height="160" viewBox="0 0 161 160" fill="none" xmlns="http://www.w3.org/2000/svg">
<path d="M55.0613 50.3124L49.8148 47.3929C48.4342 46.5588 48.02 47.532 47.4677 48.5051L42.9116 57.2636C42.3593 58.2367 41.9451 58.9319 43.0496 59.766L48.02 62.6855C48.8484 63.2416 49.4006 63.2416 49.9529 62.2684L54.7852 53.0929C55.3374 51.9807 56.1658 51.0075 55.0613 50.3124Z" fill="url(#paint0_linear)"/>
<path d="M55.0613 50.3124L49.8148 47.3929C48.4342 46.5588 48.02 47.532 47.4677 48.5051L42.9116 57.2636C42.3593 58.2367 41.9451 58.9319 43.0496 59.766L48.02 62.6855C48.8484 63.2416 49.4006 63.2416 49.9529 62.2684L54.7852 53.0929C55.3374 51.9807 56.1658 51.0075 55.0613 50.3124Z" fill="black" fill-opacity="0.1"/>
<path d="M54.647 50.0346L49.4005 47.1152C48.0198 46.281 47.6056 47.2542 47.0534 48.2273L42.4972 56.9858C41.945 57.959 41.5308 58.6541 42.6353 59.4882L47.6056 62.4077C48.434 62.9638 48.9863 62.9638 49.5385 61.9906L54.3708 52.8151C54.9231 51.7029 55.7515 50.7298 54.647 50.0346Z" fill="url(#paint1_linear)"/>
<path d="M42.9114 57.6811L49.1244 61.1567L54.647 50.8689L48.434 47.3934L42.9114 57.6811Z" fill="white"/>
<path opacity="0.6" d="M47.6055 49.8955L52.99 53.093L53.9565 51.1467L48.572 47.9492L47.6055 49.8955Z" fill="url(#paint2_linear)"/>
<path d="M44.7065 59.9053L46.0871 60.7395L46.5013 60.1834L44.9826 59.3492L44.7065 59.9053Z" fill="white"/>
<path d="M52.7138 55.4567C52.7138 55.4567 53.128 54.7616 53.266 54.0665C53.4041 53.6494 52.9899 53.0933 52.5757 53.9275C52.1615 54.6226 51.1951 55.4567 51.1951 55.4567L49.4002 58.6542C49.4002 58.6542 49.9525 59.9055 52.0234 58.7933C53.9564 57.8201 54.0944 55.8738 53.8183 55.7348C53.6802 55.4567 52.7138 55.4567 52.7138 55.4567Z" fill="#FFD0CA"/>
<path d="M32.4183 48.5056C32.4183 48.9226 28.2764 50.3129 27.586 53.5104C26.7576 56.5689 27.1718 59.6274 28.1383 60.6006C29.1048 61.5737 32.9706 60.0445 32.9706 60.0445L32.4183 48.5056Z" fill="#FFD0CA"/>
<path d="M31.0377 118.156C31.4519 119.268 32.5564 119.129 34.7654 118.434C36.6983 117.739 38.2171 116.905 39.5977 115.932C40.9784 114.959 40.9784 114.82 41.1164 114.125C41.3926 113.151 40.0119 112.595 37.6648 113.291C37.3887 113.43 37.2506 113.43 36.9745 113.43C37.3887 113.569 37.8029 113.708 38.079 113.986C38.4932 114.82 37.2506 115.654 35.7319 116.349C34.3512 117.044 33.2467 117.044 32.5564 116.766C32.0041 116.488 31.3138 116.21 31.0377 116.071C30.8996 117.044 30.7615 117.461 31.0377 118.156Z" fill="#282525"/>
<path d="M44.8443 118.017C44.7063 117.6 44.154 117.461 43.7398 117.461C42.4972 117.878 41.8069 118.156 41.8069 118.156C41.8069 118.156 42.083 112.178 42.4972 107.452C43.1876 103.42 43.7398 98.415 43.7398 95.9126C43.7398 95.6345 43.7398 93.2711 43.7398 92.9931C43.0495 93.2711 39.0456 93.8272 37.6649 93.8272C37.6649 94.1053 37.9411 96.1906 37.9411 98.693C37.9411 102.586 37.803 107.452 37.803 107.173C37.6649 110.371 37.6649 114.959 37.803 117.461C37.9411 118.712 37.803 119.547 37.803 120.242C38.0791 120.381 38.7695 120.659 39.3217 120.937C40.0121 121.215 41.1166 121.215 42.4972 120.52C43.8779 119.686 45.2585 118.712 44.8443 118.017Z" fill="#FFD0CA"/>
<path d="M38.079 113.986C37.9409 113.569 37.3886 113.429 36.9744 113.429C35.7319 113.847 35.0415 114.125 35.0415 114.125C35.0415 114.125 35.1796 109.676 35.4557 106.2C35.5938 103.281 36.008 95.0784 36.146 93.2711C34.2131 92.9931 32.0041 93.4101 30.4854 92.1589C30.4854 92.576 30.4854 94.5223 30.4854 95.0784C30.3473 97.4418 30.7615 100.639 30.8996 103.003C31.0376 104.949 31.0376 111.344 31.1757 113.429C31.3138 114.681 31.1757 115.515 31.1757 116.21C31.4518 116.349 32.1422 116.627 32.6944 116.905C33.3847 117.183 34.4893 117.183 35.8699 116.488C37.2506 115.654 38.4932 114.82 38.079 113.986Z" fill="#F9BBB7"/>
<path d="M37.8029 122.049C38.2171 123.161 39.3216 123.022 41.5307 122.327C43.4636 121.632 44.9823 120.798 46.363 119.825C47.7436 118.851 47.7436 118.712 47.8817 118.017C48.1578 117.044 46.7772 116.488 44.4301 117.183C44.1539 117.322 44.0159 117.322 43.7397 117.322C44.1539 117.461 44.5681 117.6 44.8442 117.878C45.2584 118.712 44.0159 119.547 42.4971 120.242C41.1165 120.937 40.012 120.937 39.3216 120.659C38.7694 120.381 38.079 120.103 37.8029 119.964C37.6649 120.937 37.5268 121.354 37.8029 122.049Z" fill="#282525"/>
<path d="M30.4852 93.2709C36.8362 97.5806 42.3588 95.4952 44.0156 94.6611C44.0156 90.9075 44.0156 77.1442 43.1872 73.1125C42.773 70.8881 41.6685 67.6906 41.6685 67.6906L31.3136 66.9955C31.3136 66.9955 29.933 68.2467 28.8284 72.2784C27.7239 76.5881 28.6904 79.2295 28.8284 81.4539C29.3807 84.9295 30.3472 91.8806 30.4852 93.2709Z" fill="url(#paint3_linear)"/>
<path d="M37.1129 34.7424C37.6651 35.1595 39.598 35.5765 40.1503 40.0253C40.7026 43.9179 39.7361 45.0301 39.0458 45.3082C38.6316 45.4472 37.1129 45.4472 37.1129 45.4472V48.7838C37.1129 48.7838 35.18 49.6179 33.3851 48.7838C31.4522 47.9496 31.4522 47.9496 31.4522 47.9496C31.4522 47.9496 32.1425 46.6984 32.0045 44.474C31.8664 41.8326 30.8999 37.9399 31.5903 36.5497C32.8328 34.0473 35.5942 33.6302 37.1129 34.7424Z" fill="#FFD0CA"/>
<path d="M29.5189 70.3323C30.4854 71.4445 34.4893 72.8347 36.008 72.8347C39.8738 72.8347 41.5306 71.5835 42.4971 70.3323C41.1164 66.0226 41.8067 60.0446 41.8067 60.0446C41.8067 60.0446 43.7397 56.43 42.359 53.5105C40.9784 50.591 40.15 49.2008 38.7693 48.6447C37.3887 48.0886 30.8996 48.0886 30.8996 48.0886C30.8996 48.0886 27.8621 51.2862 28.8286 55.5959C30.3473 62.13 29.9331 66.5787 29.5189 70.3323Z" fill="url(#paint4_linear)"/>
<path d="M32.0039 48.3667C32.0039 48.3667 33.5227 50.3131 35.5936 49.757C37.6646 49.2009 38.7691 48.7838 38.7691 48.7838C38.7691 48.7838 38.3549 48.0887 37.1124 47.9497C35.0414 47.6716 32.4181 46.5594 32.4181 46.5594L32.0039 48.3667Z" fill="#1BACD8"/>
<path d="M32.9706 46.2812C32.1422 45.169 29.9331 45.7251 28.8286 47.3934C24.2724 54.3445 29.5189 56.5689 29.5189 56.5689C29.5189 56.5689 33.7989 47.2544 32.9706 46.2812Z" fill="#1BACD8"/>
<path d="M40.2878 38.496C40.1497 40.0252 38.9071 40.4423 37.8026 41.6935C36.6981 42.8057 36.1458 43.9179 33.6606 45.7252C32.8322 46.4203 32.9703 51.2861 31.3135 54.7617C29.5187 58.3763 30.6232 59.0714 30.6232 59.0714C30.6232 59.0714 25.5148 57.4031 27.5858 51.7032C28.4142 49.4788 31.3135 47.8105 31.3135 45.5862C31.3135 44.613 30.0709 43.5008 29.5187 41.5545C28.138 35.4375 30.8993 33.7692 33.5226 33.2131C38.3549 32.24 40.5639 35.2985 40.2878 38.496Z" fill="#282525"/>
<path d="M39.0456 40.5815C39.0456 40.5815 37.9411 38.6351 37.3889 40.5815C36.9747 42.3888 38.4934 43.0839 38.4934 43.0839L39.0456 40.5815Z" fill="#FFD0CA"/>
<path d="M30.8997 44.4739C30.8997 44.4739 30.8997 45.7251 31.0377 46.0032C31.4519 46.4203 32.6945 46.8373 33.2468 46.6983C33.661 46.5593 34.2132 45.7251 34.3513 45.3081C32.6945 45.03 30.8997 44.4739 30.8997 44.4739Z" fill="#22CBFF"/>
<path d="M39.3217 49.7567C38.2172 49.2006 36.8365 55.3177 37.2507 57.6811C37.6649 60.0445 40.1501 63.9371 42.3592 65.1883C44.8443 66.5785 46.9153 65.8834 45.1205 61.0176C43.4637 56.1518 41.6688 51.147 39.3217 49.7567Z" fill="#FFD0CA"/>
<path d="M39.5978 49.2008C39.5978 49.2008 37.3888 49.6179 36.6985 53.0935C36.0081 56.569 36.4223 56.8471 36.9746 58.2373C37.2507 58.7934 38.2172 60.1836 38.2172 60.1836C38.2172 60.1836 40.7024 60.0446 41.945 59.2105C43.1875 58.2373 43.7398 57.2641 43.7398 57.2641C43.7398 57.2641 44.2921 53.5105 42.9114 51.5642C41.6688 49.6179 39.5978 49.2008 39.5978 49.2008Z" fill="#1BACD8"/>
<path d="M37.8028 59.6275L38.217 60.3227C38.217 60.3227 40.1499 60.6007 41.6686 59.6275C43.1873 58.6544 43.8776 57.5422 43.8776 57.5422L43.7396 56.569C43.7396 56.569 42.7731 58.3763 41.2544 59.0714C39.7357 59.7666 37.8028 59.6275 37.8028 59.6275Z" fill="white"/>
<path d="M42.9111 62.408C42.9111 62.408 43.3253 62.1299 45.6724 60.4616C47.3292 59.3495 51.3331 55.1788 51.3331 55.1788L51.4712 58.0983C51.4712 58.0983 50.0905 61.4348 48.7099 62.825C46.0866 65.6055 44.9821 65.6055 44.9821 65.6055L42.9111 62.408Z" fill="#FFD0CA"/>
<path opacity="0.6" d="M68.1462 13.0858L87.1992 24.2077V47.1465L68.1462 36.0246V13.0858Z" fill="url(#paint5_linear)"/>
<path opacity="0.5" d="M68.9748 14.7541L86.233 24.7638V26.293L68.9748 16.1443V14.7541Z" fill="url(#paint6_linear)"/>
<path opacity="0.5" d="M73.3929 20.7321V21.5663L68.9748 18.9248V18.0907L73.3929 20.7321Z" fill="url(#paint7_linear)"/>
<path opacity="0.5" d="M85.8184 44.3662V45.2003L81.4003 42.5589V41.7247L85.8184 44.3662Z" fill="url(#paint8_linear)"/>
<path opacity="0.5" d="M72.1503 21.9834V22.8175L68.9748 20.8712V20.037L72.1503 21.9834Z" fill="url(#paint9_linear)"/>
<path opacity="0.5" d="M71.1835 28.6564C71.3216 33.2442 74.221 38.11 77.5345 39.5002C80.9862 40.8905 83.6094 38.249 83.4713 33.8003C83.3333 29.2125 80.4339 24.3467 77.1203 22.9565C73.8068 21.5663 71.0455 24.0687 71.1835 28.6564Z" fill="url(#paint10_linear)"/>
<path opacity="0.6" d="M74.4972 30.1858C74.4972 32.1321 75.7397 34.2175 77.2585 34.7735C78.7772 35.3296 79.8817 34.2175 79.7436 32.2711C79.7436 30.3248 78.5011 28.2395 76.9823 27.6834C75.6017 27.1273 74.4972 28.2395 74.4972 30.1858Z" fill="white"/>
<path opacity="0.6" d="M90.3749 39.3612L130.828 62.8561V27.2661L90.3749 3.77124V39.3612Z" fill="url(#paint11_linear)"/>
<path opacity="0.6" d="M99.6252 41.4465L91.4793 36.7197V38.388L99.6252 43.1148V41.4465Z" fill="white"/>
<path opacity="0.6" d="M99.6252 38.2488L91.4793 33.522V35.1903L99.6252 39.917V38.2488Z" fill="white"/>
<path opacity="0.6" d="M99.6252 35.0514L91.4793 30.3246V31.8538L99.6252 36.5806V35.0514Z" fill="white"/>
<path opacity="0.6" d="M99.6252 31.8536L91.4793 27.1268V28.6561L99.6252 33.3829V31.8536Z" fill="white"/>
<path opacity="0.6" d="M99.6252 28.5173L91.4793 23.7905V25.3198L99.6252 30.0466V28.5173Z" fill="white"/>
<path opacity="0.6" d="M99.6252 25.3199L91.4793 20.5931V22.2614L99.6252 26.9881V25.3199Z" fill="white"/>
<path opacity="0.6" d="M99.6252 21.9833L91.4793 17.2565V18.9247L99.6252 23.6515V21.9833Z" fill="white"/>
<path opacity="0.6" d="M99.6252 18.7858L91.4793 14.059V15.7273L99.6252 20.4541V18.7858Z" fill="white"/>
<path opacity="0.5" d="M99.6252 11.2784L91.4793 6.55164V10.8614L99.6252 15.5881V11.2784Z" fill="url(#paint12_linear)"/>
<path opacity="0.5" d="M129.309 28.6562L121.164 23.9294V28.2391L129.309 32.9659V28.6562Z" fill="url(#paint13_linear)"/>
<path opacity="0.5" d="M113.294 22.5392C112.604 22.1221 112.189 22.5392 112.189 23.3733C112.189 23.6513 112.189 23.7904 112.328 24.0684L108.324 26.8489L100.454 22.2611V23.0952L108.324 27.683L112.604 24.7635C112.88 25.1806 113.156 25.4586 113.432 25.7367C114.122 26.1538 114.537 25.7367 114.537 24.9025C114.537 23.9294 113.984 22.9562 113.294 22.5392Z" fill="url(#paint14_linear)"/>
<path opacity="0.6" d="M126.134 32.827V37.1367L129.309 38.944V34.6343L126.134 32.827Z" fill="white"/>
<path opacity="0.6" d="M126.134 39.2219V43.5316L129.309 45.3389V41.0292L126.134 39.2219Z" fill="white"/>
<path opacity="0.6" d="M126.134 45.6171V49.9268L129.309 51.7341V47.5634L126.134 45.6171Z" fill="white"/>
<path opacity="0.6" d="M126.134 52.0122V56.3219L129.309 58.2682V53.9585L126.134 52.0122Z" fill="white"/>
<path opacity="0.5" d="M117.435 21.7052L109.29 16.9784V26.571L117.435 31.2978V21.7052Z" fill="url(#paint15_linear)"/>
<path opacity="0.5" d="M118.126 38.666L109.98 33.9392V43.5318L118.126 48.2586V38.666Z" fill="url(#paint16_linear)"/>
<path opacity="0.6" d="M114.122 38.9439C114.122 38.9439 113.984 38.9439 114.122 38.9439C113.846 38.8049 113.708 38.8049 113.432 38.8049L109.428 31.1586V31.0196L100.592 25.8757V26.7099L109.014 31.5757L113.017 39.0829C112.879 39.361 112.741 39.639 112.741 40.1951C112.741 41.4463 113.432 42.8366 114.398 43.2536C115.226 43.8097 116.055 43.2536 116.055 42.0024C115.641 40.7512 114.95 39.361 114.122 38.9439Z" fill="white"/>
<path opacity="0.6" d="M113.294 23.5125C113.017 23.3734 112.879 23.5125 112.879 23.9295C112.879 24.3466 113.156 24.7637 113.294 24.9027C113.57 25.0417 113.708 24.9027 113.708 24.4856C113.846 24.0686 113.57 23.6515 113.294 23.5125Z" fill="white"/>
<path opacity="0.6" d="M120.473 32.4099C119.093 31.7148 118.126 32.4099 118.126 34.2172C118.126 36.0245 119.231 37.9708 120.473 38.805C121.716 39.5001 122.82 38.805 122.82 36.9977C122.82 35.1904 121.854 33.244 120.473 32.4099Z" fill="white"/>
<path opacity="0.5" d="M114.122 40.0562C113.708 39.7781 113.432 40.0562 113.432 40.6123C113.432 41.1683 113.708 41.7244 114.122 42.0025C114.536 42.2805 114.812 42.0025 114.812 41.4464C114.812 40.8903 114.398 40.3342 114.122 40.0562Z" fill="url(#paint17_linear)"/>
<path opacity="0.5" d="M120.473 33.7999C119.645 33.3829 119.093 33.7999 119.093 34.9121C119.093 36.0243 119.783 37.1365 120.473 37.5536C121.302 37.9706 121.854 37.5536 121.854 36.4414C121.854 35.4682 121.302 34.217 120.473 33.7999Z" fill="url(#paint18_linear)"/>
<g opacity="0.5">
<path opacity="0.5" d="M120.197 38.5269V52.5682L108.186 45.478V39.639L100.454 35.7464V36.5805L107.495 40.0561V45.8951L121.026 53.9584V38.9439C121.026 38.9439 120.888 38.8049 120.611 38.8049C120.335 38.6659 120.197 38.5269 120.197 38.5269Z" fill="url(#paint19_linear)"/>
</g>
<path opacity="0.5" d="M107.633 60.3538C107.633 63.4123 109.428 67.0269 111.775 68.2782C114.122 69.6684 115.917 68.1391 115.917 65.0806C115.917 62.0221 114.122 58.4075 111.775 57.1563C109.428 55.9051 107.633 57.2953 107.633 60.3538Z" fill="url(#paint20_linear)"/>
<path opacity="0.5" d="M111.913 60.4928V51.7344L111.223 51.3173V60.0758C110.394 59.9368 109.784 60.4944 109.842 61.605C109.919 63.0785 110.67 64.3855 111.637 64.9416C112.603 65.4977 113.432 64.9416 113.432 63.5514C113.432 62.7172 112.741 61.188 111.913 60.4928Z" fill="url(#paint21_linear)"/>
<path opacity="0.6" d="M134.556 73.0048L121.026 65.0804V88.0193L134.556 95.9436V73.0048Z" fill="url(#paint22_linear)"/>
<path opacity="0.6" d="M133.451 73.6999L121.992 67.0268V87.4632L133.451 94.1363V73.6999Z" fill="url(#paint23_linear)"/>
<path opacity="0.5" d="M131.104 73.839L124.339 69.8073V70.3634L131.104 74.3951V73.839Z" fill="url(#paint24_linear)"/>
<path opacity="0.5" d="M131.104 75.2292L124.339 71.1976V71.7537L131.104 75.7853V75.2292Z" fill="url(#paint25_linear)"/>
<path opacity="0.5" d="M123.373 77.7315C123.373 79.3997 124.339 81.207 125.582 81.9021C126.824 82.5973 127.791 81.9021 127.791 80.2339C127.791 78.5656 126.824 76.7583 125.582 76.0632C124.339 75.3681 123.373 76.0632 123.373 77.7315Z" fill="url(#paint26_linear)"/>
<path opacity="0.5" d="M128.757 86.629C128.757 87.6022 129.309 88.7144 129.999 89.1314C130.69 89.5485 131.242 89.1314 131.242 88.1583C131.242 87.1851 130.69 86.0729 129.999 85.6559C129.309 85.2388 128.757 85.6559 128.757 86.629Z" fill="url(#paint27_linear)"/>
<path opacity="0.5" d="M130.276 81.6241C130.276 82.3192 130.69 83.0143 131.104 83.2924C131.656 83.5704 131.932 83.2924 131.932 82.5973C131.932 81.9022 131.518 81.207 131.104 80.929C130.69 80.651 130.276 80.929 130.276 81.6241Z" fill="white"/>
<path opacity="0.5" d="M123.925 83.0143C123.925 83.2924 124.063 83.7095 124.339 83.8485C124.615 83.9875 124.753 83.8485 124.753 83.5704C124.753 83.2924 124.615 82.8753 124.339 82.7363C124.063 82.5973 123.925 82.7363 123.925 83.0143Z" fill="white"/>
<path opacity="0.5" d="M125.444 86.4901C125.444 87.0462 125.72 87.6023 126.134 87.8804C126.548 88.1584 126.824 87.8804 126.824 87.3243C126.824 86.7682 126.548 86.2121 126.134 85.934C125.72 85.656 125.444 85.934 125.444 86.4901Z" fill="white"/>
<path opacity="0.5" d="M130.69 78.0096C130.69 78.2877 130.828 78.7047 131.104 78.8437C131.38 78.9828 131.518 78.8437 131.518 78.5657C131.518 78.2877 131.38 77.8706 131.104 77.7316C130.828 77.4535 130.69 77.5925 130.69 78.0096Z" fill="white"/>
<path opacity="0.5" d="M127.653 76.0631C127.653 76.3411 127.791 76.7582 128.067 76.8972C128.343 77.0362 128.481 76.8972 128.481 76.6192C128.481 76.3411 128.343 75.924 128.067 75.785C127.791 75.646 127.653 75.785 127.653 76.0631Z" fill="white"/>
<path opacity="0.5" d="M127.928 97.4729V105.675L115.502 98.4461V90.2437L127.928 97.4729Z" fill="url(#paint28_linear)"/>
<path opacity="0.6" d="M117.574 89.4094V94.8313L109.428 90.1045V84.6826L117.574 89.4094Z" fill="url(#paint29_linear)"/>
<path d="M75.3563 77.6702L69.6956 76.9751C69.6956 76.9751 68.8672 80.5897 70.2478 84.2043C71.4904 87.9579 73.8376 87.9579 74.6659 87.6799C75.4943 87.4018 75.9085 85.0384 75.7705 82.397C75.6324 79.7556 75.3563 77.6702 75.3563 77.6702Z" fill="url(#paint30_linear)"/>
<path d="M95.2375 89.2092L89.991 86.2897C88.6103 85.4556 88.1961 86.4287 87.6439 87.4019L83.0877 96.1604C82.5354 97.1335 82.1212 97.8286 83.2258 98.6628L88.1961 101.582C89.0245 102.138 89.5768 102.138 90.129 101.165L94.9613 91.9897C95.5136 90.8775 96.342 89.9043 95.2375 89.2092Z" fill="url(#paint31_linear)"/>
<path d="M95.2375 89.2092L89.991 86.2897C88.6103 85.4556 88.1961 86.4287 87.6439 87.4019L83.0877 96.1604C82.5354 97.1335 82.1212 97.8286 83.2258 98.6628L88.1961 101.582C89.0245 102.138 89.5768 102.138 90.129 101.165L94.9613 91.9897C95.5136 90.8775 96.342 89.9043 95.2375 89.2092Z" fill="black" fill-opacity="0.1"/>
<path d="M94.8231 88.9314L89.5767 86.0119C88.196 85.1778 87.7818 86.151 87.2296 87.1241L82.6734 95.8826C82.1211 96.8558 81.7069 97.5509 82.8115 98.385L87.7818 101.304C88.6102 101.861 89.1625 101.861 89.7147 100.887L94.547 91.7119C95.0993 90.5997 95.9277 89.6265 94.8231 88.9314Z" fill="url(#paint32_linear)"/>
<path d="M83.0875 96.5776L89.3005 100.192L94.685 89.9045L88.6102 86.2899L83.0875 96.5776Z" fill="white"/>
<path d="M84.8825 98.8021L86.2632 99.6363L86.5393 99.0802L85.1586 98.246L84.8825 98.8021Z" fill="white"/>
<path d="M83.0874 86.5677C83.0874 86.5677 85.5726 87.2628 87.3675 87.4018C89.1623 87.5409 89.9907 87.6799 89.9907 87.8189C89.9907 88.375 89.3004 88.375 89.0242 88.375C88.472 88.514 87.3675 88.375 87.3675 88.375C87.3675 88.375 87.5055 88.653 87.0913 89.2091C86.8152 89.6262 86.8152 89.9042 86.401 90.3213C85.1584 91.5725 81.2926 90.0433 81.2926 90.0433L83.0874 86.5677Z" fill="#FFD0CA"/>
<path d="M71.9043 73.4997C71.9043 73.4997 69.6953 71.9704 67.6243 73.3606C66.1056 74.3338 64.3107 77.2533 65.001 81.424C66.1055 88.7922 77.703 93.38 77.703 93.38L71.9043 73.4997Z" fill="#DAF2FB"/>
<path d="M79.6363 84.8997C79.6363 84.8997 83.7783 86.4289 84.6066 86.846C85.435 87.263 85.297 89.3484 84.6066 90.1825C83.9163 91.0167 79.2221 90.1825 79.2221 90.1825L79.6363 84.8997Z" fill="#DAF2FB"/>
<path d="M88.8862 144.263C88.0578 143.706 82.9494 145.236 82.9494 145.236L77.4268 147.043L77.841 151.214C77.841 151.214 79.7739 153.299 82.5352 151.492C84.192 150.38 87.3675 148.989 88.472 147.182C89.3004 146.07 89.7146 144.819 88.8862 144.263Z" fill="#282525"/>
<path d="M75.2181 136.06C74.3897 135.504 69.2813 137.033 69.2813 137.033L63.7587 138.84L64.1729 143.011C64.1729 143.011 66.1058 145.096 68.8671 143.289C70.5239 142.177 73.6994 140.787 74.8039 138.979C75.6323 137.867 75.9084 136.616 75.2181 136.06Z" fill="#282525"/>
<path d="M68.0389 97.6897C68.0389 97.6897 65.5537 100.192 65.1395 105.475C65.0014 107.838 66.244 117.987 66.244 117.987C66.244 117.987 64.3111 123.27 63.7589 126.607C63.2066 130.638 63.3447 138.423 63.3447 138.423C63.6208 139.536 64.7253 140.509 66.9344 140.231C69.1434 140.092 70.6621 137.172 70.6621 137.172C70.6621 137.172 71.4905 130.638 72.1808 126.328C72.595 123.826 73.0092 122.297 73.2854 120.211C73.4234 117.848 73.5615 112.148 73.5615 112.148C73.5615 112.148 76.1847 122.853 77.0131 126.05C75.3563 131.472 76.8751 146.209 77.0131 147.46C80.3267 150.101 82.3977 147.599 83.6402 145.514C83.5022 142.177 84.0544 136.477 84.1925 131.889C84.3306 128.275 84.1925 126.746 84.3306 125.494C84.4686 123.131 83.3641 116.041 82.8119 110.619C82.1215 104.224 81.9835 99.636 81.9835 99.636L68.0389 97.6897Z" fill="url(#paint33_linear)"/>
<path d="M81.8448 81.5629C81.8448 85.1775 81.7068 89.9043 81.8448 91.8506C81.9829 95.3262 82.9494 102.694 83.5016 105.475C82.3971 106.587 77.5648 109.646 73.5609 108.811C70.6615 108.255 66.2434 106.587 64.5867 103.807C64.5867 103.25 66.1054 98.3847 66.1054 94.7701C66.1054 90.0433 65.6912 85.3165 65.5531 81.7019C65.4151 79.1995 66.7957 75.7239 67.7622 74.7508C68.8667 73.6386 69.4189 73.3605 71.3519 73.7776C72.8706 73.9166 76.3222 75.8629 77.4267 76.419C80.3261 77.6702 81.8448 80.4507 81.8448 81.5629Z" fill="url(#paint34_linear)"/>
<path d="M70.3859 75.5851L70.9381 72.2485L75.6324 73.3607C75.6324 73.3607 75.0801 75.168 75.6324 76.6973C75.6324 76.6973 72.0427 76.4192 70.3859 75.5851Z" fill="#FCB9B4"/>
<path d="M69.2811 65.0192C70.2475 62.9339 73.8372 60.5705 77.2889 63.768C80.8786 67.1046 79.4979 73.9167 76.8747 74.4728C75.494 74.7508 72.8708 74.0557 71.0759 72.2484C69.005 70.1631 68.4527 66.6875 69.2811 65.0192Z" fill="#FFD0CA"/>
<path d="M79.774 63.4901C79.774 63.4901 79.636 65.0193 78.6695 65.9925C77.565 66.9657 75.6321 67.6608 75.6321 67.6608C75.6321 67.6608 75.6321 68.3559 75.7701 69.19C75.9082 70.0242 75.494 70.4412 75.494 70.4412C75.494 70.4412 74.3895 68.773 73.6991 70.1632C73.0088 71.5534 74.2514 72.2485 74.2514 72.2485C74.2514 72.2485 73.8372 73.2217 73.1469 73.9168C72.5946 74.4729 71.6282 75.029 71.6282 75.029C71.6282 75.029 70.7998 72.9437 69.5572 70.9973C68.1765 69.051 67.7623 67.5218 67.7623 66.6876C67.7623 65.5754 68.1765 63.6291 70.3856 62.656C72.4566 60.7096 74.8037 61.8218 75.494 62.0999C76.0463 62.3779 77.4269 62.656 78.5314 61.9608C78.3934 63.073 77.8411 63.9072 77.8411 63.9072C77.8411 63.9072 78.6695 63.7681 79.774 63.4901Z" fill="#282525"/>
<path d="M73.8371 74.751C75.632 74.751 76.8746 75.7241 77.4268 76.4192C77.4268 76.4192 74.5275 78.2265 72.5946 77.3924C71.6281 76.9753 69.9713 76.1412 69.6952 75.5851C69.1429 74.89 70.6616 73.3607 70.6616 73.3607C70.6616 73.3607 71.49 74.751 73.8371 74.751Z" fill="#DAF2FB"/>
<path d="M92.2001 95.4654C92.2001 95.4654 92.6143 94.7703 92.7524 94.0752C92.8905 93.6581 92.4763 93.102 92.0621 93.9362C91.6479 94.6313 90.6814 95.4654 90.6814 95.4654L88.8866 98.663C88.8866 98.663 90.9575 100.748 92.8905 99.4971C94.9614 98.2459 93.7189 96.0215 93.4427 95.7435C93.0285 95.4654 92.2001 95.4654 92.2001 95.4654Z" fill="#FFD0CA"/>
<path d="M85.0208 91.4335C84.6066 88.6531 84.0543 86.5677 83.6401 83.9263C82.9498 79.8946 81.0169 78.0873 79.3601 77.8093C79.3601 77.8093 77.151 80.0336 77.013 83.2312C76.8749 86.5677 77.151 89.3482 79.084 92.5457C79.7743 93.6579 81.5691 96.2993 83.364 97.1335C85.0208 97.9676 89.5769 99.7749 90.5434 99.7749C91.924 98.9408 92.8905 96.8554 90.9576 94.6311C89.715 94.214 86.4014 91.9896 85.0208 91.4335Z" fill="#DAF2FB"/>
<defs>
<linearGradient id="paint0_linear" x1="48.0992" y1="64.129" x2="55.6846" y2="50.5836" gradientUnits="userSpaceOnUse">
<stop stop-color="#DEF1F7"/>
<stop offset="1" stop-color="#B7DDE9"/>
</linearGradient>
<linearGradient id="paint1_linear" x1="43.2228" y1="61.9619" x2="51.8918" y2="47.8747" gradientUnits="userSpaceOnUse">
<stop stop-color="#DEF1F7"/>
<stop offset="1" stop-color="#B7DDE9"/>
</linearGradient>
<linearGradient id="paint2_linear" x1="45.9319" y1="58.7108" x2="51.3501" y2="49.5" gradientUnits="userSpaceOnUse">
<stop stop-color="#DEF1F7"/>
<stop offset="1" stop-color="#B7DDE9"/>
</linearGradient>
<linearGradient id="paint3_linear" x1="29.6774" y1="85.26" x2="44.3064" y2="82.551" gradientUnits="userSpaceOnUse">
<stop stop-color="#DEF1F7"/>
<stop offset="1" stop-color="#B7DDE9"/>
</linearGradient>
<linearGradient id="paint4_linear" x1="34.5535" y1="50.0421" x2="35.6371" y2="72.2565" gradientUnits="userSpaceOnUse">
<stop offset="0.00518135" stop-color="#4ED5FF"/>
<stop offset="1" stop-color="#22ACD7"/>
</linearGradient>
<linearGradient id="paint5_linear" x1="68.1517" y1="30.1329" x2="87.2412" y2="30.1329" gradientUnits="userSpaceOnUse">
<stop offset="0.00518135" stop-color="#4ED5FF"/>
<stop offset="1" stop-color="#22ACD7"/>
</linearGradient>
<linearGradient id="paint6_linear" x1="68.9974" y1="20.5073" x2="86.2658" y2="20.5073" gradientUnits="userSpaceOnUse">
<stop stop-color="#1691D6"/>
<stop offset="1" stop-color="#1680BB"/>
</linearGradient>
<linearGradient id="paint7_linear" x1="68.9806" y1="19.8236" x2="73.4013" y2="19.8236" gradientUnits="userSpaceOnUse">
<stop stop-color="#1691D6"/>
<stop offset="1" stop-color="#1680BB"/>
</linearGradient>
<linearGradient id="paint8_linear" x1="81.406" y1="43.4576" x2="85.8268" y2="43.4576" gradientUnits="userSpaceOnUse">
<stop stop-color="#1691D6"/>
<stop offset="1" stop-color="#1680BB"/>
</linearGradient>
<linearGradient id="paint9_linear" x1="68.9789" y1="21.4234" x2="72.1563" y2="21.4234" gradientUnits="userSpaceOnUse">
<stop stop-color="#1691D6"/>
<stop offset="1" stop-color="#1680BB"/>
</linearGradient>
<linearGradient id="paint10_linear" x1="71.1946" y1="31.1983" x2="83.5" y2="31.1983" gradientUnits="userSpaceOnUse">
<stop stop-color="#1691D6"/>
<stop offset="1" stop-color="#1680BB"/>
</linearGradient>
<linearGradient id="paint11_linear" x1="90.3866" y1="33.3427" x2="130.917" y2="33.3427" gradientUnits="userSpaceOnUse">
<stop offset="0.00518135" stop-color="#4ED5FF"/>
<stop offset="1" stop-color="#22ACD7"/>
</linearGradient>
<linearGradient id="paint12_linear" x1="91.49" y1="11.0572" x2="99.6407" y2="11.0572" gradientUnits="userSpaceOnUse">
<stop stop-color="#1691D6"/>
<stop offset="1" stop-color="#1680BB"/>
</linearGradient>
<linearGradient id="paint13_linear" x1="121.174" y1="28.4349" x2="129.325" y2="28.4349" gradientUnits="userSpaceOnUse">
<stop stop-color="#1691D6"/>
<stop offset="1" stop-color="#1680BB"/>
</linearGradient>
<linearGradient id="paint14_linear" x1="100.472" y1="24.9644" x2="114.563" y2="24.9644" gradientUnits="userSpaceOnUse">
<stop stop-color="#1691D6"/>
<stop offset="1" stop-color="#1680BB"/>
</linearGradient>
<linearGradient id="paint15_linear" x1="109.3" y1="24.1179" x2="117.451" y2="24.1179" gradientUnits="userSpaceOnUse">
<stop stop-color="#1691D6"/>
<stop offset="1" stop-color="#1680BB"/>
</linearGradient>
<linearGradient id="paint16_linear" x1="109.991" y1="41.0788" x2="118.141" y2="41.0788" gradientUnits="userSpaceOnUse">
<stop stop-color="#1691D6"/>
<stop offset="1" stop-color="#1680BB"/>
</linearGradient>
<linearGradient id="paint17_linear" x1="113.434" y1="41.0263" x2="114.815" y2="41.0263" gradientUnits="userSpaceOnUse">
<stop stop-color="#1691D6"/>
<stop offset="1" stop-color="#1680BB"/>
</linearGradient>
<linearGradient id="paint18_linear" x1="119.096" y1="35.671" x2="121.859" y2="35.671" gradientUnits="userSpaceOnUse">
<stop stop-color="#1691D6"/>
<stop offset="1" stop-color="#1680BB"/>
</linearGradient>
<linearGradient id="paint19_linear" x1="100.481" y1="44.8268" x2="121.065" y2="44.8268" gradientUnits="userSpaceOnUse">
<stop stop-color="#1691D6"/>
<stop offset="1" stop-color="#1680BB"/>
</linearGradient>
<linearGradient id="paint20_linear" x1="107.644" y1="62.7296" x2="115.933" y2="62.7296" gradientUnits="userSpaceOnUse">
<stop stop-color="#1691D6"/>
<stop offset="1" stop-color="#1680BB"/>
</linearGradient>
<linearGradient id="paint21_linear" x1="109.843" y1="58.2165" x2="113.439" y2="58.2165" gradientUnits="userSpaceOnUse">
<stop stop-color="#1691D6"/>
<stop offset="1" stop-color="#1680BB"/>
</linearGradient>
<linearGradient id="paint22_linear" x1="121.029" y1="80.5272" x2="134.586" y2="80.5272" gradientUnits="userSpaceOnUse">
<stop offset="0.00518135" stop-color="#4ED5FF"/>
<stop offset="1" stop-color="#22ACD7"/>
</linearGradient>
<linearGradient id="paint23_linear" x1="121.995" y1="80.5949" x2="133.476" y2="80.5949" gradientUnits="userSpaceOnUse">
<stop offset="0.00518135" stop-color="#4ED5FF"/>
<stop offset="1" stop-color="#22ACD7"/>
</linearGradient>
<linearGradient id="paint24_linear" x1="124.348" y1="72.0947" x2="131.117" y2="72.0947" gradientUnits="userSpaceOnUse">
<stop stop-color="#1691D6"/>
<stop offset="1" stop-color="#1680BB"/>
</linearGradient>
<linearGradient id="paint25_linear" x1="124.348" y1="73.485" x2="131.117" y2="73.485" gradientUnits="userSpaceOnUse">
<stop stop-color="#1691D6"/>
<stop offset="1" stop-color="#1680BB"/>
</linearGradient>
<linearGradient id="paint26_linear" x1="123.378" y1="78.9737" x2="127.799" y2="78.9737" gradientUnits="userSpaceOnUse">
<stop stop-color="#1691D6"/>
<stop offset="1" stop-color="#1680BB"/>
</linearGradient>
<linearGradient id="paint27_linear" x1="128.76" y1="87.3883" x2="131.247" y2="87.3883" gradientUnits="userSpaceOnUse">
<stop stop-color="#1691D6"/>
<stop offset="1" stop-color="#1680BB"/>
</linearGradient>
<linearGradient id="paint28_linear" x1="115.518" y1="97.9378" x2="127.952" y2="97.9378" gradientUnits="userSpaceOnUse">
<stop stop-color="#1691D6"/>
<stop offset="1" stop-color="#1680BB"/>
</linearGradient>
<linearGradient id="paint29_linear" x1="109.43" y1="89.7619" x2="117.592" y2="89.7619" gradientUnits="userSpaceOnUse">
<stop offset="0.00518135" stop-color="#4ED5FF"/>
<stop offset="1" stop-color="#22ACD7"/>
</linearGradient>
<linearGradient id="paint30_linear" x1="75.746" y1="82.38" x2="69.5038" y2="82.38" gradientUnits="userSpaceOnUse">
<stop stop-color="#3A2BAA"/>
<stop offset="1" stop-color="#2F1784"/>
</linearGradient>
<linearGradient id="paint31_linear" x1="84.4003" y1="100.214" x2="92.5276" y2="87.2108" gradientUnits="userSpaceOnUse">
<stop stop-color="#DEF1F7"/>
<stop offset="1" stop-color="#B7DDE9"/>
</linearGradient>
<linearGradient id="paint32_linear" x1="84.4003" y1="100.215" x2="92.5276" y2="87.211" gradientUnits="userSpaceOnUse">
<stop stop-color="#DEF1F7"/>
<stop offset="1" stop-color="#B7DDE9"/>
</linearGradient>
<linearGradient id="paint33_linear" x1="84.3149" y1="123.073" x2="63.2893" y2="123.073" gradientUnits="userSpaceOnUse">
<stop stop-color="#1680BB"/>
<stop offset="1" stop-color="#066EA9"/>
</linearGradient>
<linearGradient id="paint34_linear" x1="64.3532" y1="102.382" x2="77.8985" y2="81.7927" gradientUnits="userSpaceOnUse">
<stop stop-color="#DEF1F7"/>
<stop offset="1" stop-color="#B7DDE9"/>
</linearGradient>
</defs>
</svg>